<svg xmlns="http://www.w3.org/2000/svg" xmlns:xlink="http://www.w3.org/1999/xlink" width="1080" zoomAndPan="magnify" viewBox="0 0 810 809.999993" height="1080" preserveAspectRatio="xMidYMid meet" version="1.0"><defs><clipPath id="28f0dcf9f0"><path d="M 513 137.023438 L 765 137.023438 L 765 595 L 513 595 Z M 513 137.023438 " clip-rule="nonzero"/></clipPath><clipPath id="008b67a24e"><path d="M 512 137.023438 L 765 137.023438 L 765 596 L 512 596 Z M 512 137.023438 " clip-rule="nonzero"/></clipPath><clipPath id="d6aff1c3b7"><path d="M 381 137.023438 L 456 137.023438 L 456 213 L 381 213 Z M 381 137.023438 " clip-rule="nonzero"/></clipPath><clipPath id="e75d767728"><path d="M 380 137.023438 L 457 137.023438 L 457 213 L 380 213 Z M 380 137.023438 " clip-rule="nonzero"/></clipPath></defs><g clip-path="url(#28f0dcf9f0)"><path fill="#ffffff" d="M 536.773438 594.484375 L 741.046875 594.484375 C 753.792969 594.484375 764.226562 584.054688 764.226562 571.304688 L 764.226562 160.851562 C 764.226562 148.101562 753.792969 137.671875 741.046875 137.671875 L 536.773438 137.671875 C 524.023438 137.671875 513.59375 148.101562 513.59375 160.851562 L 513.59375 571.304688 C 513.59375 584.054688 524.023438 594.484375 536.773438 594.484375 " fill-opacity="1" fill-rule="nonzero"/></g><g clip-path="url(#008b67a24e)"><path fill="#000000" d="M 536.773438 138.316406 C 524.347656 138.316406 514.238281 148.425781 514.238281 160.851562 L 514.238281 571.300781 C 514.238281 583.726562 524.347656 593.839844 536.773438 593.839844 L 741.046875 593.839844 C 753.472656 593.839844 763.578125 583.726562 763.578125 571.300781 L 763.578125 160.851562 C 763.578125 148.425781 753.472656 138.316406 741.046875 138.316406 Z M 741.046875 595.128906 L 536.773438 595.128906 C 523.636719 595.128906 512.949219 584.441406 512.949219 571.300781 L 512.949219 160.851562 C 512.949219 147.710938 523.636719 137.023438 536.773438 137.023438 L 741.046875 137.023438 C 754.183594 137.023438 764.871094 147.710938 764.871094 160.851562 L 764.871094 571.300781 C 764.871094 584.441406 754.183594 595.128906 741.046875 595.128906 " fill-opacity="1" fill-rule="nonzero"/></g><path fill="#ffffff" d="M 547.222656 579.980469 L 730.597656 579.980469 C 742.328125 579.980469 751.933594 570.382812 751.933594 558.648438 L 751.933594 172.246094 C 751.933594 160.511719 742.328125 150.914062 730.597656 150.914062 L 547.222656 150.914062 C 535.488281 150.914062 525.890625 160.511719 525.890625 172.246094 L 525.890625 558.648438 C 525.890625 570.382812 535.488281 579.980469 547.222656 579.980469 " fill-opacity="1" fill-rule="nonzero"/><path fill="#000000" d="M 547.222656 151.558594 C 535.8125 151.558594 526.535156 160.835938 526.535156 172.246094 L 526.535156 558.648438 C 526.535156 570.054688 535.8125 579.335938 547.222656 579.335938 L 730.597656 579.335938 C 742.003906 579.335938 751.285156 570.054688 751.285156 558.648438 L 751.285156 172.246094 C 751.285156 160.835938 742.003906 151.558594 730.597656 151.558594 Z M 730.597656 580.628906 L 547.222656 580.628906 C 535.101562 580.628906 525.242188 570.765625 525.242188 558.648438 L 525.242188 172.246094 C 525.242188 160.125 535.101562 150.265625 547.222656 150.265625 L 730.597656 150.265625 C 742.714844 150.265625 752.578125 160.125 752.578125 172.246094 L 752.578125 558.648438 C 752.578125 570.765625 742.714844 580.628906 730.597656 580.628906 " fill-opacity="1" fill-rule="nonzero"/><path fill="#000000" d="M 662.398438 164.484375 L 612.585938 164.484375 C 612.230469 164.484375 611.9375 164.195312 611.9375 163.835938 C 611.9375 163.480469 612.230469 163.191406 612.585938 163.191406 L 662.398438 163.191406 C 662.753906 163.191406 663.042969 163.480469 663.042969 163.835938 C 663.042969 164.195312 662.753906 164.484375 662.398438 164.484375 " fill-opacity="1" fill-rule="nonzero"/><path fill="#e2eaff" d="M 543.703125 430.421875 L 543.703125 218.71875 C 543.703125 207.246094 553.089844 197.859375 564.5625 197.859375 L 713.394531 197.859375 C 724.867188 197.859375 734.253906 207.246094 734.253906 218.71875 L 734.253906 430.421875 C 734.253906 441.894531 724.867188 451.277344 713.394531 451.277344 L 564.5625 451.277344 C 553.089844 451.277344 543.703125 441.894531 543.703125 430.421875 " fill-opacity="1" fill-rule="nonzero"/><path fill="#ffffff" d="M 580.574219 269.5625 L 595.683594 259.703125 L 595.683594 273.792969 C 595.683594 278.53125 599.4375 282.226562 604.238281 282.203125 L 604.238281 282.191406 L 643.179688 282.179688 L 643.179688 385.578125 L 594.371094 385.503906 C 591.109375 385.5 587.988281 384.472656 585.460938 382.574219 L 576.015625 375.46875 L 576.015625 277.792969 C 576.015625 274.535156 577.746094 271.414062 580.574219 269.5625 Z M 576.015625 224.621094 L 593.144531 224.617188 C 594.570312 224.617188 595.683594 225.714844 595.683594 227.128906 L 595.683594 245.953125 L 576.015625 258.789062 Z M 611.550781 249.34375 C 614.207031 247.609375 617.285156 246.679688 620.378906 246.679688 L 648.789062 246.695312 C 651.613281 246.699219 654.3125 247.585938 656.5 249.234375 L 688.691406 273.511719 L 609.988281 273.53125 C 606.757812 273.53125 604.238281 271.042969 604.238281 267.851562 L 604.238281 254.121094 Z M 698.359375 385.660156 L 651.734375 385.589844 L 651.734375 282.179688 L 698.359375 282.167969 Z M 698.359375 399.414062 L 698.359375 451.898438 L 706.914062 451.910156 L 706.914062 399.425781 L 734.988281 399.464844 L 734.988281 385.714844 L 706.914062 385.675781 L 706.914062 282.164062 L 734.988281 282.15625 L 734.988281 273.5 L 711.851562 273.507812 C 708.679688 273.507812 705.648438 272.511719 703.191406 270.667969 L 671.335938 246.707031 L 734.988281 246.742188 L 734.988281 232.988281 L 699.636719 232.953125 L 699.636719 197.351562 L 686.207031 197.351562 L 686.207031 230.40625 C 686.207031 231.785156 685.03125 232.949219 683.636719 232.945312 L 619.851562 232.929688 C 617.097656 232.925781 614.363281 233.753906 612.007812 235.292969 L 604.238281 240.371094 L 604.238281 220.636719 C 604.238281 218.011719 602.160156 215.957031 599.5 215.960938 L 576.015625 215.96875 L 576.015625 197.265625 L 567.460938 197.191406 L 567.460938 215.96875 L 543.433594 215.972656 L 543.433594 224.628906 L 567.460938 224.625 L 567.460938 264.371094 L 543.433594 280.058594 L 543.433594 293.808594 L 567.460938 278.125 L 567.460938 369.035156 L 543.433594 350.960938 L 543.433594 364.714844 L 565.109375 381.019531 C 566.601562 382.136719 567.460938 383.886719 567.460938 385.789062 L 567.460938 451.734375 L 576.015625 451.777344 L 576.015625 389.21875 L 586.273438 396.933594 C 588.242188 398.417969 590.675781 399.21875 593.21875 399.222656 L 698.359375 399.414062 " fill-opacity="1" fill-rule="nonzero"/><path fill="#e2eaff" d="M 697.460938 501.351562 L 577.675781 501.351562 C 572.035156 501.351562 567.460938 496.777344 567.460938 491.136719 C 567.460938 485.5 572.035156 480.921875 577.675781 480.921875 L 697.460938 480.921875 C 703.101562 480.921875 707.675781 485.5 707.675781 491.136719 C 707.675781 496.777344 703.101562 501.351562 697.460938 501.351562 " fill-opacity="1" fill-rule="nonzero"/><path fill="#e2eaff" d="M 697.460938 539.929688 L 577.675781 539.929688 C 572.035156 539.929688 567.460938 535.355469 567.460938 529.714844 C 567.460938 524.074219 572.035156 519.503906 577.675781 519.503906 L 697.460938 519.503906 C 703.101562 519.503906 707.675781 524.074219 707.675781 529.714844 C 707.675781 535.355469 703.101562 539.929688 697.460938 539.929688 " fill-opacity="1" fill-rule="nonzero"/><path fill="#ffffff" d="M 701.554688 205.398438 C 701.554688 218.339844 691.070312 228.828125 678.128906 228.828125 C 665.191406 228.828125 654.703125 218.339844 654.703125 205.398438 C 654.703125 192.464844 665.191406 181.972656 678.128906 181.972656 C 691.070312 181.972656 701.554688 192.464844 701.554688 205.398438 " fill-opacity="1" fill-rule="nonzero"/><path fill="#608cf8" d="M 678.847656 220.839844 C 668.992188 220.839844 661.007812 212.851562 661.007812 202.996094 C 661.007812 193.144531 668.992188 185.15625 678.847656 185.15625 C 688.699219 185.15625 696.6875 193.144531 696.6875 202.996094 C 696.6875 212.851562 688.699219 220.839844 678.847656 220.839844 Z M 678.847656 163.835938 C 657.699219 163.835938 640.554688 180.980469 640.554688 202.128906 C 640.554688 239.007812 678.847656 277.839844 678.847656 277.839844 C 678.847656 277.839844 717.136719 238.652344 717.136719 202.128906 C 717.136719 180.980469 699.996094 163.835938 678.847656 163.835938 " fill-opacity="1" fill-rule="nonzero"/><path fill="#ffffff" d="M 656.714844 227.695312 C 654 227.695312 651.796875 225.496094 651.796875 222.777344 L 651.796875 219.359375 C 651.796875 216.644531 654 214.441406 656.714844 214.441406 C 659.429688 214.441406 661.632812 216.644531 661.632812 219.359375 L 661.632812 222.777344 C 661.632812 225.496094 659.429688 227.695312 656.714844 227.695312 " fill-opacity="1" fill-rule="nonzero"/><path fill="#ffffff" d="M 700.855469 227.695312 C 698.140625 227.695312 695.9375 225.496094 695.9375 222.777344 L 695.9375 219.359375 C 695.9375 216.644531 698.140625 214.441406 700.855469 214.441406 C 703.574219 214.441406 705.773438 216.644531 705.773438 219.359375 L 705.773438 222.777344 C 705.773438 225.496094 703.574219 227.695312 700.855469 227.695312 " fill-opacity="1" fill-rule="nonzero"/><path fill="#e2eaff" d="M 708.480469 194.945312 L 705.941406 195.3125 C 705.359375 195.394531 704.929688 195.851562 704.929688 196.386719 L 704.929688 198.125 C 704.929688 198.558594 704.636719 198.949219 704.191406 199.105469 L 704.125 199.128906 C 701.996094 193.816406 698.980469 187.785156 697.453125 186.398438 C 694.640625 183.847656 662.855469 184.058594 660.28125 186.398438 C 658.023438 188.449219 655.332031 194.070312 653.464844 199.09375 C 653.039062 198.929688 652.761719 198.546875 652.761719 198.125 L 652.761719 196.386719 C 652.761719 195.851562 652.332031 195.394531 651.75 195.3125 L 649.214844 194.945312 C 647.832031 194.746094 646.585938 195.714844 646.585938 196.984375 C 646.585938 197.855469 647.1875 198.632812 648.085938 198.929688 L 652.953125 200.519531 C 652.277344 202.449219 651.75 204.226562 651.449219 205.585938 C 650.796875 208.539062 651.445312 217.648438 651.445312 217.648438 C 651.445312 217.648438 655.78125 219.453125 657.332031 219.710938 C 667.917969 221.503906 689.816406 221.503906 700.398438 219.710938 C 701.953125 219.453125 706.285156 217.648438 706.285156 217.648438 C 706.285156 217.648438 706.9375 208.539062 706.28125 205.585938 C 705.988281 204.269531 705.410156 202.488281 704.671875 200.542969 L 709.605469 198.929688 C 710.507812 198.632812 711.109375 197.855469 711.109375 196.984375 C 711.109375 195.714844 709.859375 194.746094 708.480469 194.945312 " fill-opacity="1" fill-rule="nonzero"/><path fill="#ffffff" d="M 702.234375 198.152344 C 700.269531 193.457031 697.742188 188.523438 696.417969 187.316406 C 693.761719 184.90625 663.746094 185.105469 661.3125 187.316406 C 659.339844 189.113281 657.015625 193.800781 655.28125 198.25 C 665.75 196.460938 691.507812 196.320312 702.234375 198.152344 " fill-opacity="1" fill-rule="nonzero"/><path fill="#ffffff" d="M 666.019531 219.683594 C 673.96875 220.328125 683.761719 220.328125 691.710938 219.683594 L 691.195312 216.691406 C 690.925781 215.144531 689.691406 214.023438 688.253906 214.023438 L 669.480469 214.023438 C 668.042969 214.023438 666.804688 215.144531 666.539062 216.691406 L 666.019531 219.683594 " fill-opacity="1" fill-rule="nonzero"/><path fill="#ffffff" d="M 688.664062 208.238281 C 682.601562 207.933594 675.132812 207.933594 669.066406 208.238281 L 669.460938 209.640625 C 669.667969 210.363281 670.609375 210.886719 671.703125 210.886719 L 686.027344 210.886719 C 687.125 210.886719 688.066406 210.363281 688.269531 209.640625 L 688.664062 208.238281 " fill-opacity="1" fill-rule="nonzero"/><path fill="#ffffff" d="M 659.390625 217.835938 L 653.953125 216.789062 C 653.472656 216.699219 653.210938 216.226562 653.417969 215.820312 L 654.183594 214.316406 C 654.332031 214.019531 654.683594 213.859375 655.03125 213.925781 L 660.867188 215.046875 C 661.410156 215.152344 661.652344 215.734375 661.324219 216.136719 L 660.164062 217.570312 C 659.984375 217.785156 659.683594 217.890625 659.390625 217.835938 " fill-opacity="1" fill-rule="nonzero"/><path fill="#ffffff" d="M 663.765625 208.863281 L 660.359375 210.257812 C 660.070312 210.375 659.742188 210.367188 659.464844 210.234375 L 653.9375 207.691406 C 653.699219 207.578125 653.515625 207.390625 653.425781 207.15625 L 653 206.042969 C 652.730469 205.324219 653.445312 204.625 654.253906 204.820312 L 663.605469 207.085938 C 664.0625 207.199219 664.375 207.574219 664.375 208 C 664.375 208.375 664.136719 208.710938 663.765625 208.863281 " fill-opacity="1" fill-rule="nonzero"/><path fill="#ffffff" d="M 698.441406 217.835938 L 703.882812 216.789062 C 704.359375 216.699219 704.621094 216.226562 704.414062 215.820312 L 703.652344 214.316406 C 703.5 214.019531 703.148438 213.859375 702.800781 213.925781 L 696.964844 215.046875 C 696.421875 215.152344 696.179688 215.734375 696.507812 216.136719 L 697.667969 217.570312 C 697.847656 217.785156 698.148438 217.890625 698.441406 217.835938 " fill-opacity="1" fill-rule="nonzero"/><path fill="#ffffff" d="M 694.066406 208.863281 L 697.472656 210.257812 C 697.761719 210.375 698.09375 210.367188 698.371094 210.234375 L 703.894531 207.691406 C 704.132812 207.578125 704.316406 207.390625 704.40625 207.15625 L 704.828125 206.042969 C 705.101562 205.324219 704.386719 204.625 703.578125 204.820312 L 694.226562 207.085938 C 693.773438 207.199219 693.457031 207.574219 693.457031 208 C 693.457031 208.375 693.695312 208.710938 694.066406 208.863281 " fill-opacity="1" fill-rule="nonzero"/><path fill="#ffffff" d="M 220.324219 584.609375 L 215.539062 427.507812 L 264.738281 584.609375 L 336.140625 584.609375 L 253.53125 346.335938 L 159.980469 336.3125 L 147.867188 584.609375 L 220.324219 584.609375 " fill-opacity="1" fill-rule="nonzero"/><path fill="#000000" d="M 265.210938 583.960938 L 335.234375 583.960938 L 253.050781 346.9375 L 160.59375 337.027344 L 148.546875 583.960938 L 219.65625 583.960938 L 214.894531 427.527344 C 214.882812 427.207031 215.113281 426.925781 215.429688 426.871094 C 215.746094 426.820312 216.058594 427.007812 216.152344 427.316406 Z M 336.140625 585.253906 L 264.738281 585.253906 C 264.457031 585.253906 264.203125 585.074219 264.121094 584.800781 L 216.328125 432.1875 L 220.96875 584.589844 C 220.976562 584.765625 220.90625 584.933594 220.789062 585.058594 C 220.664062 585.183594 220.496094 585.253906 220.324219 585.253906 L 147.867188 585.253906 C 147.691406 585.253906 147.523438 585.183594 147.398438 585.054688 C 147.277344 584.925781 147.214844 584.753906 147.222656 584.578125 L 159.335938 336.28125 C 159.34375 336.105469 159.425781 335.9375 159.558594 335.820312 C 159.695312 335.703125 159.867188 335.648438 160.046875 335.671875 L 253.597656 345.695312 C 253.847656 345.722656 254.054688 345.890625 254.136719 346.125 L 336.753906 584.398438 C 336.820312 584.59375 336.789062 584.8125 336.667969 584.984375 C 336.546875 585.152344 336.351562 585.253906 336.140625 585.253906 " fill-opacity="1" fill-rule="nonzero"/><path fill="#000000" d="M 215.539062 428.15625 C 215.539062 428.15625 215.539062 428.15625 215.535156 428.15625 C 215.179688 428.152344 214.890625 427.863281 214.894531 427.503906 L 214.945312 413.84375 C 214.945312 413.484375 215.234375 413.199219 215.589844 413.199219 C 215.589844 413.199219 215.589844 413.199219 215.59375 413.199219 C 215.949219 413.203125 216.238281 413.492188 216.238281 413.84375 L 216.183594 427.511719 C 216.183594 427.863281 215.894531 428.15625 215.539062 428.15625 " fill-opacity="1" fill-rule="nonzero"/><path fill="#ffffff" d="M 213.179688 229.847656 L 214.496094 212.347656 C 214.496094 212.347656 209.621094 190.855469 193.09375 206.902344 L 190.066406 230.84375 C 190.066406 230.84375 187.175781 242.621094 201.046875 242.59375 C 212.832031 242.566406 213.179688 229.847656 213.179688 229.847656 " fill-opacity="1" fill-rule="nonzero"/><path fill="#000000" d="M 213.300781 227.644531 C 213.292969 227.644531 213.285156 227.644531 213.273438 227.644531 C 212.917969 227.628906 212.640625 227.328125 212.65625 226.96875 L 213.265625 212.398438 C 213.078125 211.550781 211.175781 203.507812 205.949219 201.886719 C 202.589844 200.84375 198.472656 202.632812 193.707031 207.210938 L 191.753906 222.644531 C 191.707031 223 191.386719 223.246094 191.03125 223.203125 C 190.679688 223.160156 190.425781 222.839844 190.472656 222.484375 L 192.453125 206.824219 C 192.472656 206.675781 192.539062 206.542969 192.644531 206.441406 C 197.84375 201.394531 202.449219 199.445312 206.335938 200.652344 C 212.558594 202.589844 214.46875 211.828125 214.546875 212.21875 C 214.558594 212.269531 214.558594 212.320312 214.558594 212.375 L 213.945312 227.023438 C 213.929688 227.371094 213.648438 227.644531 213.300781 227.644531 " fill-opacity="1" fill-rule="nonzero"/><path fill="#000000" d="M 209.277344 184.71875 C 217.886719 182.773438 220.609375 180.335938 220.609375 180.335938 C 220.609375 180.335938 223.414062 178.40625 222.390625 172.675781 C 221.367188 166.945312 210.933594 158.757812 198.882812 170.09375 C 186.835938 181.425781 172.429688 192.105469 183.558594 193.777344 C 183.558594 193.777344 177.480469 204.757812 193.1875 202.71875 L 198.824219 209.3125 C 198.824219 209.3125 206.792969 225.453125 220.542969 220.992188 C 234.292969 216.53125 229.992188 210.914062 228.324219 205.484375 C 227.839844 203.894531 226.972656 201.078125 225.992188 197.886719 C 223.070312 199.039062 219.417969 200.855469 214.710938 203.421875 C 204.527344 208.976562 200.667969 186.664062 209.277344 184.71875 " fill-opacity="1" fill-rule="nonzero"/><path fill="#ffffff" d="M 209.277344 184.71875 C 200.667969 186.664062 194.84375 188.328125 197.929688 195.96875 C 201.015625 203.609375 204.527344 208.976562 214.710938 203.421875 C 219.417969 200.855469 223.070312 199.039062 225.992188 197.886719 C 223.632812 190.191406 220.609375 180.335938 220.609375 180.335938 C 220.609375 180.335938 217.886719 182.773438 209.277344 184.71875 " fill-opacity="1" fill-rule="nonzero"/><path fill="#000000" d="M 220.609375 180.335938 C 220.609375 180.335938 217.886719 182.773438 209.277344 184.71875 C 200.667969 186.664062 194.84375 188.328125 197.929688 195.96875 C 200.132812 201.417969 202.546875 205.707031 207.445312 205.707031 C 209.417969 205.707031 211.789062 205.011719 214.710938 203.421875 C 219.417969 200.855469 223.070312 199.039062 225.992188 197.886719 C 223.632812 190.191406 220.609375 180.335938 220.609375 180.335938 Z M 219.878906 182.359375 L 224.417969 197.140625 C 221.757812 198.265625 218.433594 199.921875 214.09375 202.289062 C 211.503906 203.703125 209.265625 204.417969 207.445312 204.417969 C 203.523438 204.417969 201.355469 201 199.125 195.484375 C 198.273438 193.371094 198.15625 191.78125 198.769531 190.609375 C 199.976562 188.304688 204.183594 187.191406 209.5625 185.976562 C 214.976562 184.757812 218.179688 183.316406 219.878906 182.359375 " fill-opacity="1" fill-rule="nonzero"/><path fill="#ffffff" d="M 198.824219 203.308594 C 198.824219 203.308594 191.863281 196.25 189.285156 201.125 C 186.703125 206 194.816406 212.480469 199.558594 206.753906 L 198.824219 203.308594 " fill-opacity="1" fill-rule="nonzero"/><path fill="#000000" d="M 191.945312 200.054688 C 191.8125 200.054688 191.6875 200.0625 191.566406 200.078125 C 190.835938 200.1875 190.277344 200.628906 189.855469 201.425781 C 188.699219 203.605469 190.058594 206.058594 191.996094 207.355469 C 193.789062 208.550781 196.632812 209.039062 198.859375 206.574219 L 198.230469 203.632812 C 197.0625 202.488281 194.105469 200.054688 191.945312 200.054688 Z M 195.152344 209.648438 C 193.714844 209.648438 192.347656 209.140625 191.277344 208.425781 C 188.859375 206.808594 187.199219 203.679688 188.710938 200.820312 C 189.332031 199.648438 190.230469 198.972656 191.378906 198.800781 C 194.757812 198.3125 199.101562 202.671875 199.285156 202.859375 C 199.371094 202.945312 199.429688 203.054688 199.453125 203.175781 L 200.1875 206.617188 C 200.226562 206.8125 200.179688 207.011719 200.054688 207.164062 C 198.554688 208.976562 196.804688 209.648438 195.152344 209.648438 " fill-opacity="1" fill-rule="nonzero"/><path fill="#000000" d="M 196.503906 205.890625 C 196.367188 205.890625 196.230469 205.84375 196.109375 205.753906 C 195.125 204.996094 193.847656 204.582031 192.601562 204.613281 C 192.597656 204.613281 192.589844 204.613281 192.585938 204.613281 C 192.234375 204.613281 191.949219 204.332031 191.941406 203.984375 C 191.929688 203.628906 192.210938 203.328125 192.566406 203.320312 C 194.128906 203.289062 195.667969 203.78125 196.902344 204.734375 C 197.183594 204.953125 197.234375 205.355469 197.015625 205.640625 C 196.890625 205.804688 196.699219 205.890625 196.503906 205.890625 " fill-opacity="1" fill-rule="nonzero"/><path fill="#ffffff" d="M 299.054688 237.992188 C 305.335938 222.304688 310.113281 205.828125 319.179688 191.566406 C 319.976562 190.3125 320.851562 189.035156 322.128906 188.277344 C 323.414062 187.523438 325.214844 187.4375 326.277344 188.480469 C 327.351562 189.535156 327.300781 191.261719 327.085938 192.753906 C 326.398438 197.433594 324.667969 202.769531 322.203125 206.808594 C 322.203125 206.808594 328.566406 204.859375 330.953125 210.582031 C 330.953125 210.582031 334.75 209.515625 336.421875 217.019531 C 336.421875 217.019531 340.953125 221.339844 337.65625 226.574219 C 335.285156 230.335938 332.640625 230.574219 332.640625 230.574219 C 332.640625 230.574219 328.214844 251.660156 323.167969 260.109375 C 318.121094 268.550781 295.671875 246.433594 299.054688 237.992188 " fill-opacity="1" fill-rule="nonzero"/><path fill="#000000" d="M 323.625 259.382812 C 323.542969 259.382812 323.457031 259.367188 323.375 259.332031 C 323.046875 259.195312 322.890625 258.816406 323.03125 258.488281 C 326.902344 249.195312 331.96875 230.585938 332.019531 230.402344 C 332.089844 230.140625 332.316406 229.953125 332.585938 229.925781 C 332.675781 229.917969 334.964844 229.632812 337.109375 226.226562 C 340.09375 221.496094 336.148438 217.648438 335.976562 217.488281 C 335.886719 217.398438 335.820312 217.285156 335.792969 217.160156 C 334.996094 213.585938 333.734375 212.15625 332.8125 211.589844 C 331.894531 211.019531 331.152344 211.195312 331.121094 211.203125 C 330.8125 211.277344 330.484375 211.125 330.359375 210.832031 C 328.230469 205.726562 322.628906 207.355469 322.390625 207.425781 C 322.136719 207.503906 321.859375 207.417969 321.695312 207.203125 C 321.53125 206.992188 321.511719 206.703125 321.652344 206.476562 C 323.929688 202.730469 325.722656 197.570312 326.445312 192.65625 C 326.617188 191.492188 326.738281 189.839844 325.824219 188.941406 C 324.957031 188.09375 323.441406 188.25 322.460938 188.832031 C 321.308594 189.511719 320.511719 190.679688 319.722656 191.914062 C 313.375 201.902344 309.714844 212.089844 305.839844 222.871094 C 304.472656 226.667969 303.0625 230.589844 301.515625 234.550781 C 301.386719 234.882812 301.011719 235.046875 300.679688 234.917969 C 300.347656 234.785156 300.183594 234.414062 300.316406 234.082031 C 301.855469 230.140625 303.261719 226.222656 304.621094 222.4375 C 308.523438 211.582031 312.203125 201.332031 318.632812 191.222656 C 319.472656 189.902344 320.410156 188.546875 321.800781 187.722656 C 323.234375 186.875 325.386719 186.703125 326.726562 188.019531 C 328.066406 189.332031 327.933594 191.402344 327.726562 192.847656 C 327.054688 197.40625 325.488281 202.183594 323.457031 205.925781 C 325.558594 205.6875 329.417969 205.878906 331.351562 209.882812 C 331.84375 209.863281 332.597656 209.953125 333.4375 210.457031 C 335.082031 211.4375 336.28125 213.539062 337.015625 216.703125 C 337.800781 217.546875 341.386719 221.863281 338.203125 226.914062 C 336.253906 230.011719 334.089844 230.882812 333.160156 231.125 C 332.410156 233.851562 327.816406 250.359375 324.222656 258.988281 C 324.117188 259.234375 323.875 259.382812 323.625 259.382812 " fill-opacity="1" fill-rule="nonzero"/><path fill="#000000" d="M 326.140625 228.726562 C 325.886719 228.726562 325.640625 228.703125 325.390625 228.65625 C 324.367188 228.457031 323.417969 227.726562 322.910156 226.746094 C 322.46875 225.894531 322.417969 224.949219 322.773438 224.160156 C 322.917969 223.832031 323.300781 223.691406 323.625 223.832031 C 323.953125 223.976562 324.097656 224.359375 323.953125 224.6875 C 323.6875 225.277344 323.90625 225.855469 324.058594 226.152344 C 324.386719 226.789062 324.992188 227.261719 325.640625 227.390625 C 327.019531 227.65625 328.40625 226.761719 329.164062 225.753906 C 330.003906 224.640625 330.414062 223.269531 330.777344 221.550781 C 331.1875 219.578125 331.617188 216.988281 331.242188 214.433594 C 331.113281 213.546875 330.882812 212.695312 330.566406 211.90625 C 330.429688 211.574219 330.589844 211.195312 330.921875 211.0625 C 331.253906 210.929688 331.628906 211.089844 331.761719 211.421875 C 332.121094 212.308594 332.375 213.257812 332.519531 214.246094 C 332.921875 217 332.476562 219.738281 332.039062 221.816406 C 331.695312 223.445312 331.234375 225.152344 330.195312 226.527344 C 329.152344 227.917969 327.625 228.726562 326.140625 228.726562 " fill-opacity="1" fill-rule="nonzero"/><path fill="#000000" d="M 314.570312 230.722656 C 313.949219 230.722656 313.339844 230.550781 312.8125 230.152344 C 312.527344 229.933594 312.472656 229.53125 312.6875 229.246094 C 312.898438 228.960938 313.308594 228.902344 313.589844 229.121094 C 314.476562 229.785156 315.90625 229.304688 316.691406 228.433594 C 317.449219 227.589844 317.835938 226.464844 318.25 225.28125 C 318.320312 225.074219 318.394531 224.871094 318.464844 224.667969 C 318.960938 223.296875 319.71875 221.617188 321.25 220.761719 C 322.113281 220.277344 323.0625 220.144531 323.980469 220.011719 C 324.886719 219.878906 325.742188 219.757812 326.414062 219.316406 C 327.039062 218.898438 327.441406 218.191406 327.542969 217.320312 C 327.675781 216.1875 327.292969 214.984375 326.539062 214.191406 C 324.851562 212.398438 322.109375 212.289062 320.621094 212.382812 C 317.878906 212.554688 315.242188 213.484375 312.992188 215.058594 C 312.699219 215.265625 312.300781 215.195312 312.09375 214.90625 C 311.890625 214.613281 311.960938 214.207031 312.253906 214 C 314.695312 212.289062 317.5625 211.285156 320.539062 211.09375 C 322.253906 210.984375 325.429688 211.128906 327.480469 213.304688 C 328.484375 214.371094 328.996094 215.96875 328.824219 217.46875 C 328.679688 218.726562 328.074219 219.761719 327.125 220.390625 C 326.214844 220.996094 325.171875 221.144531 324.164062 221.289062 C 323.324219 221.410156 322.53125 221.523438 321.878906 221.890625 C 320.722656 222.535156 320.097656 223.949219 319.683594 225.105469 C 319.609375 225.304688 319.539062 225.503906 319.46875 225.707031 C 319.035156 226.957031 318.585938 228.257812 317.648438 229.296875 C 316.898438 230.136719 315.71875 230.722656 314.570312 230.722656 " fill-opacity="1" fill-rule="nonzero"/><path fill="#000000" d="M 329.421875 230.65625 C 328.148438 230.65625 326.949219 229.988281 326.402344 228.953125 C 326.234375 228.636719 326.355469 228.246094 326.667969 228.082031 C 326.988281 227.914062 327.375 228.035156 327.542969 228.347656 C 327.878906 228.984375 328.699219 229.394531 329.523438 229.367188 C 330.308594 229.332031 331.128906 228.9375 331.832031 228.269531 C 332.539062 227.589844 333.066406 226.703125 333.488281 225.925781 C 334.90625 223.304688 335.613281 220.964844 335.636719 218.757812 C 335.640625 218.40625 335.925781 218.121094 336.28125 218.121094 C 336.285156 218.121094 336.289062 218.121094 336.292969 218.121094 C 336.644531 218.125 336.933594 218.417969 336.925781 218.777344 C 336.898438 221.191406 336.144531 223.734375 334.625 226.542969 C 334.152344 227.40625 333.5625 228.398438 332.726562 229.199219 C 331.796875 230.089844 330.679688 230.605469 329.582031 230.652344 C 329.527344 230.65625 329.476562 230.65625 329.421875 230.65625 " fill-opacity="1" fill-rule="nonzero"/><path fill="#000000" d="M 332.375 231.03125 C 332.304688 231.03125 332.234375 231.019531 332.164062 230.992188 C 331.65625 230.820312 331.191406 230.550781 330.785156 230.199219 C 330.515625 229.964844 330.484375 229.558594 330.71875 229.285156 C 330.953125 229.015625 331.359375 228.988281 331.628906 229.21875 C 331.90625 229.460938 332.238281 229.652344 332.589844 229.777344 C 332.925781 229.894531 333.101562 230.257812 332.984375 230.597656 C 332.894531 230.863281 332.640625 231.03125 332.375 231.03125 " fill-opacity="1" fill-rule="nonzero"/><path fill="#608cf8" d="M 250.566406 285.542969 C 250.566406 285.542969 306.132812 320.28125 323.167969 260.109375 C 314.285156 255.019531 302.894531 247.679688 299.992188 235.578125 C 299.992188 235.578125 292.261719 252.550781 283.527344 249.203125 C 262.328125 241.0625 248.132812 233.535156 219.984375 231.652344 C 217.25 231.464844 215.445312 231.515625 215.445312 231.515625 L 213.953125 225.667969 L 208.34375 231.753906 L 202.976562 226.710938 L 189.875 223.507812 L 187.109375 231.710938 C 187.109375 231.710938 188.53125 231.570312 185.296875 231.894531 C 164.953125 233.511719 152.144531 235.976562 141.398438 249.09375 C 127.546875 266 116.007812 297.804688 119.371094 317.882812 C 122.734375 337.960938 131.964844 344.171875 143.742188 348.039062 C 143.742188 348.039062 147.785156 349.457031 155.101562 349.457031 C 155.496094 356.300781 155.554688 362.816406 156.082031 376.851562 L 261.078125 359.253906 L 250.566406 285.542969 " fill-opacity="1" fill-rule="nonzero"/><path fill="#000000" d="M 250.34375 285.316406 C 250.074219 285.316406 249.824219 285.148438 249.730469 284.875 L 247.199219 277.300781 C 247.085938 276.960938 247.269531 276.597656 247.609375 276.484375 C 247.945312 276.371094 248.3125 276.554688 248.425781 276.890625 L 250.953125 284.46875 C 251.070312 284.804688 250.886719 285.171875 250.546875 285.285156 C 250.480469 285.308594 250.410156 285.316406 250.34375 285.316406 " fill-opacity="1" fill-rule="nonzero"/><path fill="#000000" d="M 203.371094 239.644531 C 203.308594 239.644531 203.25 239.636719 203.1875 239.617188 C 197.65625 238.015625 192.335938 235.703125 187.386719 232.746094 C 187.082031 232.5625 186.980469 232.164062 187.164062 231.859375 C 187.347656 231.554688 187.746094 231.453125 188.050781 231.636719 C 192.730469 234.433594 197.742188 236.640625 202.960938 238.203125 L 204.050781 235.046875 C 204.164062 234.710938 204.535156 234.53125 204.871094 234.648438 C 205.207031 234.761719 205.386719 235.132812 205.269531 235.46875 L 203.980469 239.210938 C 203.890625 239.476562 203.636719 239.644531 203.371094 239.644531 " fill-opacity="1" fill-rule="nonzero"/><path fill="#000000" d="M 212.613281 237.582031 C 212.476562 237.582031 212.339844 237.542969 212.226562 237.457031 C 211.941406 237.242188 211.882812 236.835938 212.09375 236.550781 L 215.097656 232.539062 C 215.3125 232.253906 215.71875 232.191406 216 232.40625 C 216.289062 232.621094 216.347656 233.027344 216.132812 233.308594 L 213.128906 237.324219 C 213.003906 237.492188 212.808594 237.582031 212.613281 237.582031 " fill-opacity="1" fill-rule="nonzero"/><path fill="#ffffff" d="M 230.164062 299.609375 L 211.320312 239.453125 L 211.816406 232.796875 L 208.878906 233.867188 L 204.929688 232.925781 L 207.25 240.179688 L 209.679688 305.511719 L 230.164062 299.609375 " fill-opacity="1" fill-rule="nonzero"/><path fill="#000000" d="M 252 252.898438 L 204.585938 252.898438 C 203.910156 252.898438 203.3125 253.34375 203.117188 253.992188 L 185.105469 314.675781 C 184.8125 315.65625 185.550781 316.640625 186.574219 316.640625 L 233.988281 316.640625 C 234.664062 316.640625 235.261719 316.195312 235.453125 315.542969 L 253.464844 254.863281 C 253.757812 253.882812 253.023438 252.898438 252 252.898438 " fill-opacity="1" fill-rule="nonzero"/><path fill="#ffffff" d="M 227.652344 300.15625 C 229.6875 298.195312 230.933594 296.0625 229.632812 293.972656 C 228.332031 291.882812 225.058594 291.394531 223.207031 293.015625 C 224.578125 291.933594 225.992188 290.808594 226.828125 289.273438 C 227.660156 287.738281 227.773438 285.667969 226.625 284.355469 C 225.609375 283.199219 223.878906 282.90625 222.375 283.242188 C 221.636719 283.40625 220.941406 283.699219 220.265625 284.050781 C 220.917969 283.070312 221.097656 281.691406 220.542969 280.625 C 219.605469 278.796875 217.304688 278.019531 215.265625 278.25 C 213.222656 278.480469 211.371094 279.511719 209.585938 280.519531 C 197.621094 287.253906 173.984375 300.933594 173.984375 300.933594 C 172.664062 310.542969 181.007812 330.085938 190.53125 336.3125 C 193.578125 335.394531 216.433594 317.085938 225.09375 309.660156 C 226.546875 308.414062 228.042969 307.09375 228.777344 305.328125 C 229.515625 303.566406 229.242188 301.222656 227.652344 300.15625 " fill-opacity="1" fill-rule="nonzero"/><path fill="#000000" d="M 206.234375 293.78125 C 206.015625 293.78125 205.804688 293.671875 205.683594 293.476562 C 205.496094 293.171875 205.589844 292.773438 205.894531 292.585938 C 210.261719 289.902344 214.636719 287.089844 218.894531 284.230469 C 219.195312 284.03125 219.59375 284.113281 219.789062 284.410156 C 219.988281 284.707031 219.910156 285.105469 219.617188 285.304688 C 215.34375 288.171875 210.953125 290.992188 206.570312 293.6875 C 206.464844 293.75 206.347656 293.78125 206.234375 293.78125 " fill-opacity="1" fill-rule="nonzero"/><path fill="#000000" d="M 211.773438 301.988281 C 211.574219 301.988281 211.375 301.894531 211.25 301.714844 C 211.039062 301.425781 211.109375 301.023438 211.398438 300.816406 L 222.6875 292.742188 C 222.976562 292.535156 223.382812 292.601562 223.589844 292.890625 C 223.796875 293.179688 223.730469 293.585938 223.441406 293.792969 L 212.148438 301.867188 C 212.035156 301.945312 211.902344 301.988281 211.773438 301.988281 " fill-opacity="1" fill-rule="nonzero"/><path fill="#000000" d="M 217.066406 308.71875 C 216.859375 308.71875 216.65625 308.617188 216.53125 308.433594 C 216.332031 308.136719 216.410156 307.734375 216.703125 307.535156 C 220.125 305.222656 223.476562 302.71875 226.664062 300.097656 C 226.941406 299.875 227.347656 299.914062 227.574219 300.1875 C 227.800781 300.464844 227.761719 300.871094 227.484375 301.097656 C 224.265625 303.746094 220.882812 306.269531 217.425781 308.605469 C 217.320312 308.679688 217.195312 308.71875 217.066406 308.71875 " fill-opacity="1" fill-rule="nonzero"/><path fill="#000000" d="M 155.671875 350.082031 C 155.324219 350.082031 155.035156 349.804688 155.027344 349.453125 C 155.019531 349.09375 155.300781 348.800781 155.65625 348.789062 C 167.964844 348.5 180.105469 344.390625 189.847656 337.226562 C 190.136719 337.015625 190.539062 337.074219 190.75 337.363281 C 190.960938 337.648438 190.898438 338.054688 190.613281 338.269531 C 180.660156 345.585938 168.257812 349.785156 155.6875 350.082031 C 155.683594 350.082031 155.675781 350.082031 155.671875 350.082031 " fill-opacity="1" fill-rule="nonzero"/><path fill="#000000" d="M 147.296875 317.074219 C 147.070312 317.074219 146.855469 316.957031 146.734375 316.75 C 146.558594 316.441406 146.664062 316.046875 146.972656 315.867188 L 172.339844 301.207031 C 172.648438 301.03125 173.046875 301.136719 173.222656 301.445312 C 173.402344 301.753906 173.296875 302.148438 172.988281 302.328125 L 147.617188 316.984375 C 147.515625 317.042969 147.40625 317.074219 147.296875 317.074219 " fill-opacity="1" fill-rule="nonzero"/><path fill="#000000" d="M 155.421875 310.570312 C 155.378906 310.570312 155.335938 310.5625 155.292969 310.554688 C 154.941406 310.484375 154.71875 310.140625 154.789062 309.792969 L 161.617188 276.480469 C 161.691406 276.132812 162.03125 275.910156 162.378906 275.980469 C 162.730469 276.050781 162.953125 276.394531 162.882812 276.742188 L 156.054688 310.054688 C 155.992188 310.359375 155.722656 310.570312 155.421875 310.570312 " fill-opacity="1" fill-rule="nonzero"/><path fill="#000000" d="M 181.007812 341.9375 C 180.855469 341.9375 180.703125 341.886719 180.578125 341.773438 C 171.289062 333.480469 165.542969 321.582031 164.8125 309.136719 C 164.792969 308.78125 165.066406 308.476562 165.421875 308.453125 C 165.78125 308.441406 166.082031 308.707031 166.105469 309.0625 C 166.8125 321.171875 172.402344 332.746094 181.4375 340.808594 C 181.707031 341.050781 181.730469 341.457031 181.492188 341.722656 C 181.363281 341.867188 181.1875 341.9375 181.007812 341.9375 " fill-opacity="1" fill-rule="nonzero"/><path fill="#000000" d="M 317.265625 267.121094 C 317.226562 267.121094 317.1875 267.113281 317.148438 267.109375 C 305.792969 264.988281 297.21875 257.175781 294.761719 246.726562 C 294.683594 246.378906 294.898438 246.03125 295.246094 245.949219 C 295.589844 245.867188 295.941406 246.082031 296.023438 246.429688 C 298.355469 256.378906 306.542969 263.8125 317.386719 265.835938 C 317.734375 265.902344 317.964844 266.242188 317.902344 266.59375 C 317.84375 266.902344 317.570312 267.121094 317.265625 267.121094 " fill-opacity="1" fill-rule="nonzero"/><path fill="#ffffff" d="M 764.226562 628.457031 L 48.019531 628.457031 C 33.453125 628.457031 20.222656 619.96875 14.148438 606.726562 C 1.058594 578.191406 0.65625 545.449219 13.035156 516.601562 L 16.421875 508.703125 C 21.238281 497.472656 31.257812 489.320312 43.230469 486.878906 L 45.46875 486.425781 C 58.691406 483.730469 71.425781 479.035156 83.234375 472.503906 L 151.464844 434.746094 C 196.371094 409.898438 246.855469 396.863281 298.175781 396.863281 L 367.398438 396.863281 C 417.191406 396.863281 466.1875 409.347656 509.90625 433.179688 L 547.992188 453.9375 C 564.210938 462.78125 581.8125 468.808594 600.042969 471.769531 L 648.90625 479.703125 C 694.277344 487.066406 738.839844 498.738281 782 514.554688 L 782.804688 514.847656 C 799.273438 520.886719 809.304688 537.597656 806.886719 554.972656 L 801.136719 596.328125 C 798.574219 614.746094 782.824219 628.457031 764.226562 628.457031 " fill-opacity="1" fill-rule="nonzero"/><path fill="#000000" d="M 298.175781 397.507812 C 247.09375 397.507812 196.472656 410.578125 151.777344 435.3125 L 83.546875 473.070312 C 71.671875 479.640625 58.902344 484.347656 45.597656 487.058594 L 43.359375 487.511719 C 31.597656 489.910156 21.75 497.925781 17.015625 508.957031 L 13.625 516.855469 C 1.34375 545.484375 1.746094 578.144531 14.734375 606.457031 C 20.683594 619.433594 33.75 627.8125 48.019531 627.8125 L 764.226562 627.8125 C 782.398438 627.8125 797.992188 614.238281 800.496094 596.234375 L 806.246094 554.882812 C 808.609375 537.929688 798.652344 521.347656 782.582031 515.457031 L 781.777344 515.164062 C 738.757812 499.394531 694.023438 487.679688 648.800781 480.335938 L 599.941406 472.40625 C 581.589844 469.425781 564.007812 463.402344 547.683594 454.507812 L 509.601562 433.746094 C 466.105469 410.039062 416.933594 397.507812 367.398438 397.507812 Z M 764.226562 629.101562 L 48.019531 629.101562 C 33.246094 629.101562 19.71875 620.425781 13.558594 606.996094 C 0.421875 578.347656 0.0117188 545.308594 12.441406 516.34375 L 15.828125 508.445312 C 20.730469 497.027344 30.925781 488.726562 43.101562 486.246094 L 45.335938 485.792969 C 58.515625 483.109375 71.160156 478.445312 82.921875 471.9375 L 151.152344 434.179688 C 196.039062 409.34375 246.878906 396.214844 298.175781 396.214844 L 367.398438 396.214844 C 417.148438 396.214844 466.535156 408.800781 510.21875 432.613281 L 548.300781 453.375 C 564.496094 462.199219 581.941406 468.175781 600.148438 471.128906 L 649.007812 479.0625 C 694.308594 486.417969 739.128906 498.15625 782.222656 513.949219 L 783.023438 514.242188 C 799.664062 520.34375 809.96875 537.507812 807.527344 555.0625 L 801.777344 596.414062 C 799.183594 615.050781 783.039062 629.101562 764.226562 629.101562 " fill-opacity="1" fill-rule="nonzero"/><path fill="#000000" d="M 789.019531 550.316406 L 10.347656 550.316406 C 9.988281 550.316406 9.699219 550.027344 9.699219 549.671875 C 9.699219 549.316406 9.988281 549.027344 10.347656 549.027344 L 789.019531 549.027344 C 789.375 549.027344 789.660156 549.316406 789.660156 549.671875 C 789.660156 550.027344 789.375 550.316406 789.019531 550.316406 " fill-opacity="1" fill-rule="nonzero"/><path fill="#000000" d="M 244.695312 596.753906 C 244.695312 638.847656 210.574219 672.96875 168.480469 672.96875 C 126.386719 672.96875 92.265625 638.847656 92.265625 596.753906 C 92.265625 554.664062 126.386719 520.539062 168.480469 520.539062 C 210.574219 520.539062 244.695312 554.664062 244.695312 596.753906 " fill-opacity="1" fill-rule="nonzero"/><path fill="#ffffff" d="M 219.015625 596.753906 C 219.015625 624.664062 196.390625 647.289062 168.480469 647.289062 C 140.570312 647.289062 117.945312 624.664062 117.945312 596.753906 C 117.945312 568.84375 140.570312 546.222656 168.480469 546.222656 C 196.390625 546.222656 219.015625 568.84375 219.015625 596.753906 " fill-opacity="1" fill-rule="nonzero"/><path fill="#000000" d="M 168.480469 546.863281 C 140.972656 546.863281 118.589844 569.246094 118.589844 596.753906 C 118.589844 624.265625 140.972656 646.644531 168.480469 646.644531 C 195.988281 646.644531 218.367188 624.265625 218.367188 596.753906 C 218.367188 569.246094 195.988281 546.863281 168.480469 546.863281 Z M 168.480469 647.9375 C 140.257812 647.9375 117.300781 624.976562 117.300781 596.753906 C 117.300781 568.535156 140.257812 545.574219 168.480469 545.574219 C 196.703125 545.574219 219.660156 568.535156 219.660156 596.753906 C 219.660156 624.976562 196.703125 647.9375 168.480469 647.9375 " fill-opacity="1" fill-rule="nonzero"/><path fill="#ffffff" d="M 188.128906 596.753906 C 188.128906 607.605469 179.332031 616.402344 168.480469 616.402344 C 157.628906 616.402344 148.832031 607.605469 148.832031 596.753906 C 148.832031 585.90625 157.628906 577.105469 168.480469 577.105469 C 179.332031 577.105469 188.128906 585.90625 188.128906 596.753906 " fill-opacity="1" fill-rule="nonzero"/><path fill="#000000" d="M 168.480469 577.753906 C 158 577.753906 149.476562 586.277344 149.476562 596.753906 C 149.476562 607.234375 158 615.757812 168.480469 615.757812 C 178.957031 615.757812 187.484375 607.234375 187.484375 596.753906 C 187.484375 586.277344 178.957031 577.753906 168.480469 577.753906 Z M 168.480469 617.050781 C 157.289062 617.050781 148.1875 607.945312 148.1875 596.753906 C 148.1875 585.566406 157.289062 576.460938 168.480469 576.460938 C 179.667969 576.460938 188.773438 585.566406 188.773438 596.753906 C 188.773438 607.945312 179.667969 617.050781 168.480469 617.050781 " fill-opacity="1" fill-rule="nonzero"/><path fill="#000000" d="M 730.707031 596.753906 C 730.707031 638.847656 696.585938 672.96875 654.492188 672.96875 C 612.402344 672.96875 578.277344 638.847656 578.277344 596.753906 C 578.277344 554.664062 612.402344 520.539062 654.492188 520.539062 C 696.585938 520.539062 730.707031 554.664062 730.707031 596.753906 " fill-opacity="1" fill-rule="nonzero"/><path fill="#ffffff" d="M 705.027344 596.753906 C 705.027344 624.664062 682.402344 647.289062 654.492188 647.289062 C 626.582031 647.289062 603.957031 624.664062 603.957031 596.753906 C 603.957031 568.84375 626.582031 546.222656 654.492188 546.222656 C 682.402344 546.222656 705.027344 568.84375 705.027344 596.753906 " fill-opacity="1" fill-rule="nonzero"/><path fill="#000000" d="M 654.492188 546.863281 C 626.984375 546.863281 604.605469 569.246094 604.605469 596.753906 C 604.605469 624.265625 626.984375 646.644531 654.492188 646.644531 C 682 646.644531 704.382812 624.265625 704.382812 596.753906 C 704.382812 569.246094 682 546.863281 654.492188 546.863281 Z M 654.492188 647.9375 C 626.273438 647.9375 603.3125 624.976562 603.3125 596.753906 C 603.3125 568.535156 626.273438 545.574219 654.492188 545.574219 C 682.714844 545.574219 705.675781 568.535156 705.675781 596.753906 C 705.675781 624.976562 682.714844 647.9375 654.492188 647.9375 " fill-opacity="1" fill-rule="nonzero"/><path fill="#ffffff" d="M 674.140625 596.753906 C 674.140625 607.605469 665.347656 616.402344 654.492188 616.402344 C 643.640625 616.402344 634.84375 607.605469 634.84375 596.753906 C 634.84375 585.90625 643.640625 577.105469 654.492188 577.105469 C 665.347656 577.105469 674.140625 585.90625 674.140625 596.753906 " fill-opacity="1" fill-rule="nonzero"/><path fill="#000000" d="M 654.492188 577.753906 C 644.015625 577.753906 635.492188 586.277344 635.492188 596.753906 C 635.492188 607.234375 644.015625 615.757812 654.492188 615.757812 C 664.972656 615.757812 673.496094 607.234375 673.496094 596.753906 C 673.496094 586.277344 664.972656 577.753906 654.492188 577.753906 Z M 654.492188 617.050781 C 643.300781 617.050781 634.199219 607.945312 634.199219 596.753906 C 634.199219 585.566406 643.300781 576.460938 654.492188 576.460938 C 665.683594 576.460938 674.789062 585.566406 674.789062 596.753906 C 674.789062 607.945312 665.683594 617.050781 654.492188 617.050781 " fill-opacity="1" fill-rule="nonzero"/><path fill="#e2eaff" d="M 542.71875 473.183594 L 222.390625 473.183594 C 200.046875 473.183594 177.792969 469.742188 156.191406 462.957031 L 139.871094 457.832031 L 175.761719 439.3125 C 218.515625 417.253906 264.648438 405.871094 311.285156 405.871094 L 354.265625 405.871094 C 416.859375 405.871094 478.226562 426.371094 531.589844 465.105469 L 542.71875 473.183594 " fill-opacity="1" fill-rule="nonzero"/><path fill="#ffffff" d="M 466.917969 475.957031 L 503.199219 475.957031 C 507.386719 475.957031 510.777344 472.566406 510.777344 468.382812 L 510.777344 458.769531 C 510.777344 454.582031 507.386719 451.195312 503.199219 451.195312 L 466.917969 451.195312 C 462.734375 451.195312 459.34375 454.582031 459.34375 458.769531 L 459.34375 468.382812 C 459.34375 472.566406 462.734375 475.957031 466.917969 475.957031 " fill-opacity="1" fill-rule="nonzero"/><path fill="#000000" d="M 323.183594 191.753906 C 322.828125 191.753906 322.539062 191.46875 322.539062 191.113281 L 322.539062 174.996094 C 322.539062 174.636719 322.828125 174.351562 323.183594 174.351562 L 513.59375 174.351562 C 513.949219 174.351562 514.238281 174.636719 514.238281 174.996094 C 514.238281 175.351562 513.949219 175.640625 513.59375 175.640625 L 323.828125 175.640625 L 323.828125 191.113281 C 323.828125 191.46875 323.539062 191.753906 323.183594 191.753906 " fill-opacity="1" fill-rule="nonzero"/><g clip-path="url(#d6aff1c3b7)"><path fill="#ffffff" d="M 455.714844 174.996094 C 455.714844 195.609375 439 212.320312 418.386719 212.320312 C 397.773438 212.320312 381.0625 195.609375 381.0625 174.996094 C 381.0625 154.378906 397.773438 137.671875 418.386719 137.671875 C 439 137.671875 455.714844 154.378906 455.714844 174.996094 " fill-opacity="1" fill-rule="nonzero"/></g><g clip-path="url(#e75d767728)"><path fill="#000000" d="M 418.386719 138.316406 C 398.164062 138.316406 381.707031 154.769531 381.707031 174.996094 C 381.707031 195.222656 398.164062 211.675781 418.386719 211.675781 C 438.613281 211.675781 455.070312 195.222656 455.070312 174.996094 C 455.070312 154.769531 438.613281 138.316406 418.386719 138.316406 Z M 418.386719 212.964844 C 397.449219 212.964844 380.417969 195.933594 380.417969 174.996094 C 380.417969 154.058594 397.449219 137.023438 418.386719 137.023438 C 439.324219 137.023438 456.359375 154.058594 456.359375 174.996094 C 456.359375 195.933594 439.324219 212.964844 418.386719 212.964844 " fill-opacity="1" fill-rule="nonzero"/></g><path fill="#608cf8" d="M 406.109375 196.097656 L 407.433594 193.273438 L 410.609375 194.753906 L 411.335938 193.203125 L 409.785156 192.480469 L 410.738281 187.648438 L 413.363281 188.878906 L 414.03125 187.445312 L 412.128906 186.554688 L 412.839844 185.042969 L 414.738281 185.929688 L 421.589844 171.300781 L 415.238281 168.328125 L 399.070312 202.867188 C 402.578125 204.507812 406.75 202.996094 408.390625 199.488281 L 409.285156 197.582031 L 406.109375 196.097656 " fill-opacity="1" fill-rule="nonzero"/><path fill="#608cf8" d="M 423.699219 158.519531 C 422.15625 157.800781 421.492188 155.96875 422.210938 154.425781 C 422.933594 152.886719 424.769531 152.222656 426.308594 152.941406 C 427.847656 153.664062 428.515625 155.496094 427.792969 157.035156 C 427.074219 158.578125 425.238281 159.242188 423.699219 158.519531 Z M 428.421875 148.425781 C 421.683594 145.273438 413.660156 148.179688 410.507812 154.917969 C 407.351562 161.65625 410.261719 169.675781 417.003906 172.824219 C 423.746094 175.976562 431.769531 173.070312 434.921875 166.332031 C 438.074219 159.59375 435.164062 151.574219 428.421875 148.425781 " fill-opacity="1" fill-rule="nonzero"/><path fill="#608cf8" d="M 331.207031 191.113281 C 331.207031 186.679688 327.613281 183.085938 323.183594 183.085938 C 318.75 183.085938 315.160156 186.679688 315.160156 191.113281 C 315.160156 195.542969 318.75 199.132812 323.183594 199.132812 C 327.613281 199.132812 331.207031 195.542969 331.207031 191.113281 " fill-opacity="1" fill-rule="nonzero"/><path fill="#ffffff" d="M 486.652344 307.257812 C 486.652344 344.960938 456.085938 375.523438 418.386719 375.523438 C 380.6875 375.523438 350.125 344.960938 350.125 307.257812 C 350.125 269.558594 380.6875 239 418.386719 239 C 456.085938 239 486.652344 269.558594 486.652344 307.257812 " fill-opacity="1" fill-rule="nonzero"/><path fill="#000000" d="M 418.386719 239.644531 C 381.105469 239.644531 350.769531 269.976562 350.769531 307.257812 C 350.769531 344.542969 381.105469 374.875 418.386719 374.875 C 455.671875 374.875 486.003906 344.542969 486.003906 307.257812 C 486.003906 269.976562 455.671875 239.644531 418.386719 239.644531 Z M 418.386719 376.167969 C 380.394531 376.167969 349.480469 345.257812 349.480469 307.257812 C 349.480469 269.261719 380.394531 238.351562 418.386719 238.351562 C 456.382812 238.351562 487.296875 269.261719 487.296875 307.257812 C 487.296875 345.257812 456.382812 376.167969 418.386719 376.167969 " fill-opacity="1" fill-rule="nonzero"/><path fill="#000000" d="M 418.386719 266.800781 C 418.03125 266.800781 417.742188 266.507812 417.742188 266.15625 L 417.742188 252.554688 C 417.742188 252.199219 418.03125 251.90625 418.386719 251.90625 C 418.746094 251.90625 419.035156 252.199219 419.035156 252.554688 L 419.035156 266.15625 C 419.035156 266.507812 418.746094 266.800781 418.386719 266.800781 " fill-opacity="1" fill-rule="nonzero"/><path fill="#000000" d="M 418.386719 362.609375 C 418.03125 362.609375 417.742188 362.324219 417.742188 361.96875 L 417.742188 348.367188 C 417.742188 348.007812 418.03125 347.71875 418.386719 347.71875 C 418.746094 347.71875 419.035156 348.007812 419.035156 348.367188 L 419.035156 361.96875 C 419.035156 362.324219 418.746094 362.609375 418.386719 362.609375 " fill-opacity="1" fill-rule="nonzero"/><path fill="#000000" d="M 377.28125 307.90625 L 363.683594 307.90625 C 363.324219 307.90625 363.035156 307.617188 363.035156 307.257812 C 363.035156 306.902344 363.324219 306.613281 363.683594 306.613281 L 377.28125 306.613281 C 377.640625 306.613281 377.925781 306.902344 377.925781 307.257812 C 377.925781 307.617188 377.640625 307.90625 377.28125 307.90625 " fill-opacity="1" fill-rule="nonzero"/><path fill="#000000" d="M 473.09375 307.90625 L 459.492188 307.90625 C 459.136719 307.90625 458.851562 307.617188 458.851562 307.257812 C 458.851562 306.902344 459.136719 306.613281 459.492188 306.613281 L 473.09375 306.613281 C 473.453125 306.613281 473.742188 306.902344 473.742188 307.257812 C 473.742188 307.617188 473.453125 307.90625 473.09375 307.90625 " fill-opacity="1" fill-rule="nonzero"/><path fill="#e2eaff" d="M 470.816406 282.238281 C 464.871094 269.796875 454.621094 259.820312 442.007812 254.195312 L 418.386719 307.257812 L 470.816406 282.238281 " fill-opacity="1" fill-rule="nonzero"/><path fill="#000000" d="M 407.253906 333.121094 C 407.167969 333.121094 407.078125 333.105469 406.996094 333.066406 C 406.664062 332.921875 406.519531 332.542969 406.664062 332.214844 L 417.644531 307.34375 L 392.625 274.007812 C 392.414062 273.71875 392.472656 273.316406 392.753906 273.101562 C 393.042969 272.886719 393.445312 272.945312 393.660156 273.230469 L 418.90625 306.871094 C 419.046875 307.058594 419.074219 307.304688 418.980469 307.519531 L 407.847656 332.738281 C 407.738281 332.980469 407.5 333.121094 407.253906 333.121094 " fill-opacity="1" fill-rule="nonzero"/></svg>