<svg xmlns="http://www.w3.org/2000/svg" xmlns:xlink="http://www.w3.org/1999/xlink" width="1080" zoomAndPan="magnify" viewBox="0 0 810 809.999993" height="1080" preserveAspectRatio="xMidYMid meet" version="1.0"><path fill="#caddff" d="M 340.820312 31.332031 C 324.59375 35.652344 253.65625 59.613281 182.625 121.355469 C 165.414062 136.3125 95.863281 196.769531 66.144531 278.054688 C 15.566406 416.402344 76.089844 626.886719 250.421875 711.472656 C 453.484375 810 709.988281 688.726562 768.484375 526.433594 C 794.4375 454.453125 790.296875 345.898438 736.652344 258.722656 C 678.980469 164.984375 610.546875 169.160156 614.03125 109.242188 C 615.710938 80.382812 614.578125 66.183594 608.550781 48.003906 C 594.246094 4.898438 458.746094 -0.015625 340.820312 31.332031 " fill-opacity="1" fill-rule="nonzero"/><path fill="#ffffff" d="M 329.660156 647.050781 L 448.246094 647.050781 L 448.246094 263.660156 L 329.660156 263.660156 L 329.660156 647.050781 " fill-opacity="1" fill-rule="nonzero"/><path fill="#99b9ff" d="M 448.152344 647.050781 L 501.035156 647.050781 L 501.035156 296.8125 L 448.152344 263.660156 L 448.152344 647.050781 " fill-opacity="1" fill-rule="nonzero"/><path fill="#caddff" d="M 413.539062 612.652344 L 434.109375 612.652344 L 434.109375 288.960938 L 413.539062 288.960938 L 413.539062 612.652344 " fill-opacity="1" fill-rule="nonzero"/><path fill="#caddff" d="M 378.671875 612.652344 L 399.234375 612.652344 L 399.234375 288.960938 L 378.671875 288.960938 L 378.671875 612.652344 " fill-opacity="1" fill-rule="nonzero"/><path fill="#caddff" d="M 343.796875 612.652344 L 364.367188 612.652344 L 364.367188 288.960938 L 343.796875 288.960938 L 343.796875 612.652344 " fill-opacity="1" fill-rule="nonzero"/><path fill="#ffffff" d="M 498.917969 442.914062 L 573.042969 442.914062 L 573.042969 176.496094 L 498.917969 176.496094 L 498.917969 442.914062 " fill-opacity="1" fill-rule="nonzero"/><path fill="#99b9ff" d="M 498.917969 234.125 C 498.1875 234.125 497.585938 233.527344 497.585938 232.792969 L 497.585938 176.496094 C 497.585938 175.761719 498.1875 175.164062 498.917969 175.164062 L 569.789062 175.164062 C 570.515625 175.164062 571.117188 175.761719 571.117188 176.496094 C 571.117188 177.230469 570.515625 177.824219 569.789062 177.824219 L 500.25 177.824219 L 500.25 232.792969 C 500.25 233.527344 499.652344 234.125 498.917969 234.125 " fill-opacity="1" fill-rule="nonzero"/><path fill="#caddff" d="M 513.132812 208.273438 L 557.46875 208.273438 L 557.46875 190.023438 L 513.132812 190.023438 L 513.132812 208.273438 " fill-opacity="1" fill-rule="nonzero"/><path fill="#99b9ff" d="M 572.988281 442.914062 L 606.042969 442.914062 L 606.042969 196.921875 L 572.988281 176.496094 L 572.988281 442.914062 " fill-opacity="1" fill-rule="nonzero"/><path fill="#ffffff" d="M 466.792969 647.050781 L 585.378906 647.050781 L 585.378906 220.847656 L 466.792969 220.847656 L 466.792969 647.050781 " fill-opacity="1" fill-rule="nonzero"/><path fill="#99b9ff" d="M 585.285156 647.050781 L 638.167969 647.050781 L 638.167969 253.527344 L 585.285156 220.847656 L 585.285156 647.050781 " fill-opacity="1" fill-rule="nonzero"/><path fill="#caddff" d="M 485.191406 260.894531 L 569.785156 260.894531 L 569.785156 242.34375 L 485.191406 242.34375 L 485.191406 260.894531 " fill-opacity="1" fill-rule="nonzero"/><path fill="#caddff" d="M 485.191406 299.425781 L 569.785156 299.425781 L 569.785156 280.871094 L 485.191406 280.871094 L 485.191406 299.425781 " fill-opacity="1" fill-rule="nonzero"/><path fill="#caddff" d="M 485.191406 337.957031 L 569.785156 337.957031 L 569.785156 319.402344 L 485.191406 319.402344 L 485.191406 337.957031 " fill-opacity="1" fill-rule="nonzero"/><path fill="#caddff" d="M 485.191406 376.484375 L 569.785156 376.484375 L 569.785156 357.933594 L 485.191406 357.933594 L 485.191406 376.484375 " fill-opacity="1" fill-rule="nonzero"/><path fill="#caddff" d="M 485.191406 415.019531 L 569.785156 415.019531 L 569.785156 396.464844 L 485.191406 396.464844 L 485.191406 415.019531 " fill-opacity="1" fill-rule="nonzero"/><path fill="#caddff" d="M 485.191406 453.550781 L 569.785156 453.550781 L 569.785156 434.992188 L 485.191406 434.992188 L 485.191406 453.550781 " fill-opacity="1" fill-rule="nonzero"/><path fill="#caddff" d="M 485.191406 492.078125 L 569.785156 492.078125 L 569.785156 473.527344 L 485.191406 473.527344 L 485.191406 492.078125 " fill-opacity="1" fill-rule="nonzero"/><path fill="#caddff" d="M 485.191406 530.609375 L 569.785156 530.609375 L 569.785156 512.054688 L 485.191406 512.054688 L 485.191406 530.609375 " fill-opacity="1" fill-rule="nonzero"/><path fill="#caddff" d="M 485.191406 569.140625 L 569.785156 569.140625 L 569.785156 550.585938 L 485.191406 550.585938 L 485.191406 569.140625 " fill-opacity="1" fill-rule="nonzero"/><path fill="#caddff" d="M 485.191406 607.671875 L 569.785156 607.671875 L 569.785156 589.113281 L 485.191406 589.113281 L 485.191406 607.671875 " fill-opacity="1" fill-rule="nonzero"/><path fill="#ffffff" d="M 613.183594 647.050781 L 731.761719 647.050781 L 731.761719 304.539062 L 613.183594 304.539062 L 613.183594 647.050781 " fill-opacity="1" fill-rule="nonzero"/><path fill="#99b9ff" d="M 729.226562 305.875 L 645.910156 305.875 C 645.175781 305.875 644.582031 305.277344 644.582031 304.539062 C 644.582031 303.8125 645.175781 303.210938 645.910156 303.210938 L 729.226562 303.210938 C 729.960938 303.210938 730.558594 303.8125 730.558594 304.539062 C 730.558594 305.277344 729.960938 305.875 729.226562 305.875 " fill-opacity="1" fill-rule="nonzero"/><path fill="#99b9ff" d="M 731.671875 647.050781 L 784.550781 647.050781 L 784.550781 337.222656 L 731.671875 304.542969 L 731.671875 647.050781 " fill-opacity="1" fill-rule="nonzero"/><path fill="#caddff" d="M 697.054688 369.230469 L 717.625 369.230469 L 717.625 329.84375 L 697.054688 329.84375 L 697.054688 369.230469 " fill-opacity="1" fill-rule="nonzero"/><path fill="#caddff" d="M 662.1875 369.222656 L 682.753906 369.222656 L 682.753906 329.839844 L 662.1875 329.839844 L 662.1875 369.222656 " fill-opacity="1" fill-rule="nonzero"/><path fill="#caddff" d="M 627.316406 369.222656 L 647.878906 369.222656 L 647.878906 329.839844 L 627.316406 329.839844 L 627.316406 369.222656 " fill-opacity="1" fill-rule="nonzero"/><path fill="#caddff" d="M 697.054688 434.132812 L 717.625 434.132812 L 717.625 394.75 L 697.054688 394.75 L 697.054688 434.132812 " fill-opacity="1" fill-rule="nonzero"/><path fill="#caddff" d="M 662.1875 434.132812 L 682.753906 434.132812 L 682.753906 394.746094 L 662.1875 394.746094 L 662.1875 434.132812 " fill-opacity="1" fill-rule="nonzero"/><path fill="#caddff" d="M 627.316406 434.132812 L 647.878906 434.132812 L 647.878906 394.746094 L 627.316406 394.746094 L 627.316406 434.132812 " fill-opacity="1" fill-rule="nonzero"/><path fill="#caddff" d="M 697.054688 499.035156 L 717.625 499.035156 L 717.625 459.652344 L 697.054688 459.652344 L 697.054688 499.035156 " fill-opacity="1" fill-rule="nonzero"/><path fill="#caddff" d="M 662.1875 499.035156 L 682.753906 499.035156 L 682.753906 459.648438 L 662.1875 459.648438 L 662.1875 499.035156 " fill-opacity="1" fill-rule="nonzero"/><path fill="#caddff" d="M 627.316406 499.035156 L 647.878906 499.035156 L 647.878906 459.652344 L 627.316406 459.652344 L 627.316406 499.035156 " fill-opacity="1" fill-rule="nonzero"/><path fill="#caddff" d="M 697.054688 563.945312 L 717.625 563.945312 L 717.625 524.558594 L 697.054688 524.558594 L 697.054688 563.945312 " fill-opacity="1" fill-rule="nonzero"/><path fill="#caddff" d="M 662.1875 563.941406 L 682.753906 563.941406 L 682.753906 524.554688 L 662.1875 524.554688 L 662.1875 563.941406 " fill-opacity="1" fill-rule="nonzero"/><path fill="#caddff" d="M 627.316406 563.941406 L 647.878906 563.941406 L 647.878906 524.558594 L 627.316406 524.558594 L 627.316406 563.941406 " fill-opacity="1" fill-rule="nonzero"/><path fill="#000000" d="M 398.195312 726.992188 C 371.605469 726.992188 345.667969 722.269531 322.070312 712.910156 C 321.386719 712.636719 321.050781 711.867188 321.324219 711.183594 C 321.59375 710.5 322.367188 710.171875 323.050781 710.4375 C 363.578125 726.511719 411.113281 728.71875 456.894531 716.644531 C 457.605469 716.453125 458.332031 716.878906 458.523438 717.589844 C 458.710938 718.300781 458.285156 719.027344 457.574219 719.21875 C 437.875 724.414062 417.859375 726.992188 398.195312 726.992188 " fill-opacity="1" fill-rule="nonzero"/><path fill="#000000" d="M 403.25 712.242188 C 382.832031 712.242188 362.839844 709.210938 344.117188 703.203125 C 343.417969 702.980469 343.03125 702.230469 343.257812 701.53125 C 343.480469 700.832031 344.230469 700.445312 344.929688 700.671875 C 375.390625 710.445312 409.253906 712.214844 442.855469 705.785156 C 443.578125 705.648438 444.273438 706.121094 444.410156 706.839844 C 444.550781 707.5625 444.074219 708.261719 443.351562 708.398438 C 429.953125 710.964844 416.511719 712.242188 403.25 712.242188 " fill-opacity="1" fill-rule="nonzero"/><path fill="#000000" d="M 307.078125 702.289062 C 307.667969 704.015625 308.269531 705.613281 308.71875 706.78125 L 312.167969 703.074219 Z M 308.261719 710.5625 C 308.183594 710.5625 308.105469 710.554688 308.027344 710.539062 C 307.582031 710.460938 307.207031 710.160156 307.03125 709.742188 C 306.960938 709.566406 305.246094 705.417969 303.863281 701.042969 C 303.726562 700.605469 303.824219 700.128906 304.125 699.777344 C 304.421875 699.429688 304.878906 699.257812 305.335938 699.328125 L 315.054688 700.824219 C 315.539062 700.898438 315.945312 701.238281 316.109375 701.703125 C 316.269531 702.167969 316.160156 702.683594 315.824219 703.042969 L 309.238281 710.132812 C 308.980469 710.40625 308.628906 710.5625 308.261719 710.5625 " fill-opacity="1" fill-rule="nonzero"/><path fill="#ffffff" d="M 522.050781 109.636719 C 522.253906 127.085938 508.273438 141.394531 490.824219 141.601562 C 473.375 141.804688 459.0625 127.824219 458.863281 110.375 C 458.65625 92.921875 472.640625 78.613281 490.089844 78.410156 C 507.539062 78.207031 521.84375 92.1875 522.050781 109.636719 " fill-opacity="1" fill-rule="nonzero"/><path fill="#000000" d="M 490.46875 79.738281 C 490.347656 79.738281 490.226562 79.738281 490.109375 79.738281 C 482.019531 79.835938 474.457031 83.070312 468.808594 88.855469 C 463.160156 94.636719 460.09375 102.269531 460.195312 110.359375 C 460.285156 118.445312 463.527344 126.003906 469.308594 131.65625 C 475.089844 137.304688 482.761719 140.386719 490.808594 140.265625 C 498.894531 140.171875 506.457031 136.9375 512.105469 131.15625 C 517.757812 125.371094 520.816406 117.734375 520.722656 109.652344 C 520.625 101.570312 517.390625 94.003906 511.605469 88.355469 C 505.910156 82.792969 498.417969 79.738281 490.46875 79.738281 Z M 490.445312 142.929688 C 481.796875 142.929688 473.644531 139.609375 467.445312 133.558594 C 461.152344 127.410156 457.636719 119.183594 457.53125 110.390625 C 457.429688 101.59375 460.757812 93.289062 466.898438 86.992188 C 473.050781 80.703125 481.277344 77.179688 490.074219 77.082031 C 498.84375 76.960938 507.175781 80.308594 513.464844 86.453125 C 519.757812 92.601562 523.28125 100.828125 523.382812 109.625 C 523.480469 118.417969 520.15625 126.726562 514.007812 133.015625 C 507.863281 139.308594 499.632812 142.828125 490.839844 142.929688 C 490.710938 142.929688 490.578125 142.929688 490.445312 142.929688 " fill-opacity="1" fill-rule="nonzero"/><path fill="#000000" d="M 488.339844 125.160156 C 487.847656 125.160156 487.394531 124.890625 487.160156 124.449219 L 476.761719 104.636719 C 476.421875 103.988281 476.671875 103.179688 477.328125 102.84375 C 477.96875 102.5 478.773438 102.75 479.121094 103.398438 L 487.863281 120.066406 C 490.75 108.644531 494.53125 100.121094 499.390625 94.082031 C 499.851562 93.511719 500.695312 93.417969 501.265625 93.878906 C 501.832031 94.34375 501.921875 95.179688 501.464844 95.75 C 496.449219 101.976562 492.476562 111.519531 489.640625 124.121094 C 489.515625 124.664062 489.070312 125.078125 488.511719 125.152344 C 488.460938 125.15625 488.398438 125.160156 488.339844 125.160156 " fill-opacity="1" fill-rule="nonzero"/><path fill="#608cf8" d="M 383.257812 677.117188 L 73.285156 677.117188 C 60.546875 677.117188 50.222656 666.792969 50.222656 654.054688 L 50.222656 51.011719 C 50.222656 38.277344 60.546875 27.949219 73.285156 27.949219 L 383.257812 27.949219 C 396 27.949219 406.320312 38.277344 406.320312 51.011719 L 406.320312 654.054688 C 406.320312 666.792969 396 677.117188 383.257812 677.117188 " fill-opacity="1" fill-rule="nonzero"/><path fill="#ffffff" d="M 399.222656 678.445312 L 89.25 678.445312 C 76.511719 678.445312 66.1875 668.121094 66.1875 655.382812 L 66.1875 52.34375 C 66.1875 39.605469 76.511719 29.28125 89.25 29.28125 L 399.222656 29.28125 C 411.964844 29.28125 422.289062 39.605469 422.289062 52.34375 L 422.289062 655.382812 C 422.289062 668.121094 411.964844 678.445312 399.222656 678.445312 " fill-opacity="1" fill-rule="nonzero"/><path fill="#000000" d="M 89.25 30.613281 C 77.265625 30.613281 67.515625 40.363281 67.515625 52.347656 L 67.515625 655.382812 C 67.515625 667.367188 77.265625 677.117188 89.25 677.117188 L 399.222656 677.117188 C 411.207031 677.117188 420.957031 667.367188 420.957031 655.382812 L 420.957031 52.347656 C 420.957031 40.363281 411.207031 30.613281 399.222656 30.613281 Z M 399.222656 679.777344 L 89.25 679.777344 C 75.800781 679.777344 64.855469 668.832031 64.855469 655.382812 L 64.855469 52.347656 C 64.855469 38.894531 75.800781 27.949219 89.25 27.949219 L 399.222656 27.949219 C 412.671875 27.949219 423.617188 38.894531 423.617188 52.347656 L 423.617188 655.382812 C 423.617188 668.832031 412.671875 679.777344 399.222656 679.777344 " fill-opacity="1" fill-rule="nonzero"/><path fill="#99b9ff" d="M 83.84375 655.464844 L 83.84375 81.070312 C 83.84375 78.128906 86.226562 75.746094 89.167969 75.746094 L 399.304688 75.746094 C 402.246094 75.746094 404.628906 78.128906 404.628906 81.070312 L 404.628906 655.464844 C 404.628906 658.40625 402.246094 660.789062 399.304688 660.789062 L 89.167969 660.789062 C 86.226562 660.789062 83.84375 658.40625 83.84375 655.464844 " fill-opacity="1" fill-rule="nonzero"/><path fill="#caddff" d="M 244.238281 59.851562 C 239.265625 59.851562 235.234375 55.820312 235.234375 50.847656 C 235.234375 45.878906 239.265625 41.847656 244.238281 41.847656 C 249.210938 41.847656 253.238281 45.878906 253.238281 50.847656 C 253.238281 55.820312 249.210938 59.851562 244.238281 59.851562 " fill-opacity="1" fill-rule="nonzero"/><path fill="#608cf8" d="M 324.394531 611.933594 L 155.785156 611.933594 C 149.445312 611.933594 144.304688 606.796875 144.304688 600.457031 L 144.304688 546.414062 C 144.304688 540.074219 149.445312 534.929688 155.785156 534.929688 L 324.394531 534.929688 C 330.738281 534.929688 335.875 540.074219 335.875 546.414062 L 335.875 600.457031 C 335.875 606.796875 330.738281 611.933594 324.394531 611.933594 " fill-opacity="1" fill-rule="nonzero"/><path fill="#caddff" d="M 293.730469 211.601562 L 113.40625 211.601562 L 113.40625 192.300781 L 293.730469 192.300781 L 293.730469 211.601562 " fill-opacity="1" fill-rule="nonzero"/><path fill="#caddff" d="M 266.476562 180.871094 L 114.296875 180.871094 L 114.296875 161.570312 L 266.476562 161.570312 L 266.476562 180.871094 " fill-opacity="1" fill-rule="nonzero"/><path fill="#caddff" d="M 249.144531 242.875 L 114.296875 242.875 L 114.296875 223.574219 L 249.144531 223.574219 L 249.144531 242.875 " fill-opacity="1" fill-rule="nonzero"/><path fill="#99b9ff" d="M 371.34375 336.425781 C 363.878906 334.246094 358.765625 338.042969 358.765625 345.386719 C 358.765625 345.878906 358.792969 346.351562 358.851562 346.808594 C 358.84375 348.5625 357.300781 351.296875 355.167969 351.753906 L 357.460938 356.175781 C 357.460938 356.175781 359.441406 353.183594 364.265625 354.484375 C 366.914062 355.777344 370.253906 355.738281 373.675781 354.871094 C 378.878906 353.554688 384.105469 349.867188 383.917969 346.167969 C 383.734375 342.515625 376.488281 337.925781 371.34375 336.425781 " fill-opacity="1" fill-rule="nonzero"/><path fill="#000000" d="M 364.578125 353.191406 C 364.675781 353.207031 364.765625 353.246094 364.851562 353.285156 C 367.003906 354.339844 369.945312 354.441406 373.351562 353.582031 C 378.40625 352.300781 382.71875 348.867188 382.589844 346.230469 C 382.460938 343.691406 376.488281 339.308594 370.972656 337.703125 C 367.726562 336.757812 364.871094 337.035156 362.9375 338.484375 C 361.078125 339.878906 360.09375 342.269531 360.09375 345.386719 C 360.09375 345.804688 360.117188 346.226562 360.175781 346.640625 C 360.179688 346.699219 360.183594 346.757812 360.183594 346.820312 C 360.175781 348.582031 358.992188 351.152344 357.007812 352.410156 L 357.84375 354.023438 C 359.144531 353.136719 361.339844 352.324219 364.578125 353.191406 Z M 357.46875 357.496094 C 357.4375 357.496094 357.40625 357.492188 357.378906 357.492188 C 356.917969 357.460938 356.496094 357.199219 356.28125 356.785156 L 353.988281 352.371094 C 353.796875 352 353.789062 351.5625 353.964844 351.1875 C 354.140625 350.8125 354.480469 350.542969 354.890625 350.453125 C 356.304688 350.152344 357.46875 348.105469 357.523438 346.878906 C 357.460938 346.382812 357.429688 345.886719 357.429688 345.386719 C 357.429688 341.457031 358.820312 338.25 361.34375 336.355469 C 363.964844 334.390625 367.648438 333.964844 371.714844 335.148438 C 377.101562 336.714844 385.019531 341.515625 385.246094 346.097656 C 385.480469 350.726562 379.625 354.734375 374.003906 356.160156 C 370.042969 357.164062 366.523438 357.015625 363.808594 355.738281 C 360.117188 354.792969 358.625 356.832031 358.558594 356.921875 C 358.3125 357.28125 357.898438 357.496094 357.46875 357.496094 " fill-opacity="1" fill-rule="nonzero"/><path fill="#99b9ff" d="M 135.039062 346.808594 C 135.097656 346.351562 135.128906 345.878906 135.128906 345.386719 C 135.128906 338.042969 130.015625 334.246094 122.550781 336.425781 C 117.40625 337.925781 110.160156 342.410156 109.976562 346.058594 C 109.789062 349.761719 115.011719 353.554688 120.214844 354.871094 C 123.640625 355.738281 126.976562 355.777344 129.628906 354.484375 C 134.449219 353.183594 136.429688 356.175781 136.429688 356.175781 L 138.726562 351.859375 C 136.589844 351.402344 135.050781 348.5625 135.039062 346.808594 " fill-opacity="1" fill-rule="nonzero"/><path fill="#000000" d="M 126.503906 337.152344 C 125.390625 337.152344 124.1875 337.332031 122.921875 337.703125 C 117.914062 339.160156 111.441406 343.417969 111.304688 346.125 C 111.167969 348.816406 115.488281 352.300781 120.542969 353.582031 C 123.949219 354.441406 126.886719 354.339844 129.042969 353.285156 C 129.132812 353.242188 129.226562 353.207031 129.320312 353.183594 C 132.570312 352.320312 134.765625 353.144531 136.0625 354.03125 L 136.878906 352.503906 C 134.898438 351.226562 133.722656 348.613281 133.707031 346.820312 C 133.707031 346.757812 133.710938 346.699219 133.722656 346.640625 C 133.773438 346.226562 133.800781 345.808594 133.800781 345.386719 C 133.800781 342.269531 132.816406 339.878906 130.953125 338.484375 C 129.773438 337.597656 128.25 337.152344 126.503906 337.152344 Z M 136.429688 357.503906 C 135.984375 357.503906 135.570312 357.28125 135.320312 356.90625 C 135.269531 356.832031 133.777344 354.792969 130.085938 355.738281 C 127.375 357.015625 123.851562 357.164062 119.890625 356.160156 C 114.1875 354.714844 108.421875 350.515625 108.648438 345.996094 C 108.875 341.480469 116.789062 336.714844 122.179688 335.148438 C 126.25 333.964844 129.933594 334.390625 132.550781 336.355469 C 135.074219 338.25 136.460938 341.457031 136.460938 345.386719 C 136.460938 345.886719 136.429688 346.390625 136.371094 346.878906 C 136.425781 348.125 137.613281 350.261719 139.003906 350.558594 C 139.410156 350.644531 139.753906 350.917969 139.929688 351.300781 C 140.109375 351.679688 140.09375 352.117188 139.898438 352.488281 L 137.605469 356.796875 C 137.382812 357.210938 136.964844 357.480469 136.496094 357.5 C 136.472656 357.5 136.453125 357.503906 136.429688 357.503906 " fill-opacity="1" fill-rule="nonzero"/><path fill="#608cf8" d="M 340.652344 486.671875 C 340.652344 490.230469 343.542969 493.121094 347.101562 493.121094 L 367.246094 493.121094 C 370.808594 493.121094 373.691406 490.230469 373.691406 486.671875 L 373.691406 424.890625 C 373.691406 421.328125 370.808594 418.441406 367.246094 418.441406 L 347.101562 418.441406 C 343.542969 418.441406 340.652344 421.328125 340.652344 424.890625 L 340.652344 486.671875 " fill-opacity="1" fill-rule="nonzero"/><path fill="#608cf8" d="M 120.199219 486.671875 C 120.199219 490.230469 123.089844 493.121094 126.648438 493.121094 L 146.792969 493.121094 C 150.355469 493.121094 153.238281 490.230469 153.238281 486.671875 L 153.238281 424.890625 C 153.238281 421.328125 150.355469 418.441406 146.792969 418.441406 L 126.648438 418.441406 C 123.089844 418.441406 120.199219 421.328125 120.199219 424.890625 L 120.199219 486.671875 " fill-opacity="1" fill-rule="nonzero"/><path fill="#ffffff" d="M 369.015625 426.183594 C 369.632812 407.058594 369.503906 382.777344 368.621094 376.914062 C 367.246094 367.738281 360.132812 357.414062 356.234375 349.613281 C 352.332031 341.8125 337.957031 305.101562 334.441406 298.679688 C 330.921875 292.257812 323.425781 285.714844 314.25 284.335938 C 305.070312 282.964844 264.539062 282.769531 246.945312 282.769531 C 229.355469 282.769531 188.824219 282.964844 179.648438 284.335938 C 170.46875 285.714844 162.972656 292.257812 159.457031 298.679688 C 155.9375 305.101562 141.558594 341.8125 137.660156 349.613281 C 133.761719 357.414062 126.648438 367.738281 125.269531 376.914062 C 124.390625 382.777344 124.261719 407.058594 124.878906 426.183594 L 369.015625 426.183594 " fill-opacity="1" fill-rule="nonzero"/><path fill="#99b9ff" d="M 124.59375 402.304688 C 124.832031 417.933594 125.515625 445.007812 126.648438 449.417969 C 128.941406 458.363281 137.429688 463.875 144.085938 463.875 C 150.738281 463.875 246.945312 463.875 246.945312 463.875 C 246.945312 463.875 343.15625 463.875 349.8125 463.875 C 356.460938 463.875 364.949219 458.363281 367.25 449.417969 C 368.378906 445.007812 369.0625 417.933594 369.300781 402.304688 L 364.585938 407.753906 C 361.195312 411.679688 356.261719 413.933594 351.074219 413.933594 L 142.78125 413.933594 C 137.566406 413.933594 132.613281 411.65625 129.21875 407.699219 L 124.59375 402.304688 " fill-opacity="1" fill-rule="nonzero"/><path fill="#608cf8" d="M 290.675781 398.414062 C 289.445312 394.722656 284.105469 391.847656 278.769531 391.847656 C 273.429688 391.847656 246.945312 391.847656 246.945312 391.847656 C 246.945312 391.847656 220.464844 391.847656 215.125 391.847656 C 209.789062 391.847656 204.449219 394.722656 203.21875 398.414062 C 201.988281 402.109375 207.53125 417.320312 209.582031 420.085938 C 211.636719 422.847656 213.894531 423.53125 220.464844 423.53125 C 227.035156 423.53125 246.945312 423.53125 246.945312 423.53125 C 246.945312 423.53125 266.859375 423.53125 273.429688 423.53125 C 280 423.53125 282.257812 422.847656 284.3125 420.085938 C 286.363281 417.320312 291.90625 402.109375 290.675781 398.414062 " fill-opacity="1" fill-rule="nonzero"/><path fill="#ffffff" d="M 215.125 393.175781 C 210.296875 393.175781 205.519531 395.714844 204.480469 398.835938 C 203.5 401.777344 208.476562 416.363281 210.652344 419.292969 C 212.273438 421.476562 213.921875 422.203125 220.464844 422.203125 L 273.429688 422.203125 C 279.976562 422.203125 281.621094 421.476562 283.242188 419.292969 C 285.421875 416.363281 290.394531 401.777344 289.414062 398.835938 C 288.375 395.714844 283.597656 393.175781 278.769531 393.175781 Z M 273.429688 424.863281 L 220.464844 424.863281 C 214.125 424.863281 211.066406 424.3125 208.515625 420.878906 C 206.554688 418.242188 200.449219 402.519531 201.957031 397.996094 C 203.355469 393.804688 209.140625 390.515625 215.125 390.515625 L 278.769531 390.515625 C 284.753906 390.515625 290.539062 393.804688 291.9375 397.996094 C 293.445312 402.519531 287.339844 418.242188 285.378906 420.878906 C 282.828125 424.3125 279.769531 424.863281 273.429688 424.863281 " fill-opacity="1" fill-rule="nonzero"/><path fill="#ffffff" d="M 346.601562 342.425781 C 345.453125 338.445312 334.441406 310.382812 331.226562 303.722656 C 328.015625 297.070312 323.65625 294.777344 320.445312 294.777344 C 317.488281 294.777344 176.410156 294.777344 173.453125 294.777344 C 170.238281 294.777344 165.878906 297.070312 162.667969 303.722656 C 159.457031 310.382812 148.441406 338.445312 147.296875 342.425781 C 146.148438 346.398438 147.984375 348.234375 150.96875 348.234375 C 153.742188 348.234375 340.152344 348.234375 342.929688 348.234375 C 345.910156 348.234375 347.746094 346.398438 346.601562 342.425781 " fill-opacity="1" fill-rule="nonzero"/><path fill="#99b9ff" d="M 318.722656 347.675781 L 313.035156 325.132812 C 312.46875 322.902344 309.5625 321.121094 306.15625 321.121094 L 283.976562 321.121094 C 280.542969 321.121094 277.621094 322.925781 277.085938 325.175781 L 271.765625 347.675781 C 287.09375 347.675781 304.753906 347.675781 318.722656 347.675781 " fill-opacity="1" fill-rule="nonzero"/><path fill="#99b9ff" d="M 187.386719 321.121094 C 183.953125 321.121094 181.027344 322.925781 180.492188 325.175781 L 175.171875 347.675781 C 189.136719 347.675781 206.695312 347.675781 222.128906 347.675781 L 216.441406 325.132812 C 215.875 322.902344 212.96875 321.121094 209.558594 321.121094 L 187.386719 321.121094 " fill-opacity="1" fill-rule="nonzero"/><path fill="#608cf8" d="M 173.453125 296.109375 C 172.128906 296.109375 167.535156 296.699219 163.867188 304.304688 C 160.527344 311.21875 149.628906 339.128906 148.574219 342.792969 C 148.144531 344.273438 148.183594 345.40625 148.683594 346.070312 C 149.199219 346.761719 150.210938 346.90625 150.964844 346.90625 L 342.929688 346.90625 C 343.683594 346.90625 344.691406 346.761719 345.214844 346.070312 C 345.710938 345.40625 345.75 344.273438 345.320312 342.792969 C 344.261719 339.128906 333.367188 311.21875 330.027344 304.304688 C 326.355469 296.699219 321.765625 296.109375 320.445312 296.109375 Z M 342.929688 349.566406 L 150.964844 349.566406 C 149.011719 349.566406 147.488281 348.910156 146.554688 347.667969 C 145.84375 346.726562 145.171875 344.984375 146.015625 342.058594 C 147.226562 337.867188 158.355469 309.601562 161.46875 303.148438 C 164.402344 297.070312 168.878906 293.449219 173.453125 293.449219 L 320.445312 293.449219 C 325.015625 293.449219 329.496094 297.070312 332.421875 303.148438 C 335.542969 309.601562 346.667969 337.867188 347.878906 342.058594 C 348.722656 344.984375 348.050781 346.726562 347.339844 347.667969 C 346.40625 348.910156 344.882812 349.566406 342.929688 349.566406 " fill-opacity="1" fill-rule="nonzero"/><path fill="#ffffff" d="M 314.210938 391.777344 C 311.636719 392.226562 310.566406 395.355469 312.351562 397.261719 C 315.738281 400.882812 320.523438 405.34375 323.527344 405.34375 C 328.574219 405.34375 348.074219 405.34375 352.660156 405.34375 C 357.253906 405.34375 358.398438 402.589844 359.320312 400.0625 C 360.027344 398.113281 360.460938 389.734375 359.992188 383.90625 C 359.8125 381.734375 357.636719 380.320312 355.59375 381.066406 C 349.011719 383.449219 334.117188 388.335938 314.210938 391.777344 " fill-opacity="1" fill-rule="nonzero"/><path fill="#608cf8" d="M 314.210938 391.777344 L 314.222656 391.777344 Z M 356.710938 382.199219 C 356.484375 382.199219 356.261719 382.234375 356.046875 382.316406 C 348.988281 384.871094 334.207031 389.671875 314.441406 393.09375 C 314.4375 393.09375 314.4375 393.09375 314.4375 393.09375 C 313.710938 393.21875 313.136719 393.707031 312.902344 394.410156 C 312.671875 395.097656 312.828125 395.824219 313.324219 396.355469 C 319.792969 403.265625 322.613281 404.011719 323.527344 404.011719 L 352.660156 404.011719 C 356.203125 404.011719 357.101562 402.269531 358.066406 399.609375 C 358.640625 398.035156 359.152344 390.09375 358.664062 384.015625 C 358.613281 383.390625 358.28125 382.839844 357.761719 382.507812 C 357.445312 382.300781 357.078125 382.199219 356.710938 382.199219 Z M 352.660156 406.671875 L 323.527344 406.671875 C 322.488281 406.671875 319.339844 406.671875 311.382812 398.171875 C 310.207031 396.917969 309.832031 395.195312 310.378906 393.5625 C 310.921875 391.945312 312.304688 390.757812 313.984375 390.46875 C 333.546875 387.082031 348.167969 382.339844 355.136719 379.8125 C 356.5 379.316406 357.980469 379.484375 359.203125 380.269531 C 360.429688 381.054688 361.195312 382.34375 361.316406 383.796875 C 361.777344 389.511719 361.386719 398.261719 360.566406 400.519531 C 359.726562 402.820312 358.332031 406.671875 352.660156 406.671875 " fill-opacity="1" fill-rule="nonzero"/><path fill="#ffffff" d="M 179.679688 391.777344 C 182.257812 392.226562 183.328125 395.355469 181.539062 397.261719 C 178.15625 400.882812 173.367188 405.34375 170.367188 405.34375 C 165.320312 405.34375 145.820312 405.34375 141.230469 405.34375 C 136.640625 405.34375 135.492188 402.589844 134.578125 400.0625 C 133.867188 398.113281 133.433594 389.734375 133.90625 383.90625 C 134.082031 381.734375 136.257812 380.320312 138.304688 381.066406 C 144.886719 383.449219 159.773438 388.335938 179.679688 391.777344 " fill-opacity="1" fill-rule="nonzero"/><path fill="#608cf8" d="M 137.183594 382.199219 C 136.816406 382.199219 136.453125 382.300781 136.132812 382.507812 C 135.609375 382.839844 135.28125 383.390625 135.230469 384.015625 C 134.738281 390.09375 135.253906 398.035156 135.824219 399.609375 C 136.792969 402.269531 137.691406 404.011719 141.230469 404.011719 L 170.367188 404.011719 C 171.28125 404.011719 174.097656 403.265625 180.570312 396.355469 C 181.066406 395.824219 181.222656 395.097656 180.992188 394.410156 C 180.757812 393.707031 180.183594 393.21875 179.457031 393.09375 C 159.6875 389.671875 144.902344 384.871094 137.851562 382.316406 C 137.632812 382.234375 137.40625 382.199219 137.183594 382.199219 Z M 170.367188 406.671875 L 141.230469 406.671875 C 135.5625 406.671875 134.164062 402.820312 133.324219 400.519531 C 132.507812 398.265625 132.117188 389.511719 132.578125 383.796875 C 132.695312 382.34375 133.46875 381.054688 134.695312 380.269531 C 135.914062 379.484375 137.394531 379.316406 138.757812 379.8125 C 145.726562 382.339844 160.34375 387.082031 179.910156 390.46875 C 181.589844 390.757812 182.96875 391.945312 183.511719 393.5625 C 184.0625 395.195312 183.6875 396.917969 182.511719 398.171875 C 174.554688 406.671875 171.402344 406.671875 170.367188 406.671875 " fill-opacity="1" fill-rule="nonzero"/><path fill="#000000" d="M 349.8125 465.203125 L 328.382812 465.203125 C 327.652344 465.203125 327.050781 464.609375 327.050781 463.875 C 327.050781 463.136719 327.652344 462.542969 328.382812 462.542969 L 349.8125 462.542969 C 355.917969 462.542969 363.828125 457.398438 365.960938 449.089844 C 368.09375 440.765625 368.726562 386.578125 367.308594 377.113281 C 366.324219 370.574219 362.234375 363.269531 358.625 356.820312 C 357.316406 354.484375 356.078125 352.273438 355.042969 350.207031 C 353.1875 346.496094 349.101562 336.59375 344.777344 326.105469 C 340.019531 314.582031 335.097656 302.65625 333.269531 299.316406 C 330.304688 293.898438 323.488281 287.070312 314.050781 285.65625 C 304.445312 284.210938 260.261719 284.105469 246.945312 284.105469 C 233.632812 284.105469 189.449219 284.210938 179.84375 285.65625 C 170.402344 287.070312 163.589844 293.898438 160.621094 299.316406 C 158.792969 302.660156 153.875 314.582031 149.117188 326.113281 C 144.789062 336.597656 140.703125 346.5 138.851562 350.207031 C 137.820312 352.273438 136.582031 354.484375 135.269531 356.820312 C 131.660156 363.269531 127.566406 370.574219 126.585938 377.113281 C 125.167969 386.578125 125.800781 440.765625 127.9375 449.089844 C 130.066406 457.398438 137.976562 462.542969 144.085938 462.542969 L 169.714844 462.542969 C 170.449219 462.542969 171.042969 463.136719 171.042969 463.875 C 171.042969 464.609375 170.449219 465.203125 169.714844 465.203125 L 144.085938 465.203125 C 136.828125 465.203125 127.839844 459.421875 125.359375 449.75 C 122.949219 440.355469 122.613281 385.664062 123.953125 376.71875 C 125.007812 369.695312 129.226562 362.167969 132.949219 355.523438 C 134.242188 353.207031 135.464844 351.027344 136.472656 349.019531 C 138.28125 345.394531 142.539062 335.074219 146.65625 325.097656 C 151.441406 313.5 156.390625 301.507812 158.289062 298.039062 C 161.546875 292.085938 169.046875 284.582031 179.449219 283.023438 C 189.234375 281.558594 233.585938 281.441406 246.945312 281.441406 C 260.308594 281.441406 304.660156 281.558594 314.445312 283.023438 C 324.847656 284.582031 332.347656 292.085938 335.605469 298.039062 C 337.503906 301.507812 342.449219 313.5 347.234375 325.09375 C 351.351562 335.070312 355.609375 345.394531 357.421875 349.019531 C 358.425781 351.027344 359.652344 353.207031 360.945312 355.523438 C 364.667969 362.167969 368.886719 369.695312 369.941406 376.71875 C 371.28125 385.664062 370.945312 440.355469 368.535156 449.75 C 366.054688 459.421875 357.066406 465.203125 349.8125 465.203125 " fill-opacity="1" fill-rule="nonzero"/><path fill="#000000" d="M 286.121094 465.203125 L 238.296875 465.203125 C 237.5625 465.203125 236.96875 464.609375 236.96875 463.875 C 236.96875 463.136719 237.5625 462.542969 238.296875 462.542969 L 286.121094 462.542969 C 286.855469 462.542969 287.453125 463.136719 287.453125 463.875 C 287.453125 464.609375 286.855469 465.203125 286.121094 465.203125 " fill-opacity="1" fill-rule="nonzero"/><path fill="#608cf8" d="M 306.0625 388.113281 L 187.828125 388.113281 C 179.164062 388.113281 142.566406 378.875 137.945312 376.746094 C 130.914062 373.507812 133.488281 366.023438 134.335938 363.566406 C 136.054688 358.582031 148.488281 339.738281 149.015625 338.941406 C 149.421875 338.324219 150.246094 338.152344 150.859375 338.5625 C 151.472656 338.96875 151.640625 339.792969 151.234375 340.40625 C 146.824219 347.082031 138.140625 360.695312 136.851562 364.433594 C 134.976562 369.878906 135.617188 372.746094 139.058594 374.332031 C 143.457031 376.355469 179.683594 385.453125 187.828125 385.453125 L 306.0625 385.453125 C 314.210938 385.453125 350.4375 376.355469 354.835938 374.332031 C 358.273438 372.746094 358.917969 369.878906 357.042969 364.433594 C 355.75 360.695312 347.070312 347.082031 342.65625 340.40625 C 342.253906 339.792969 342.417969 338.96875 343.03125 338.5625 C 343.648438 338.15625 344.46875 338.324219 344.878906 338.941406 C 345.402344 339.738281 357.839844 358.582031 359.554688 363.566406 C 360.402344 366.023438 362.976562 373.507812 355.949219 376.746094 C 351.328125 378.875 314.730469 388.113281 306.0625 388.113281 " fill-opacity="1" fill-rule="nonzero"/><path fill="#608cf8" d="M 356.820312 447.601562 C 358.128906 450.8125 356.53125 453.472656 353.226562 453.472656 L 140.667969 453.472656 C 137.359375 453.472656 135.761719 450.8125 137.070312 447.601562 L 141.6875 436.296875 C 142.863281 433.425781 146.261719 431.136719 149.300781 431.136719 L 344.589844 431.136719 C 347.628906 431.136719 351.03125 433.425781 352.203125 436.296875 L 356.820312 447.601562 " fill-opacity="1" fill-rule="nonzero"/><path fill="#000000" d="M 353.226562 454.800781 L 239.191406 454.800781 C 238.457031 454.800781 237.859375 454.207031 237.859375 453.472656 C 237.859375 452.738281 238.457031 452.144531 239.191406 452.144531 L 353.226562 452.144531 C 354.296875 452.144531 355.128906 451.78125 355.570312 451.121094 C 356.066406 450.386719 356.074219 449.285156 355.585938 448.105469 L 350.972656 436.804688 C 350.015625 434.453125 347.089844 432.46875 344.589844 432.46875 L 215.753906 432.46875 C 215.019531 432.46875 214.421875 431.871094 214.421875 431.136719 C 214.421875 430.402344 215.019531 429.804688 215.753906 429.804688 L 344.589844 429.804688 C 348.179688 429.804688 352.0625 432.4375 353.433594 435.796875 L 358.054688 447.101562 C 358.878906 449.117188 358.777344 451.121094 357.78125 452.609375 C 356.828125 454.023438 355.207031 454.800781 353.226562 454.800781 " fill-opacity="1" fill-rule="nonzero"/><path fill="#000000" d="M 175.179688 454.800781 L 140.667969 454.800781 C 138.683594 454.800781 137.0625 454.023438 136.113281 452.609375 C 135.117188 451.121094 135.015625 449.117188 135.839844 447.101562 L 140.453125 435.796875 C 141.828125 432.4375 145.714844 429.804688 149.300781 429.804688 L 178.976562 429.804688 C 179.710938 429.804688 180.308594 430.402344 180.308594 431.136719 C 180.308594 431.871094 179.710938 432.46875 178.976562 432.46875 L 149.300781 432.46875 C 146.800781 432.46875 143.878906 434.453125 142.917969 436.804688 L 138.300781 448.105469 C 137.820312 449.285156 137.828125 450.386719 138.320312 451.121094 C 138.761719 451.78125 139.597656 452.144531 140.667969 452.144531 L 175.179688 452.144531 C 175.914062 452.144531 176.511719 452.738281 176.511719 453.472656 C 176.511719 454.207031 175.914062 454.800781 175.179688 454.800781 " fill-opacity="1" fill-rule="nonzero"/><path fill="#caddff" d="M 366.253906 127.292969 L 121.472656 127.292969 C 114.492188 127.292969 108.832031 121.632812 108.832031 114.65625 C 108.832031 107.675781 114.492188 102.015625 121.472656 102.015625 L 366.253906 102.015625 C 373.234375 102.015625 378.894531 107.675781 378.894531 114.65625 C 378.894531 121.632812 373.234375 127.292969 366.253906 127.292969 " fill-opacity="1" fill-rule="nonzero"/><path fill="#000000" d="M 591.210938 309.761719 C 606.425781 325.476562 606.996094 320.414062 632.011719 339.917969 C 654.433594 357.398438 655.433594 367.609375 670.148438 370.074219 C 680.347656 371.78125 688.777344 368.363281 703.527344 362.390625 C 720.5 355.507812 731.378906 351.097656 733.550781 342.28125 C 737.074219 327.976562 713.960938 317.292969 717.835938 304.410156 C 721.117188 293.527344 738.726562 297.496094 747.308594 284.039062 C 756.683594 269.355469 749.65625 242.769531 734.894531 232.59375 C 726.160156 226.582031 721.78125 231.175781 708.816406 223.957031 C 693.875 215.636719 694.714844 206.765625 683.964844 203.703125 C 669.828125 199.683594 663.972656 213.789062 650.265625 210.988281 C 631.929688 207.242188 632.589844 179.996094 613.398438 176.800781 C 602.871094 175.039062 592.230469 177.421875 584.984375 179.671875 C 577.710938 181.925781 573.238281 183.386719 570.8125 187.660156 C 567.785156 192.984375 571.015625 197.253906 568.074219 206.660156 C 566.585938 211.421875 565.097656 212.441406 563.125 216.632812 C 558.84375 225.722656 559.503906 234.421875 560.082031 242.03125 C 563.015625 280.640625 591.210938 309.761719 591.210938 309.761719 " fill-opacity="1" fill-rule="nonzero"/><path fill="#000000" d="M 621.542969 576.105469 C 621.542969 576.105469 487.128906 595.46875 475.417969 568.609375 C 475.417969 568.609375 480.285156 548.488281 510.433594 546.007812 C 540.578125 543.527344 621.542969 576.105469 621.542969 576.105469 " fill-opacity="1" fill-rule="nonzero"/><path fill="#ffffff" d="M 513.648438 501.839844 C 513.648438 501.839844 525.144531 572.402344 586.496094 645.273438 C 592.285156 652.144531 596.949219 659.890625 600.445312 668.167969 L 602.554688 673.148438 C 602.554688 673.148438 616.976562 670.660156 619.28125 663.5625 C 621.582031 656.464844 563.394531 549.089844 563.394531 549.089844 L 513.648438 501.839844 " fill-opacity="1" fill-rule="nonzero"/><path fill="#000000" d="M 515.789062 505.695312 C 519.316406 521.738281 535.449219 582.570312 587.519531 644.417969 C 593.292969 651.269531 598.054688 659.089844 601.675781 667.648438 L 603.363281 671.636719 C 607.710938 670.710938 616.46875 667.921875 618.011719 663.152344 C 619.136719 657.609375 584.496094 590.832031 562.328125 549.90625 Z M 602.554688 674.484375 C 602.03125 674.484375 601.542969 674.167969 601.335938 673.667969 L 599.222656 668.6875 C 595.710938 660.375 591.085938 652.78125 585.480469 646.128906 C 524.59375 573.808594 512.449219 502.761719 512.332031 502.050781 C 512.246094 501.488281 512.523438 500.925781 513.03125 500.660156 C 513.535156 500.390625 514.148438 500.480469 514.566406 500.871094 L 564.316406 548.125 C 564.414062 548.21875 564.5 548.332031 564.566406 548.453125 C 564.714844 548.722656 579.285156 575.628906 593.386719 603.054688 C 622.160156 659.011719 621.03125 662.492188 620.542969 663.972656 C 618.019531 671.746094 603.40625 674.355469 602.78125 674.460938 C 602.707031 674.472656 602.628906 674.484375 602.554688 674.484375 " fill-opacity="1" fill-rule="nonzero"/><path fill="#608cf8" d="M 613.859375 666.792969 L 610.613281 657.320312 C 596.09375 652.261719 598.179688 663.203125 598.433594 668.910156 C 598.679688 674.621094 589.355469 697.011719 584.199219 701.402344 C 579.03125 705.792969 581.890625 712.703125 581.890625 712.703125 C 581.890625 712.703125 599.414062 719.140625 612.449219 709.878906 C 625.484375 700.617188 635.113281 661.847656 635.113281 661.847656 C 627.941406 649.496094 613.179688 646.308594 613.179688 646.308594 C 613.179688 646.308594 620.324219 655.539062 613.859375 666.792969 " fill-opacity="1" fill-rule="nonzero"/><path fill="#000000" d="M 582.933594 711.644531 C 586.015625 712.617188 600.675781 716.609375 611.679688 708.792969 C 623.363281 700.488281 632.480469 666.6875 633.6875 662.054688 C 628.804688 654.035156 620.453125 650.136719 615.964844 648.539062 C 617.71875 652.390625 619.589844 659.492188 615.015625 667.457031 C 614.757812 667.90625 614.273438 668.175781 613.730469 668.117188 C 613.214844 668.066406 612.773438 667.714844 612.605469 667.222656 L 609.566406 658.371094 C 605.609375 657.074219 602.828125 657.007812 601.308594 658.167969 C 599.171875 659.792969 599.445312 663.914062 599.664062 667.222656 C 599.703125 667.796875 599.734375 668.347656 599.757812 668.855469 C 600.023438 674.917969 590.578125 697.71875 585.054688 702.417969 C 581.460938 705.476562 582.453125 710.074219 582.933594 711.644531 Z M 595.335938 716.238281 C 587.804688 716.238281 581.855469 714.109375 581.429688 713.949219 C 581.085938 713.820312 580.804688 713.554688 580.660156 713.207031 C 580.527344 712.890625 577.5 705.351562 583.332031 700.390625 C 588.207031 696.25 597.339844 674.335938 597.101562 668.96875 C 597.078125 668.480469 597.042969 667.953125 597.007812 667.398438 C 596.761719 663.664062 596.414062 658.546875 599.691406 656.050781 C 602.082031 654.230469 605.800781 654.234375 611.050781 656.0625 C 611.4375 656.199219 611.742188 656.5 611.875 656.890625 L 614.066406 663.289062 C 617.515625 654.328125 612.375 647.4375 612.132812 647.121094 C 611.789062 646.679688 611.765625 646.066406 612.0625 645.597656 C 612.355469 645.128906 612.917969 644.886719 613.460938 645.007812 C 614.089844 645.144531 628.882812 648.460938 636.265625 661.179688 C 636.4375 661.476562 636.484375 661.835938 636.40625 662.167969 C 636.003906 663.769531 626.503906 701.527344 613.21875 710.964844 C 607.472656 715.046875 600.960938 716.238281 595.335938 716.238281 " fill-opacity="1" fill-rule="nonzero"/><path fill="#000000" d="M 620.222656 690.101562 C 626.828125 678.011719 629.019531 663.726562 629.75 655.183594 C 631.730469 657.03125 633.59375 659.234375 635.113281 661.847656 C 635.113281 661.847656 625.484375 700.617188 612.449219 709.878906 C 599.414062 719.140625 581.890625 712.703125 581.890625 712.703125 C 581.890625 712.703125 580.828125 710.109375 581.179688 707.097656 C 605.730469 712.398438 610.460938 707.953125 620.222656 690.101562 " fill-opacity="1" fill-rule="nonzero"/><path fill="#608cf8" d="M 581.179688 707.097656 C 581.40625 705.183594 582.195312 703.105469 584.195312 701.402344 C 589.359375 697.011719 598.679688 674.617188 598.425781 668.910156 C 598.183594 663.207031 596.09375 652.261719 610.613281 657.320312 L 613.859375 666.792969 C 620.324219 655.539062 613.179688 646.308594 613.179688 646.308594 C 613.179688 646.308594 622.351562 648.292969 629.746094 655.183594 C 629.019531 663.726562 626.824219 678.011719 620.222656 690.101562 C 610.460938 707.953125 605.734375 712.398438 581.179688 707.097656 " fill-opacity="1" fill-rule="nonzero"/><path fill="#000000" d="M 582.722656 706.066406 C 606.136719 710.925781 609.933594 706.140625 619.046875 689.460938 C 625.507812 677.652344 627.65625 663.507812 628.367188 655.722656 C 624.011719 651.832031 619.066406 649.640625 615.960938 648.539062 C 617.71875 652.390625 619.585938 659.496094 615.007812 667.457031 C 614.753906 667.90625 614.273438 668.175781 613.730469 668.121094 C 613.210938 668.066406 612.765625 667.71875 612.601562 667.222656 L 609.5625 658.371094 C 605.605469 657.074219 602.828125 657.007812 601.304688 658.167969 C 599.167969 659.796875 599.4375 663.914062 599.664062 667.222656 C 599.699219 667.796875 599.734375 668.347656 599.757812 668.855469 C 600.023438 674.921875 590.578125 697.71875 585.050781 702.417969 C 583.898438 703.402344 583.113281 704.628906 582.722656 706.066406 Z M 596.882812 710.558594 C 592.605469 710.558594 587.421875 709.804688 580.894531 708.398438 C 580.222656 708.25 579.777344 707.621094 579.855469 706.941406 C 580.164062 704.289062 581.339844 702.085938 583.332031 700.390625 C 588.199219 696.253906 597.335938 674.339844 597.101562 668.96875 C 597.078125 668.480469 597.042969 667.953125 597.007812 667.402344 C 596.757812 663.664062 596.414062 658.546875 599.6875 656.050781 C 602.082031 654.230469 605.792969 654.234375 611.050781 656.0625 C 611.433594 656.199219 611.734375 656.5 611.867188 656.890625 L 614.0625 663.28125 C 617.507812 654.246094 612.1875 647.203125 612.125 647.125 C 611.785156 646.683594 611.757812 646.074219 612.050781 645.597656 C 612.355469 645.128906 612.914062 644.890625 613.460938 645.007812 C 613.851562 645.09375 623.078125 647.148438 630.652344 654.207031 C 630.949219 654.488281 631.105469 654.886719 631.070312 655.292969 C 630.257812 664.871094 627.914062 678.792969 621.382812 690.738281 C 613.789062 704.628906 608.902344 710.558594 596.882812 710.558594 " fill-opacity="1" fill-rule="nonzero"/><path fill="#000000" d="M 607.507812 694.257812 C 607.375 694.257812 607.238281 694.238281 607.109375 694.195312 C 606.410156 693.976562 606.015625 693.234375 606.238281 692.53125 C 606.273438 692.410156 609.960938 680.507812 611.847656 668.648438 C 611.960938 667.925781 612.644531 667.425781 613.367188 667.542969 C 614.097656 667.660156 614.589844 668.34375 614.472656 669.066406 C 612.5625 681.121094 608.8125 693.203125 608.773438 693.320312 C 608.597656 693.894531 608.070312 694.257812 607.507812 694.257812 " fill-opacity="1" fill-rule="nonzero"/><path fill="#ffffff" d="M 577.828125 694.046875 C 578.847656 693.589844 576.636719 680.71875 578.546875 675.269531 C 580.453125 669.8125 602.507812 620.335938 603.972656 568.683594 C 605.441406 517.023438 560.621094 526.675781 560.621094 526.675781 C 560.621094 526.675781 573.339844 647.066406 546.761719 687.984375 C 546.761719 687.984375 555.648438 703.832031 577.828125 694.046875 " fill-opacity="1" fill-rule="nonzero"/><path fill="#000000" d="M 548.335938 687.984375 C 550.242188 690.753906 558.6875 700.765625 576.765625 693.054688 C 576.820312 692.203125 576.714844 690.289062 576.628906 688.707031 C 576.390625 684.316406 576.070312 678.308594 577.285156 674.828125 C 577.496094 674.222656 577.914062 673.175781 578.550781 671.59375 C 593.671875 633.757812 601.773438 599.125 602.640625 568.644531 C 603.089844 552.769531 599.152344 541.25 590.933594 534.421875 C 580.558594 525.796875 566.230469 527.15625 562.070312 527.777344 C 563.410156 541.253906 573.144531 648.300781 548.335938 687.984375 Z M 564.351562 698.550781 C 551.351562 698.550781 545.667969 688.761719 545.597656 688.636719 C 545.355469 688.199219 545.371094 687.675781 545.640625 687.257812 C 571.667969 647.203125 559.429688 528.019531 559.300781 526.816406 C 559.230469 526.140625 559.679688 525.519531 560.34375 525.378906 C 561.117188 525.210938 579.457031 521.417969 592.628906 532.371094 C 601.511719 539.753906 605.777344 551.984375 605.300781 568.71875 C 604.425781 599.511719 596.257812 634.453125 581.023438 672.582031 C 580.421875 674.078125 579.996094 675.15625 579.796875 675.707031 C 578.753906 678.6875 579.0625 684.398438 579.289062 688.5625 C 579.535156 693.285156 579.617188 694.707031 578.355469 695.257812 C 572.980469 697.636719 568.328125 698.550781 564.351562 698.550781 " fill-opacity="1" fill-rule="nonzero"/><path fill="#608cf8" d="M 508.742188 708.90625 C 509.496094 706.960938 510.792969 704.820312 512.980469 702.816406 C 519.3125 697.015625 550.476562 677.347656 550.476562 677.347656 C 550.476562 677.347656 566.054688 679.605469 558.550781 690.101562 C 558.550781 690.101562 574.714844 686.652344 578.632812 687.671875 C 581.515625 688.417969 581.257812 703.117188 580.914062 710.875 C 580.804688 713.511719 578.632812 715.578125 575.996094 715.578125 L 513.347656 715.578125 C 509.898438 715.578125 507.480469 712.117188 508.742188 708.90625 " fill-opacity="1" fill-rule="nonzero"/><path fill="#000000" d="M 578.207031 688.917969 Z M 509.976562 709.390625 C 509.546875 710.488281 509.683594 711.683594 510.355469 712.664062 C 511.042969 713.667969 512.132812 714.25 513.34375 714.25 L 576 714.25 C 577.921875 714.25 579.507812 712.738281 579.589844 710.8125 C 580.277344 695.09375 579.078125 689.691406 578.238281 688.941406 C 575.484375 688.292969 565.15625 690.054688 558.832031 691.402344 C 558.292969 691.515625 557.742188 691.289062 557.445312 690.832031 C 557.140625 690.371094 557.152344 689.773438 557.476562 689.328125 C 559.144531 686.992188 559.648438 685 558.96875 683.417969 C 557.773438 680.589844 553.019531 679.164062 550.757812 678.738281 C 546.992188 681.125 519.65625 698.507812 513.878906 703.796875 C 512.109375 705.421875 510.796875 707.304688 509.976562 709.390625 Z M 576 716.910156 L 513.34375 716.910156 C 511.273438 716.910156 509.332031 715.882812 508.160156 714.164062 C 507 712.46875 506.753906 710.324219 507.5 708.417969 C 508.464844 705.953125 510.011719 703.734375 512.085938 701.835938 C 518.429688 696.019531 548.492188 677.023438 549.769531 676.222656 C 550.039062 676.050781 550.347656 675.980469 550.667969 676.027344 C 551.015625 676.082031 559.273438 677.332031 561.421875 682.367188 C 562.175781 684.144531 562.09375 686.101562 561.179688 688.207031 C 566.15625 687.242188 575.796875 685.558594 578.972656 686.378906 C 580.261719 686.71875 583.277344 687.503906 582.25 710.929688 C 582.105469 714.285156 579.355469 716.910156 576 716.910156 " fill-opacity="1" fill-rule="nonzero"/><path fill="#000000" d="M 580.925781 710.792969 C 580.925781 710.816406 580.925781 710.84375 580.921875 710.875 C 580.804688 713.507812 578.636719 715.578125 576 715.578125 L 513.347656 715.578125 C 510.578125 715.578125 508.476562 713.339844 508.410156 710.792969 L 580.925781 710.792969 " fill-opacity="1" fill-rule="nonzero"/><path fill="#000000" d="M 525.796875 704.851562 C 525.289062 704.851562 524.800781 704.558594 524.582031 704.066406 C 524.285156 703.394531 524.585938 702.605469 525.257812 702.304688 L 555.402344 688.886719 C 556.070312 688.585938 556.859375 688.886719 557.15625 689.558594 C 557.453125 690.230469 557.152344 691.015625 556.480469 691.316406 L 526.335938 704.734375 C 526.164062 704.816406 525.976562 704.851562 525.796875 704.851562 " fill-opacity="1" fill-rule="nonzero"/><path fill="#ffffff" d="M 601.972656 345.3125 C 601.972656 345.3125 630.710938 456.464844 643.898438 587.492188 C 643.898438 587.492188 609.753906 600.5 546.757812 571.085938 C 483.757812 541.667969 475.421875 568.613281 475.421875 568.613281 L 532.832031 340.785156 L 601.972656 345.3125 " fill-opacity="1" fill-rule="nonzero"/><path fill="#000000" d="M 498.371094 556.035156 C 509.160156 556.035156 524.808594 559.363281 547.320312 569.878906 C 603.253906 595.996094 636.527344 588.304688 642.472656 586.554688 C 630.027344 463.851562 603.703125 357.582031 600.921875 346.578125 L 533.859375 342.175781 L 478.390625 562.261719 C 479.804688 561.003906 481.65625 559.730469 484.0625 558.664062 C 487.445312 557.167969 492.082031 556.035156 498.371094 556.035156 Z M 621.828125 591.765625 C 605.308594 591.765625 579.910156 588.03125 546.199219 572.289062 C 511.464844 556.070312 493.828125 557.25 485.140625 561.09375 C 478.265625 564.140625 476.707031 568.957031 476.691406 569.003906 C 476.476562 569.695312 475.753906 570.089844 475.058594 569.894531 C 474.367188 569.699219 473.949219 568.984375 474.128906 568.285156 L 531.546875 340.453125 C 531.703125 339.832031 532.28125 339.402344 532.921875 339.453125 L 602.058594 343.984375 C 602.636719 344.019531 603.121094 344.425781 603.261719 344.976562 C 603.550781 346.09375 632.171875 457.726562 645.226562 587.359375 C 645.285156 587.957031 644.9375 588.519531 644.375 588.734375 C 643.71875 588.988281 636.078125 591.765625 621.828125 591.765625 " fill-opacity="1" fill-rule="nonzero"/><path fill="#608cf8" d="M 577.847656 247.972656 C 577.847656 247.972656 552.882812 247.441406 534.832031 262.585938 C 516.773438 277.734375 488.03125 308.507812 483.191406 334 C 478.347656 359.488281 512.375 355.34375 528.84375 339.011719 C 545.308594 322.679688 577.847656 247.972656 577.847656 247.972656 " fill-opacity="1" fill-rule="nonzero"/><path fill="#608cf8" d="M 629.085938 261.359375 C 629.085938 261.359375 595.929688 241.578125 554.289062 251.632812 L 518.792969 330.566406 C 516.566406 335.523438 518.542969 341.375 523.347656 343.917969 C 535.40625 350.285156 561.46875 359.046875 605.691406 350.675781 C 612.84375 349.324219 618.320312 343.523438 619.265625 336.304688 L 629.085938 261.359375 " fill-opacity="1" fill-rule="nonzero"/><path fill="#ffffff" d="M 494.59375 286.785156 C 494.59375 286.785156 481.585938 328.75 482.800781 336.855469 C 484.015625 344.960938 485.960938 354.828125 496.789062 348.066406 C 507.617188 341.304688 503.707031 298.046875 503.707031 298.046875 L 494.59375 286.785156 " fill-opacity="1" fill-rule="nonzero"/><path fill="#000000" d="M 495.128906 289.5625 C 491.175781 302.597656 483.21875 330.652344 484.117188 336.65625 C 484.878906 341.742188 485.9375 347.277344 488.917969 348.648438 C 490.609375 349.429688 493.019531 348.855469 496.082031 346.9375 C 504.296875 341.808594 503.472656 310.679688 502.417969 298.570312 Z M 490.5625 351.660156 C 489.578125 351.660156 488.660156 351.457031 487.804688 351.0625 C 483.621094 349.136719 482.390625 343.085938 481.488281 337.050781 C 480.242188 328.742188 492.785156 288.113281 493.320312 286.390625 C 493.46875 285.917969 493.859375 285.570312 494.339844 285.480469 C 494.824219 285.382812 495.316406 285.566406 495.625 285.949219 L 504.742188 297.214844 C 504.910156 297.417969 505.007812 297.667969 505.035156 297.925781 C 505.445312 302.4375 508.6875 342.203125 497.492188 349.195312 C 494.863281 350.839844 492.570312 351.660156 490.5625 351.660156 " fill-opacity="1" fill-rule="nonzero"/><path fill="#ffffff" d="M 513.769531 315.59375 L 516.214844 314.65625 L 498.273438 263.226562 L 479.804688 259.855469 L 477.363281 260.796875 L 513.769531 315.59375 " fill-opacity="1" fill-rule="nonzero"/><path fill="#000000" d="M 495.308594 312.226562 L 513.769531 315.59375 L 495.832031 264.164062 L 477.363281 260.796875 L 495.308594 312.226562 " fill-opacity="1" fill-rule="nonzero"/><path fill="#000000" d="M 529.476562 326.316406 C 529.316406 326.316406 529.152344 326.285156 528.996094 326.226562 C 528.308594 325.960938 527.972656 325.1875 528.238281 324.503906 L 547.074219 276.171875 C 547.339844 275.484375 548.113281 275.148438 548.796875 275.414062 C 549.480469 275.679688 549.816406 276.453125 549.550781 277.136719 L 530.714844 325.472656 C 530.515625 325.996094 530.007812 326.316406 529.476562 326.316406 " fill-opacity="1" fill-rule="nonzero"/><path fill="#608cf8" d="M 566.289062 339.882812 C 572.117188 340.585938 578.148438 340.4375 584.199219 339.007812 C 616.8125 331.296875 606.898438 278.972656 606.898438 278.972656 L 629.09375 261.351562 C 672.683594 309.429688 643.90625 368.09375 597.871094 375.195312 C 581.828125 377.667969 567.75 374.355469 555.894531 368.480469 C 568.882812 358.773438 568.367188 347.074219 566.289062 339.882812 " fill-opacity="1" fill-rule="nonzero"/><path fill="#ffffff" d="M 497.996094 296.84375 L 500.90625 288.195312 L 513.546875 307.976562 L 510.523438 298.84375 C 510.523438 298.84375 514.0625 300.730469 516.519531 304.425781 C 518.898438 308.011719 520.828125 318.039062 520.945312 318.640625 C 526.519531 323.265625 544.96875 337.296875 566.285156 339.882812 C 568.367188 347.078125 570.058594 357.855469 557.066406 367.5625 C 528.925781 353.597656 512.070312 326.054688 512.070312 326.054688 C 499.65625 317.007812 497.996094 296.84375 497.996094 296.84375 " fill-opacity="1" fill-rule="nonzero"/><path fill="#000000" d="M 499.34375 297 C 499.597656 299.363281 501.835938 316.957031 512.851562 324.984375 C 512.992188 325.089844 513.113281 325.214844 513.207031 325.363281 C 513.371094 325.632812 529.898438 352.265625 556.921875 366.003906 C 567.707031 357.574219 567.199219 348.378906 565.238281 341.09375 C 543.820312 338.171875 525.308594 323.988281 520.089844 319.667969 C 519.855469 319.46875 519.691406 319.195312 519.632812 318.894531 C 518.953125 315.320312 517.195312 307.859375 515.40625 305.164062 C 514.703125 304.105469 513.898438 303.207031 513.121094 302.46875 L 514.800781 307.5625 C 515.015625 308.203125 514.71875 308.898438 514.113281 309.183594 C 513.511719 309.472656 512.785156 309.265625 512.421875 308.695312 L 501.277344 291.253906 Z M 557.066406 368.894531 C 556.867188 368.894531 556.664062 368.851562 556.476562 368.761719 C 529.667969 355.457031 512.792969 329.675781 511.074219 326.976562 C 498.503906 317.621094 496.734375 297.796875 496.667969 296.953125 C 496.652344 296.773438 496.675781 296.59375 496.730469 296.417969 L 499.640625 287.773438 C 499.804688 287.292969 500.234375 286.941406 500.742188 286.875 C 501.253906 286.824219 501.75 287.050781 502.027344 287.484375 L 509.203125 298.714844 C 509.234375 298.378906 509.398438 298.054688 509.667969 297.832031 C 510.085938 297.476562 510.667969 297.421875 511.148438 297.671875 C 511.304688 297.757812 515.011719 299.765625 517.625 303.691406 C 519.894531 307.117188 521.699219 315.625 522.15625 317.921875 C 527.765625 322.515625 545.84375 336.066406 566.441406 338.566406 C 566.972656 338.628906 567.414062 339 567.5625 339.515625 C 569.789062 347.234375 571.214844 358.652344 557.863281 368.632812 C 557.628906 368.808594 557.351562 368.894531 557.066406 368.894531 " fill-opacity="1" fill-rule="nonzero"/><path fill="#000000" d="M 573.574219 341.789062 C 571.152344 341.789062 568.660156 341.597656 566.078125 341.199219 C 565.355469 341.082031 564.859375 340.402344 564.972656 339.675781 C 565.085938 338.953125 565.765625 338.457031 566.492188 338.566406 C 600.527344 343.90625 620.183594 309.214844 620.382812 308.863281 C 620.734375 308.21875 621.542969 307.988281 622.1875 308.347656 C 622.828125 308.703125 623.0625 309.511719 622.707031 310.152344 C 622.515625 310.492188 604.8125 341.789062 573.574219 341.789062 " fill-opacity="1" fill-rule="nonzero"/><path fill="#ffffff" d="M 587.675781 229.617188 L 587.019531 246.140625 L 573.148438 248.914062 C 573.148438 248.914062 581.492188 265.917969 618.394531 256.382812 L 605.25 247.703125 L 601.847656 225.003906 L 587.675781 229.617188 " fill-opacity="1" fill-rule="nonzero"/><path fill="#000000" d="M 587.023438 246.136719 L 587.027344 246.136719 Z M 575.414062 249.816406 C 578.464844 253.414062 588.75 261.851562 615.117188 255.8125 L 604.515625 248.8125 C 604.203125 248.605469 603.988281 248.273438 603.933594 247.898438 L 600.769531 226.753906 L 588.96875 230.59375 L 588.347656 246.191406 C 588.328125 246.808594 587.886719 247.320312 587.28125 247.441406 Z M 597.945312 260.632812 C 577.722656 260.632812 572.238281 250.070312 571.953125 249.5 C 571.773438 249.128906 571.773438 248.691406 571.957031 248.320312 C 572.140625 247.953125 572.484375 247.683594 572.890625 247.605469 L 585.730469 245.039062 L 586.34375 229.558594 C 586.367188 229.007812 586.734375 228.523438 587.261719 228.351562 L 601.441406 223.738281 C 601.808594 223.617188 602.21875 223.664062 602.550781 223.871094 C 602.882812 224.074219 603.109375 224.417969 603.164062 224.804688 L 606.480469 246.917969 L 619.128906 255.269531 C 619.566406 255.5625 619.796875 256.082031 619.710938 256.601562 C 619.621094 257.117188 619.238281 257.535156 618.730469 257.671875 C 610.496094 259.796875 603.640625 260.632812 597.945312 260.632812 " fill-opacity="1" fill-rule="nonzero"/><path fill="#ffffff" d="M 576.671875 205.65625 C 580.390625 195.804688 586.925781 201.289062 591.113281 203.234375 C 595.300781 205.183594 598.964844 196.460938 603.726562 198.941406 C 608.476562 201.417969 602.703125 207.957031 601.746094 210.796875 C 600.789062 213.636719 606.273438 210.796875 608.226562 212.089844 C 609.515625 212.949219 609.738281 214.941406 607.941406 217.3125 C 606.8125 218.796875 605.121094 220.144531 603.726562 220.6875 C 601.121094 229.292969 591.871094 236.4375 584.210938 233.550781 C 576.496094 230.648438 576.539062 205.996094 576.671875 205.65625 " fill-opacity="1" fill-rule="nonzero"/><path fill="#000000" d="M 577.96875 205.964844 C 577.730469 209.558594 578.679688 230.050781 584.675781 232.3125 C 587.882812 233.523438 590.992188 232.574219 593.027344 231.570312 C 597.316406 229.449219 601.015625 225.03125 602.441406 220.308594 C 602.5625 219.921875 602.855469 219.605469 603.230469 219.457031 C 604.414062 218.992188 605.914062 217.78125 606.878906 216.515625 C 607.636719 215.507812 608.003906 214.542969 607.882812 213.851562 C 607.835938 213.558594 607.707031 213.351562 607.488281 213.207031 C 607.058594 212.925781 605.578125 213.132812 604.695312 213.257812 C 603.109375 213.488281 601.601562 213.695312 600.746094 212.664062 C 600.410156 212.257812 600.089844 211.53125 600.480469 210.375 C 600.757812 209.546875 601.308594 208.585938 601.949219 207.472656 C 603.070312 205.507812 604.613281 202.8125 604.160156 201.265625 C 604.070312 200.964844 603.871094 200.527344 603.097656 200.125 C 601.507812 199.300781 600.027344 200.335938 597.773438 202.140625 C 595.675781 203.824219 593.300781 205.722656 590.542969 204.449219 C 589.917969 204.15625 589.269531 203.804688 588.578125 203.429688 C 586.234375 202.164062 583.585938 200.722656 581.480469 201.511719 C 580.101562 202.027344 578.921875 203.523438 577.96875 205.964844 Z M 587.839844 235.542969 C 586.429688 235.542969 585.050781 235.296875 583.734375 234.800781 C 580.035156 233.40625 577.488281 228.035156 576.175781 218.835938 C 575.339844 212.96875 575.152344 205.902344 575.421875 205.1875 C 576.679688 201.851562 578.359375 199.835938 580.546875 199.019531 C 583.789062 197.8125 587.144531 199.628906 589.84375 201.089844 C 590.496094 201.445312 591.113281 201.777344 591.664062 202.035156 C 592.835938 202.578125 594.125 201.652344 596.109375 200.0625 C 598.328125 198.289062 601.082031 196.070312 604.332031 197.765625 C 605.570312 198.40625 606.371094 199.332031 606.714844 200.511719 C 607.488281 203.148438 605.695312 206.277344 604.253906 208.792969 C 603.835938 209.523438 603.441406 210.222656 603.1875 210.769531 C 603.550781 210.734375 603.980469 210.675781 604.316406 210.628906 C 605.898438 210.402344 607.691406 210.148438 608.957031 210.988281 C 609.785156 211.539062 610.335938 212.394531 610.503906 213.402344 C 610.679688 214.417969 610.5625 216.054688 608.996094 218.117188 C 607.878906 219.59375 606.289062 220.929688 604.800781 221.664062 C 603.039062 226.90625 599.027344 231.578125 594.207031 233.953125 C 592.066406 235.011719 589.917969 235.542969 587.839844 235.542969 " fill-opacity="1" fill-rule="nonzero"/></svg>