<svg xmlns="http://www.w3.org/2000/svg" xmlns:xlink="http://www.w3.org/1999/xlink" width="1080" zoomAndPan="magnify" viewBox="0 0 810 809.999993" height="1080" preserveAspectRatio="xMidYMid meet" version="1.0"><defs><filter x="0%" y="0%" width="100%" height="100%" id="85ff363ec7"><feColorMatrix values="0 0 0 0 1 0 0 0 0 1 0 0 0 0 1 0 0 0 1 0" color-interpolation-filters="sRGB"/></filter><mask id="3dcfd4de78"><g filter="url(#85ff363ec7)"><rect x="-81" width="972" fill="#000000" y="-80.999999" height="971.999992" fill-opacity="0.57"/></g></mask><clipPath id="3f3e78306c"><path d="M 4 5 L 716.640625 5 L 716.640625 702 L 4 702 Z M 4 5 " clip-rule="nonzero"/></clipPath><clipPath id="036b6aacec"><rect x="0" width="717" y="0" height="705"/></clipPath></defs><path fill="#caddff" d="M 132.027344 199.183594 C 185.097656 174.378906 266.433594 191.6875 321.8125 198.609375 C 377.195312 205.53125 407.191406 202.648438 477.566406 158.804688 C 547.945312 115.539062 658.125 31.894531 716.390625 39.972656 C 774.652344 48.046875 781 147.84375 769.460938 229.757812 C 757.925781 311.675781 729.082031 376.28125 703.121094 435.699219 C 677.164062 495.695312 654.089844 551.074219 618.898438 621.449219 C 583.132812 691.828125 535.253906 777.78125 481.605469 775.472656 C 427.378906 772.589844 367.386719 682.023438 284.316406 643.371094 C 200.671875 604.722656 93.953125 617.988281 47.226562 579.339844 C 0.5 540.113281 13.769531 448.390625 33.382812 369.359375 C 52.996094 290.332031 78.378906 223.992188 132.027344 199.183594 Z M 132.027344 199.183594 " fill-opacity="1" fill-rule="nonzero"/><g mask="url(#3dcfd4de78)"><g transform="matrix(1, 0, 0, 1, 72, 54)"><g clip-path="url(#036b6aacec)"><g clip-path="url(#3f3e78306c)"><path fill="#86a7fc" d="M 122.902344 33.851562 C 180.589844 -3.070312 257.890625 -4.222656 312.117188 30.390625 C 366.339844 65.578125 398.070312 137.109375 471.332031 152.683594 C 544.59375 168.835938 659.386719 128.457031 698.617188 152.109375 C 737.84375 176.335938 700.347656 263.441406 698.617188 354.011719 C 696.308594 444.578125 728.613281 538.609375 689.960938 567.449219 C 651.3125 595.71875 541.132812 559.953125 462.101562 575.527344 C 383.070312 591.679688 334.613281 659.171875 270.582031 686.863281 C 206.550781 714.550781 124.632812 702.4375 80.214844 653.980469 C 34.644531 606.101562 25.414062 520.148438 16.183594 441.117188 C 6.378906 361.511719 -2.277344 287.09375 12.144531 214.410156 C 26.566406 141.722656 65.21875 70.191406 122.902344 33.851562 Z M 122.902344 33.851562 " fill-opacity="1" fill-rule="nonzero"/></g></g></g></g></svg>