<svg xmlns="http://www.w3.org/2000/svg" xmlns:xlink="http://www.w3.org/1999/xlink" width="1080" zoomAndPan="magnify" viewBox="0 0 810 809.999993" height="1080" preserveAspectRatio="xMidYMid meet" version="1.0"><path fill="#caddff" d="M 166.335938 554.082031 C 235.003906 635.734375 209.472656 681.046875 257.882812 720.273438 C 332.375 780.628906 483.882812 747.125 577.25 680.847656 C 691.59375 599.667969 809.925781 357.464844 662.335938 277.710938 C 510.03125 195.40625 668.613281 29.351562 327.859375 37.445312 C 185.703125 40.828125 41.46875 142.703125 16.433594 273.179688 C 13.71875 287.320312 0.53125 363.894531 41.101562 434.355469 C 74.632812 492.59375 111.902344 489.359375 166.335938 554.082031 " fill-opacity="1" fill-rule="nonzero"/><path fill="#99b9ff" d="M 404.121094 709.777344 L 79.179688 709.777344 C 66.734375 709.777344 56.644531 699.6875 56.644531 687.242188 L 56.644531 57.78125 C 56.644531 45.335938 66.734375 35.242188 79.179688 35.242188 L 404.121094 35.242188 C 416.566406 35.242188 426.660156 45.335938 426.660156 57.78125 L 426.660156 687.242188 C 426.660156 699.6875 416.566406 709.777344 404.121094 709.777344 " fill-opacity="1" fill-rule="nonzero"/><path fill="#ffffff" d="M 404.5625 691.417969 L 77.664062 691.417969 C 75.65625 691.417969 74.027344 689.792969 74.027344 687.78125 L 74.027344 86.128906 C 74.027344 84.5 75.347656 83.179688 76.976562 83.179688 L 404.5625 83.179688 C 406.085938 83.179688 407.3125 84.410156 407.3125 85.933594 L 407.3125 688.667969 C 407.3125 690.1875 406.085938 691.417969 404.5625 691.417969 " fill-opacity="1" fill-rule="nonzero"/><path fill="#caddff" d="M 338.078125 181.820312 L 215.613281 315.109375 L 215.613281 408.378906 L 253.09375 466.320312 L 338.078125 466.320312 L 338.078125 181.820312 " fill-opacity="1" fill-rule="nonzero"/><path fill="#caddff" d="M 398.710938 691.429688 L 402.804688 691.429688 C 405.84375 691.429688 408.316406 688.960938 408.316406 685.921875 L 408.316406 584.265625 L 329.390625 584.265625 L 398.710938 691.429688 " fill-opacity="1" fill-rule="nonzero"/><path fill="#caddff" d="M 130.011719 475.492188 C 130.011719 470.429688 134.117188 466.320312 139.183594 466.320312 L 209.390625 466.320312 L 181.859375 423.757812 C 179.9375 420.789062 178.917969 417.328125 178.917969 413.792969 L 178.917969 326.3125 L 74.992188 326.3125 L 74.992188 565.914062 L 130.011719 565.914062 L 130.011719 475.492188 " fill-opacity="1" fill-rule="nonzero"/><path fill="#caddff" d="M 356.421875 161.851562 L 356.421875 475.496094 C 356.421875 480.5625 352.316406 484.671875 347.253906 484.671875 L 264.964844 484.671875 L 317.519531 565.917969 L 408.3125 565.917969 L 408.3125 155.578125 L 362.191406 155.578125 L 356.421875 161.851562 " fill-opacity="1" fill-rule="nonzero"/><path fill="#caddff" d="M 356.421875 118.882812 L 408.3125 118.882812 L 408.3125 89.03125 C 408.3125 85.996094 405.839844 83.523438 402.804688 83.523438 L 356.421875 83.523438 L 356.421875 118.882812 " fill-opacity="1" fill-rule="nonzero"/><path fill="#caddff" d="M 178.914062 289.613281 L 178.914062 83.523438 L 80.5 83.523438 C 77.460938 83.523438 74.992188 85.996094 74.992188 89.03125 L 74.992188 289.613281 L 178.914062 289.613281 " fill-opacity="1" fill-rule="nonzero"/><path fill="#caddff" d="M 285.683594 584.265625 L 148.359375 584.265625 L 148.359375 691.429688 L 355.003906 691.429688 L 285.683594 584.265625 " fill-opacity="1" fill-rule="nonzero"/><path fill="#caddff" d="M 148.359375 565.914062 L 273.816406 565.914062 L 221.261719 484.671875 L 148.359375 484.671875 L 148.359375 565.914062 " fill-opacity="1" fill-rule="nonzero"/><path fill="#caddff" d="M 130.011719 584.265625 L 74.992188 584.265625 L 74.992188 685.921875 C 74.992188 688.960938 77.460938 691.429688 80.5 691.429688 L 130.011719 691.429688 L 130.011719 584.265625 " fill-opacity="1" fill-rule="nonzero"/><path fill="#caddff" d="M 338.078125 83.523438 L 215.609375 83.523438 L 215.609375 260.875 L 338.078125 127.585938 L 338.078125 83.523438 " fill-opacity="1" fill-rule="nonzero"/><path fill="#000000" d="M 403.164062 692.730469 L 80.140625 692.730469 C 76.585938 692.730469 73.691406 689.839844 73.691406 686.28125 L 73.691406 384.296875 C 73.691406 383.574219 74.273438 382.992188 74.992188 382.992188 C 75.710938 382.992188 76.292969 383.574219 76.292969 384.296875 L 76.292969 686.28125 C 76.292969 688.402344 78.019531 690.128906 80.140625 690.128906 L 403.164062 690.128906 C 405.289062 690.128906 407.015625 688.402344 407.015625 686.28125 L 407.015625 435.769531 C 407.015625 435.054688 407.59375 434.46875 408.316406 434.46875 C 409.03125 434.46875 409.613281 435.054688 409.613281 435.769531 L 409.613281 686.28125 C 409.613281 689.839844 406.71875 692.730469 403.164062 692.730469 " fill-opacity="1" fill-rule="nonzero"/><path fill="#000000" d="M 408.3125 390.171875 C 407.59375 390.171875 407.011719 389.589844 407.011719 388.871094 L 407.011719 88.675781 C 407.011719 86.550781 405.285156 84.824219 403.164062 84.824219 L 80.140625 84.824219 C 78.019531 84.824219 76.289062 86.550781 76.289062 88.675781 L 76.289062 332.824219 C 76.289062 333.542969 75.707031 334.125 74.992188 334.125 C 74.273438 334.125 73.691406 333.542969 73.691406 332.824219 L 73.691406 88.675781 C 73.691406 85.121094 76.582031 82.222656 80.140625 82.222656 L 403.164062 82.222656 C 406.714844 82.222656 409.609375 85.121094 409.609375 88.675781 L 409.609375 388.871094 C 409.609375 389.589844 409.027344 390.171875 408.3125 390.171875 " fill-opacity="1" fill-rule="nonzero"/><path fill="#caddff" d="M 241.652344 67.007812 C 236.484375 67.007812 232.296875 62.820312 232.296875 57.652344 C 232.296875 52.488281 236.484375 48.296875 241.652344 48.296875 C 246.820312 48.296875 251.007812 52.488281 251.007812 57.652344 C 251.007812 62.820312 246.820312 67.007812 241.652344 67.007812 " fill-opacity="1" fill-rule="nonzero"/><path fill="#000000" d="M 404.351562 711.078125 L 78.949219 711.078125 C 65.933594 711.078125 55.34375 700.488281 55.34375 687.472656 L 55.34375 57.550781 C 55.34375 44.53125 65.933594 33.941406 78.949219 33.941406 L 404.351562 33.941406 C 417.367188 33.941406 427.960938 44.53125 427.960938 57.550781 L 428.492188 400.878906 C 428.492188 401.597656 427.910156 402.179688 427.199219 402.179688 L 427.191406 402.179688 C 426.476562 402.179688 425.894531 401.601562 425.894531 400.882812 L 425.363281 57.550781 C 425.363281 45.96875 415.9375 36.539062 404.351562 36.539062 L 78.949219 36.539062 C 67.367188 36.539062 57.945312 45.96875 57.945312 57.550781 L 57.945312 687.472656 C 57.945312 699.054688 67.367188 708.476562 78.949219 708.476562 L 404.351562 708.476562 C 415.9375 708.476562 425.363281 699.054688 425.363281 687.472656 L 425.363281 442.632812 C 425.363281 441.914062 425.941406 441.332031 426.660156 441.332031 C 427.378906 441.332031 427.960938 441.914062 427.960938 442.632812 L 427.960938 687.472656 C 427.960938 700.488281 417.367188 711.078125 404.351562 711.078125 " fill-opacity="1" fill-rule="nonzero"/><path fill="#000000" d="M 658.117188 754.464844 L 708.625 754.464844 C 711.398438 754.464844 713.644531 752.222656 713.644531 749.449219 L 713.644531 644.460938 C 713.644531 641.691406 711.398438 639.441406 708.625 639.441406 L 658.117188 639.441406 C 655.347656 639.441406 653.105469 641.691406 653.105469 644.460938 L 653.105469 749.449219 C 653.105469 752.222656 655.347656 754.464844 658.117188 754.464844 " fill-opacity="1" fill-rule="nonzero"/><path fill="#000000" d="M 300.003906 754.464844 L 249.496094 754.464844 C 246.726562 754.464844 244.480469 752.222656 244.480469 749.449219 L 244.480469 644.457031 C 244.480469 641.691406 246.726562 639.441406 249.496094 639.441406 L 300.003906 639.441406 C 302.777344 639.441406 305.023438 641.691406 305.023438 644.457031 L 305.023438 749.449219 C 305.023438 752.222656 302.777344 754.464844 300.003906 754.464844 " fill-opacity="1" fill-rule="nonzero"/><path fill="#86a7fc" d="M 684.734375 491.859375 L 684.734375 510.792969 L 727.421875 506.929688 C 728.167969 506.863281 728.640625 506.113281 728.375 505.414062 L 724.734375 495.691406 C 723.300781 491.886719 720.03125 489.082031 716.054688 488.246094 L 694.6875 483.773438 C 689.558594 482.699219 684.734375 486.617188 684.734375 491.859375 " fill-opacity="1" fill-rule="nonzero"/><path fill="#99b9ff" d="M 670.75 511.976562 L 728.007812 506.882812 C 728.371094 506.847656 728.621094 507.246094 728.433594 507.558594 L 725.691406 512.050781 C 724.796875 513.515625 723.320312 514.515625 721.640625 514.808594 L 693.464844 519.671875 C 692.390625 519.855469 691.292969 519.730469 690.296875 519.3125 L 689.488281 518.980469 C 685.832031 517.460938 681.890625 516.792969 677.941406 517.03125 L 671.007812 517.453125 L 670.75 511.976562 " fill-opacity="1" fill-rule="nonzero"/><path fill="#000000" d="M 727.253906 507.011719 Z M 679.421875 515.683594 C 683.019531 515.683594 686.632812 516.398438 689.945312 517.78125 L 690.761719 518.109375 C 691.550781 518.4375 692.398438 518.53125 693.226562 518.390625 L 721.410156 513.523438 C 722.726562 513.296875 723.882812 512.515625 724.578125 511.375 L 727.265625 506.96875 C 727.296875 506.78125 727.308594 506.296875 727.152344 505.867188 L 723.507812 496.148438 C 722.234375 492.742188 719.347656 490.265625 715.789062 489.523438 L 694.109375 485.046875 C 691.960938 484.601562 689.730469 485.15625 687.992188 486.570312 C 686.339844 487.90625 685.398438 489.835938 685.398438 491.863281 L 685.398438 511.921875 L 671.824219 513.15625 L 672.050781 516.078125 L 677.785156 515.734375 C 678.328125 515.703125 678.875 515.683594 679.421875 515.683594 Z M 692.472656 521.054688 C 691.550781 521.054688 690.632812 520.875 689.773438 520.515625 L 688.957031 520.183594 C 685.496094 518.742188 681.691406 518.105469 677.941406 518.332031 L 669.652344 518.824219 L 669.039062 510.800781 L 682.796875 509.546875 L 682.796875 491.863281 C 682.796875 489.050781 684.09375 486.386719 686.351562 484.554688 C 688.699219 482.644531 691.722656 481.894531 694.632812 482.503906 L 716.3125 486.976562 C 720.757812 487.902344 724.351562 490.992188 725.941406 495.234375 L 729.59375 504.972656 C 729.941406 505.933594 730.042969 507.40625 729.539062 508.234375 L 726.796875 512.726562 C 725.707031 514.507812 723.910156 515.734375 721.851562 516.089844 L 693.671875 520.953125 C 693.277344 521.019531 692.875 521.054688 692.472656 521.054688 " fill-opacity="1" fill-rule="nonzero"/><path fill="#86a7fc" d="M 273.394531 491.863281 L 273.394531 510.792969 L 230.3125 506.898438 C 229.769531 506.847656 229.421875 506.292969 229.613281 505.785156 L 233.398438 495.691406 C 234.824219 491.890625 238.097656 489.082031 242.070312 488.25 L 263.4375 483.773438 C 268.570312 482.703125 273.394531 486.617188 273.394531 491.863281 " fill-opacity="1" fill-rule="nonzero"/><path fill="#99b9ff" d="M 286.566406 511.976562 L 230.257812 506.894531 C 229.832031 506.855469 229.546875 507.316406 229.765625 507.679688 L 232.773438 512.605469 C 233.449219 513.714844 234.570312 514.476562 235.847656 514.695312 L 263.800781 519.519531 C 265.433594 519.804688 267.109375 519.617188 268.636719 518.980469 C 272.289062 517.460938 276.238281 516.792969 280.183594 517.03125 L 287.113281 517.453125 L 286.566406 511.976562 " fill-opacity="1" fill-rule="nonzero"/><path fill="#000000" d="M 265.460938 484.894531 C 264.972656 484.894531 264.480469 484.945312 263.996094 485.046875 L 242.480469 489.523438 C 238.929688 490.265625 235.941406 492.804688 234.6875 496.148438 L 230.867188 506.242188 C 230.753906 506.5625 230.847656 506.917969 230.894531 507.007812 L 233.890625 511.929688 C 234.371094 512.71875 235.164062 513.257812 236.074219 513.417969 L 264.023438 518.238281 C 265.414062 518.480469 266.835938 518.320312 268.140625 517.78125 C 271.949219 516.191406 276.140625 515.488281 280.261719 515.734375 L 285.855469 516.066406 L 285.640625 513.171875 L 272.675781 511.972656 L 272.675781 491.863281 C 272.675781 489.828125 271.730469 487.898438 270.085938 486.5625 C 268.746094 485.472656 267.117188 484.894531 265.460938 484.894531 Z M 265.289062 520.949219 C 264.71875 520.949219 264.148438 520.902344 263.582031 520.804688 L 235.632812 515.980469 C 233.984375 515.695312 232.539062 514.710938 231.667969 513.28125 L 228.671875 508.355469 C 228.261719 507.6875 228.027344 506.496094 228.421875 505.355469 L 232.253906 495.230469 C 233.816406 491.0625 237.53125 487.902344 241.949219 486.976562 L 263.464844 482.503906 C 266.367188 481.894531 269.378906 482.636719 271.722656 484.542969 C 273.980469 486.375 275.273438 489.042969 275.273438 491.863281 L 275.273438 509.601562 L 288.074219 510.785156 L 288.664062 518.835938 L 280.105469 518.332031 C 276.378906 518.105469 272.585938 518.742188 269.136719 520.179688 C 267.910156 520.691406 266.605469 520.949219 265.289062 520.949219 " fill-opacity="1" fill-rule="nonzero"/><path fill="#86a7fc" d="M 694 535.613281 C 684.167969 526.429688 675.582031 515.273438 670.375 502.871094 L 667.683594 496.457031 L 479.0625 498.425781 L 291.242188 496.457031 L 288.550781 502.871094 C 283.34375 515.273438 273.949219 526.429688 264.117188 535.613281 C 249.316406 549.425781 240.84375 568.71875 240.699219 588.96875 L 240.445312 623.355469 C 240.351562 636.351562 241.742188 649.3125 244.59375 661.996094 L 252.390625 696.664062 C 254.574219 706.371094 263.332031 713.167969 273.277344 712.867188 L 684.839844 712.867188 C 694.785156 713.167969 703.546875 706.371094 705.730469 696.667969 L 713.527344 662 C 716.378906 649.320312 717.769531 636.351562 717.679688 623.355469 L 717.425781 588.96875 C 717.277344 568.71875 708.804688 549.425781 694 535.613281 " fill-opacity="1" fill-rule="nonzero"/><path fill="#86a7fc" d="M 240.445312 613.652344 C 240.445312 613.652344 239.808594 645.632812 244.59375 661.992188 L 252.394531 696.664062 C 254.574219 706.371094 263.335938 713.167969 273.28125 712.867188 L 684.84375 712.867188 C 694.789062 713.167969 703.546875 706.371094 705.730469 696.667969 L 713.527344 661.996094 C 718.246094 647.523438 717.433594 613.007812 717.433594 613.007812 L 476.832031 635.09375 L 240.445312 613.652344 " fill-opacity="1" fill-rule="nonzero"/><path fill="#000000" d="M 578.039062 663.164062 L 380.09375 663.164062 C 368.121094 663.164062 356.65625 669.691406 348.308594 681.261719 L 346.757812 683.402344 C 343.699219 687.652344 345.925781 694.78125 350.324219 694.78125 L 607.804688 694.78125 C 612.203125 694.78125 614.429688 687.652344 611.367188 683.402344 L 609.816406 681.261719 C 601.472656 669.691406 590.007812 663.164062 578.039062 663.164062 " fill-opacity="1" fill-rule="nonzero"/><path fill="#99b9ff" d="M 631.003906 620.984375 L 588.847656 576.816406 L 479.066406 582.097656 L 369.285156 576.816406 L 327.125 620.984375 L 479.066406 627.359375 L 631.003906 620.984375 " fill-opacity="1" fill-rule="nonzero"/><path fill="#000000" d="M 588.847656 576.816406 L 584.472656 574.441406 C 576.300781 570.003906 567.257812 567.40625 557.976562 566.84375 L 524.464844 564.292969 C 494.207031 561.992188 463.816406 561.992188 433.558594 564.300781 L 400.0625 566.84375 C 390.804688 567.414062 381.785156 569.992188 373.632812 574.40625 L 369.179688 576.816406 L 454.308594 581.132812 C 457.378906 581.285156 460.28125 582.558594 462.484375 584.699219 L 476.8125 598.675781 C 478.058594 599.894531 480.054688 599.890625 481.300781 598.671875 L 495.597656 584.707031 C 497.792969 582.5625 500.703125 581.285156 503.773438 581.132812 L 588.847656 576.816406 " fill-opacity="1" fill-rule="nonzero"/><path fill="#caddff" d="M 409.46875 623.601562 L 289.355469 617.472656 C 286.335938 617.320312 285.730469 621.679688 288.675781 622.355469 L 321.585938 629.910156 L 336.539062 635.132812 C 355.980469 641.914062 376.425781 645.382812 397.015625 645.382812 L 561.109375 645.382812 C 581.695312 645.382812 602.140625 641.914062 621.578125 635.132812 L 636.539062 629.910156 L 669.582031 622.285156 C 672.523438 621.605469 671.914062 617.246094 668.898438 617.402344 L 548.648438 623.578125 C 502.289062 625.960938 455.832031 625.96875 409.46875 623.601562 " fill-opacity="1" fill-rule="nonzero"/><path fill="#ffffff" d="M 604.574219 561.066406 L 605.394531 560.546875 C 616.171875 553.65625 628.332031 549.214844 641.011719 547.523438 L 684.917969 541.667969 C 689.214844 541.097656 693.191406 544.058594 693.871094 548.351562 L 695.554688 559.019531 C 696.847656 567.195312 690.773438 574.6875 682.511719 575.125 L 645.957031 577.046875 C 635.886719 577.578125 625.847656 575.605469 616.730469 571.316406 L 604.882812 565.742188 C 602.972656 564.847656 602.804688 562.199219 604.574219 561.066406 " fill-opacity="1" fill-rule="nonzero"/><path fill="#caddff" d="M 605.890625 560.226562 C 603.972656 561.453125 604.367188 564.347656 606.535156 565.039062 C 613.554688 567.285156 620.941406 568.25 628.34375 567.863281 L 667.867188 565.78125 C 674.546875 565.429688 679.453125 559.375 678.410156 552.765625 L 676.828125 542.746094 L 640.421875 547.601562 C 628.128906 549.238281 616.34375 553.550781 605.890625 560.226562 " fill-opacity="1" fill-rule="nonzero"/><path fill="#000000" d="M 606.59375 561.324219 C 605.894531 561.765625 605.511719 562.527344 605.566406 563.347656 C 605.621094 564.171875 606.097656 564.875 606.84375 565.226562 L 617.285156 570.140625 C 626.183594 574.324219 636.066406 576.269531 645.886719 575.75 L 685.40625 573.667969 C 688.222656 573.519531 690.855469 572.179688 692.636719 569.988281 C 694.410156 567.792969 695.171875 564.941406 694.734375 562.15625 L 692.179688 545.96875 C 691.832031 543.796875 689.859375 542.320312 687.675781 542.613281 L 640.601562 548.886719 C 628.574219 550.492188 616.8125 554.792969 606.59375 561.324219 Z M 642.773438 578.429688 C 633.609375 578.429688 624.476562 576.402344 616.175781 572.492188 L 605.742188 567.578125 C 604.121094 566.820312 603.082031 565.300781 602.972656 563.515625 C 602.859375 561.734375 603.683594 560.09375 605.195312 559.132812 C 615.734375 552.398438 627.859375 547.960938 640.257812 546.3125 L 687.332031 540.035156 C 690.921875 539.558594 694.183594 541.984375 694.75 545.566406 L 697.300781 561.75 C 697.859375 565.261719 696.890625 568.859375 694.65625 571.625 C 692.414062 574.386719 689.097656 576.078125 685.542969 576.269531 L 646.023438 578.347656 C 644.945312 578.402344 643.855469 578.429688 642.773438 578.429688 " fill-opacity="1" fill-rule="nonzero"/><path fill="#ffffff" d="M 352.070312 560.226562 C 341.613281 553.550781 329.828125 549.238281 317.53125 547.597656 L 270.457031 541.320312 C 267.59375 540.941406 264.945312 542.914062 264.496094 545.769531 L 261.941406 561.953125 C 260.898438 568.558594 265.804688 574.617188 272.484375 574.964844 L 312.003906 577.046875 C 322.070312 577.574219 332.105469 575.605469 341.230469 571.316406 L 351.667969 566.402344 C 354.1875 565.21875 354.410156 561.722656 352.070312 560.226562 " fill-opacity="1" fill-rule="nonzero"/><path fill="#caddff" d="M 352.070312 560.226562 L 352.488281 560.496094 C 354.210938 561.597656 353.902344 564.222656 351.964844 564.859375 C 344.785156 567.234375 337.207031 568.257812 329.613281 567.859375 L 290.09375 565.78125 C 283.414062 565.429688 278.507812 559.371094 279.546875 552.761719 L 281.132812 542.746094 L 317.53125 547.601562 C 329.828125 549.238281 341.613281 553.550781 352.070312 560.226562 " fill-opacity="1" fill-rule="nonzero"/><path fill="#000000" d="M 269.738281 542.578125 C 267.777344 542.578125 266.09375 543.980469 265.777344 545.96875 L 263.226562 562.15625 C 262.785156 564.941406 263.550781 567.792969 265.324219 569.988281 C 267.101562 572.179688 269.734375 573.519531 272.550781 573.667969 L 312.070312 575.75 C 321.886719 576.269531 331.78125 574.324219 340.675781 570.140625 L 351.117188 565.226562 C 351.863281 564.875 352.339844 564.171875 352.394531 563.347656 C 352.445312 562.527344 352.0625 561.765625 351.367188 561.324219 C 341.144531 554.792969 329.386719 550.492188 317.359375 548.886719 L 270.285156 542.613281 C 270.097656 542.589844 269.917969 542.578125 269.738281 542.578125 Z M 315.183594 578.429688 C 314.101562 578.429688 313.019531 578.402344 311.9375 578.347656 L 272.414062 576.269531 C 268.863281 576.078125 265.542969 574.386719 263.304688 571.625 C 261.066406 568.859375 260.101562 565.261719 260.65625 561.75 L 263.210938 545.566406 C 263.777344 541.984375 267.042969 539.550781 270.628906 540.035156 L 317.703125 546.3125 C 330.101562 547.960938 342.226562 552.398438 352.765625 559.132812 C 354.273438 560.09375 355.101562 561.730469 354.988281 563.515625 C 354.875 565.296875 353.839844 566.820312 352.21875 567.578125 L 341.78125 572.492188 C 333.480469 576.402344 324.351562 578.429688 315.183594 578.429688 " fill-opacity="1" fill-rule="nonzero"/><path fill="#99b9ff" d="M 610.480469 653.113281 L 634.019531 643.296875 C 641.386719 640.21875 649.140625 638.183594 657.070312 637.242188 L 697.738281 632.414062 C 701.671875 631.945312 704.941406 635.402344 704.246094 639.304688 L 699.726562 664.746094 C 698.265625 672.953125 691.136719 678.925781 682.804688 678.925781 L 641.605469 678.925781 C 633.679688 678.925781 625.976562 676.246094 619.765625 671.316406 L 609.132812 662.882812 C 605.710938 660.171875 606.460938 654.796875 610.480469 653.113281 " fill-opacity="1" fill-rule="nonzero"/><path fill="#86a7fc" d="M 669.101562 643.171875 L 689.289062 640.773438 C 691.808594 640.476562 693.898438 642.691406 693.453125 645.1875 L 690.558594 661.46875 C 689.628906 666.722656 685.0625 670.546875 679.726562 670.546875 L 660.511719 670.546875 C 657.046875 670.546875 654.640625 667.09375 655.847656 663.84375 L 661.210938 649.382812 C 662.464844 646 665.507812 643.597656 669.101562 643.171875 " fill-opacity="1" fill-rule="nonzero"/><path fill="#99b9ff" d="M 346.179688 653.113281 L 322.640625 643.296875 C 315.273438 640.21875 307.519531 638.183594 299.589844 637.242188 L 258.914062 632.414062 C 254.984375 631.945312 251.71875 635.402344 252.410156 639.304688 L 256.933594 664.746094 C 258.390625 672.953125 265.523438 678.925781 273.855469 678.925781 L 315.050781 678.925781 C 322.980469 678.925781 330.679688 676.246094 336.894531 671.316406 L 347.53125 662.882812 C 350.941406 660.171875 350.199219 654.796875 346.179688 653.113281 " fill-opacity="1" fill-rule="nonzero"/><path fill="#86a7fc" d="M 288.339844 643.171875 L 268.148438 640.773438 C 265.632812 640.476562 263.542969 642.691406 263.984375 645.1875 L 266.878906 661.46875 C 267.8125 666.722656 272.375 670.550781 277.707031 670.550781 L 296.925781 670.550781 C 300.394531 670.550781 302.796875 667.09375 301.59375 663.847656 L 296.230469 649.382812 C 294.972656 646 291.925781 643.597656 288.339844 643.171875 " fill-opacity="1" fill-rule="nonzero"/><path fill="#99b9ff" d="M 666.839844 496.726562 L 639.511719 441.269531 C 631.503906 425.5 615.664062 415.222656 598 414.332031 L 546.738281 411.742188 C 501.886719 409.480469 456.945312 409.480469 412.09375 411.742188 L 360.792969 414.332031 C 343.140625 415.222656 327.3125 425.488281 319.292969 441.242188 L 291.910156 496.726562 L 479.417969 498.757812 L 666.839844 496.726562 " fill-opacity="1" fill-rule="nonzero"/><path fill="#caddff" d="M 644.339844 487.132812 C 647.300781 487.097656 649.164062 483.925781 647.753906 481.320312 L 630.78125 448.527344 C 623.210938 433.617188 608.238281 423.898438 591.535156 423.054688 L 543.0625 420.609375 C 500.652344 418.46875 458.171875 418.46875 415.757812 420.609375 L 367.257812 423.054688 C 350.566406 423.898438 335.597656 433.605469 328.023438 448.503906 L 310.996094 481.316406 C 309.585938 483.925781 311.453125 487.097656 314.417969 487.132812 L 479.410156 488.980469 L 644.339844 487.132812 " fill-opacity="1" fill-rule="nonzero"/><path fill="#ffffff" d="M 346.378906 487.492188 L 479.410156 488.980469 L 638.4375 487.195312 L 624.371094 460.027344 C 617.777344 447.042969 604.734375 438.578125 590.1875 437.839844 L 547.960938 435.710938 C 511.015625 433.84375 474.007812 433.84375 437.066406 435.710938 L 394.816406 437.839844 C 380.273438 438.578125 367.234375 447.03125 360.636719 460.003906 L 346.378906 487.492188 " fill-opacity="1" fill-rule="nonzero"/><path fill="#86a7fc" d="M 589.558594 487.746094 L 582.683594 459.738281 C 582.015625 456.585938 579.230469 454.496094 576.003906 454.496094 L 542.429688 454.496094 C 539.207031 454.496094 536.417969 456.585938 535.75 459.738281 L 528.730469 488.507812 L 589.558594 487.746094 " fill-opacity="1" fill-rule="nonzero"/><path fill="#86a7fc" d="M 429.324219 488.417969 L 422.308594 459.738281 C 421.640625 456.585938 418.855469 454.496094 415.625 454.496094 L 382.054688 454.496094 C 378.828125 454.496094 376.042969 456.585938 375.375 459.738281 L 368.5 487.820312 L 429.324219 488.417969 " fill-opacity="1" fill-rule="nonzero"/><path fill="#000000" d="M 273.226562 711.015625 L 684.960938 711.015625 C 693.992188 711.789062 702.382812 705.371094 704.46875 696.105469 L 712.261719 661.574219 C 715.089844 649.007812 716.476562 636.128906 716.382812 623.296875 L 716.132812 588.972656 C 715.980469 569.171875 707.597656 550.070312 693.125 536.554688 C 683.261719 527.355469 666.304688 498.347656 665.585938 497.121094 L 665.542969 497.039062 L 638.351562 441.84375 C 630.574219 426.546875 615.089844 416.5 597.9375 415.628906 L 546.671875 413.042969 C 502.046875 410.789062 456.785156 410.789062 412.15625 413.042969 L 360.859375 415.632812 C 343.71875 416.5 328.234375 426.535156 320.457031 441.832031 L 289.71875 503.445312 C 282.574219 517.0625 274.960938 527.269531 265.007812 536.554688 C 250.53125 550.070312 242.144531 569.171875 242 588.972656 L 241.746094 623.367188 C 241.65625 636.246094 243.039062 649.144531 245.863281 661.710938 L 253.660156 696.097656 C 255.746094 705.371094 264.132812 711.789062 273.171875 711.015625 Z M 686.417969 713.679688 C 685.878906 713.679688 685.339844 713.660156 684.792969 713.613281 L 273.335938 713.613281 C 263.019531 714.457031 253.488281 707.1875 251.125 696.675781 L 243.328125 662.28125 C 240.460938 649.519531 239.054688 636.425781 239.148438 623.347656 L 239.398438 588.953125 C 239.550781 568.441406 248.238281 548.652344 263.234375 534.65625 C 272.960938 525.574219 280.417969 515.585938 287.402344 502.261719 L 318.132812 440.660156 C 326.339844 424.53125 342.660156 413.945312 360.726562 413.035156 L 412.027344 410.441406 C 456.746094 408.183594 502.089844 408.183594 546.800781 410.449219 L 598.066406 413.035156 C 616.148438 413.945312 632.476562 424.542969 640.667969 440.679688 L 667.859375 495.847656 C 668.578125 497.078125 685.472656 525.863281 694.894531 534.65625 C 709.894531 548.652344 718.578125 568.441406 718.726562 588.953125 L 718.984375 623.277344 C 719.078125 636.308594 717.667969 649.382812 714.796875 662.144531 L 707.003906 696.675781 C 704.765625 706.628906 696.085938 713.679688 686.417969 713.679688 " fill-opacity="1" fill-rule="nonzero"/><path fill="#000000" d="M 479.425781 500.0625 L 365.042969 498.820312 C 364.324219 498.8125 363.75 498.222656 363.757812 497.503906 C 363.765625 496.792969 364.339844 496.21875 365.050781 496.21875 C 365.0625 496.21875 365.066406 496.21875 365.066406 496.21875 L 479.425781 497.460938 L 664.757812 495.449219 L 638.34375 441.847656 C 630.570312 426.550781 615.082031 416.5 597.933594 415.628906 L 546.667969 413.042969 C 502.042969 410.792969 456.785156 410.792969 412.15625 413.042969 L 360.859375 415.636719 C 343.714844 416.5 328.234375 426.535156 320.453125 441.835938 L 293.988281 495.449219 L 347.5625 496.03125 C 348.28125 496.039062 348.855469 496.628906 348.847656 497.34375 C 348.839844 498.0625 348.21875 498.636719 347.535156 498.628906 L 289.828125 498.003906 L 318.128906 440.671875 C 326.335938 424.53125 342.660156 413.949219 360.722656 413.035156 L 412.027344 410.445312 C 456.742188 408.1875 502.085938 408.1875 546.800781 410.449219 L 598.0625 413.035156 C 616.148438 413.949219 632.46875 424.542969 640.671875 440.683594 L 668.917969 498.003906 L 479.425781 500.0625 " fill-opacity="1" fill-rule="nonzero"/><path fill="#86a7fc" d="M 701.640625 142.070312 C 701.640625 143.585938 700.410156 144.8125 698.890625 144.8125 L 462.34375 144.8125 C 460.832031 144.8125 459.601562 143.585938 459.601562 142.070312 L 459.601562 94.789062 C 459.601562 93.269531 460.832031 92.042969 462.34375 92.042969 L 698.890625 92.042969 C 700.410156 92.042969 701.640625 93.269531 701.640625 94.789062 L 701.640625 142.070312 " fill-opacity="1" fill-rule="nonzero"/><path fill="#ffffff" d="M 488.335938 99.695312 C 488.453125 99.453125 488.699219 99.304688 488.964844 99.304688 C 489.230469 99.304688 489.476562 99.453125 489.59375 99.695312 L 495.023438 110.691406 C 495.125 110.898438 495.324219 111.039062 495.550781 111.074219 L 507.6875 112.839844 C 507.953125 112.878906 508.171875 113.0625 508.25 113.320312 C 508.339844 113.570312 508.265625 113.851562 508.078125 114.039062 L 499.292969 122.597656 C 499.128906 122.757812 499.054688 122.988281 499.09375 123.21875 L 501.164062 135.304688 C 501.210938 135.570312 501.101562 135.835938 500.882812 135.988281 C 500.671875 136.148438 500.382812 136.167969 500.144531 136.042969 L 489.292969 130.339844 C 489.085938 130.230469 488.84375 130.230469 488.640625 130.339844 L 477.785156 136.042969 C 477.546875 136.167969 477.261719 136.148438 477.046875 135.988281 C 476.828125 135.835938 476.722656 135.570312 476.765625 135.304688 L 478.835938 123.21875 C 478.875 122.988281 478.800781 122.757812 478.636719 122.597656 L 469.855469 114.039062 C 469.664062 113.851562 469.597656 113.570312 469.679688 113.320312 C 469.757812 113.0625 469.976562 112.878906 470.246094 112.839844 L 482.378906 111.074219 C 482.605469 111.039062 482.808594 110.898438 482.910156 110.691406 L 488.335938 99.695312 " fill-opacity="1" fill-rule="nonzero"/><path fill="#ffffff" d="M 534.210938 99.695312 C 534.332031 99.453125 534.574219 99.304688 534.839844 99.304688 C 535.109375 99.304688 535.351562 99.453125 535.46875 99.695312 L 540.898438 110.691406 C 541.003906 110.898438 541.195312 111.039062 541.421875 111.074219 L 553.5625 112.839844 C 553.828125 112.878906 554.046875 113.0625 554.128906 113.320312 C 554.210938 113.570312 554.140625 113.851562 553.949219 114.039062 L 545.167969 122.597656 C 545.007812 122.757812 544.929688 122.988281 544.964844 123.21875 L 547.039062 135.304688 C 547.085938 135.570312 546.976562 135.835938 546.761719 135.988281 C 546.546875 136.148438 546.257812 136.167969 546.019531 136.042969 L 535.167969 130.339844 C 534.964844 130.230469 534.71875 130.230469 534.515625 130.339844 L 523.65625 136.042969 C 523.421875 136.167969 523.136719 136.148438 522.917969 135.988281 C 522.703125 135.835938 522.597656 135.570312 522.640625 135.304688 L 524.710938 123.21875 C 524.753906 122.988281 524.675781 122.757812 524.511719 122.597656 L 515.730469 114.039062 C 515.542969 113.851562 515.46875 113.570312 515.550781 113.320312 C 515.632812 113.0625 515.855469 112.878906 516.121094 112.839844 L 528.253906 111.074219 C 528.480469 111.039062 528.679688 110.898438 528.777344 110.691406 L 534.210938 99.695312 " fill-opacity="1" fill-rule="nonzero"/><path fill="#ffffff" d="M 580.085938 99.695312 C 580.207031 99.453125 580.445312 99.304688 580.71875 99.304688 C 580.984375 99.304688 581.222656 99.453125 581.34375 99.695312 L 586.769531 110.691406 C 586.871094 110.898438 587.070312 111.039062 587.304688 111.074219 L 599.433594 112.839844 C 599.699219 112.878906 599.921875 113.0625 600.003906 113.320312 C 600.085938 113.570312 600.011719 113.851562 599.824219 114.039062 L 591.042969 122.597656 C 590.878906 122.757812 590.804688 122.988281 590.839844 123.21875 L 592.917969 135.304688 C 592.960938 135.570312 592.855469 135.835938 592.636719 135.988281 C 592.421875 136.148438 592.132812 136.167969 591.898438 136.042969 L 581.042969 130.339844 C 580.835938 130.230469 580.589844 130.230469 580.386719 130.339844 L 569.53125 136.042969 C 569.300781 136.167969 569.011719 136.148438 568.792969 135.988281 C 568.578125 135.835938 568.46875 135.570312 568.515625 135.304688 L 570.589844 123.21875 C 570.628906 122.988281 570.550781 122.757812 570.386719 122.597656 L 561.605469 114.039062 C 561.414062 113.851562 561.34375 113.570312 561.425781 113.320312 C 561.507812 113.0625 561.730469 112.878906 561.996094 112.839844 L 574.132812 111.074219 C 574.359375 111.039062 574.550781 110.898438 574.660156 110.691406 L 580.085938 99.695312 " fill-opacity="1" fill-rule="nonzero"/><path fill="#ffffff" d="M 625.957031 99.695312 C 626.078125 99.453125 626.320312 99.304688 626.589844 99.304688 C 626.855469 99.304688 627.101562 99.453125 627.21875 99.695312 L 632.644531 110.691406 C 632.746094 110.898438 632.949219 111.039062 633.175781 111.074219 L 645.308594 112.839844 C 645.578125 112.878906 645.792969 113.0625 645.871094 113.320312 C 645.960938 113.570312 645.890625 113.851562 645.699219 114.039062 L 636.917969 122.597656 C 636.753906 122.757812 636.679688 122.988281 636.71875 123.21875 L 638.789062 135.304688 C 638.835938 135.570312 638.726562 135.835938 638.511719 135.988281 C 638.292969 136.148438 638.007812 136.167969 637.765625 136.042969 L 626.914062 130.339844 C 626.710938 130.230469 626.46875 130.230469 626.261719 130.339844 L 615.410156 136.042969 C 615.171875 136.167969 614.882812 136.148438 614.671875 135.988281 C 614.453125 135.835938 614.34375 135.570312 614.390625 135.304688 L 616.460938 123.21875 C 616.5 122.988281 616.429688 122.757812 616.257812 122.597656 L 607.476562 114.039062 C 607.285156 113.851562 607.214844 113.570312 607.304688 113.320312 C 607.386719 113.0625 607.601562 112.878906 607.867188 112.839844 L 620.003906 111.074219 C 620.230469 111.039062 620.429688 110.898438 620.53125 110.691406 L 625.957031 99.695312 " fill-opacity="1" fill-rule="nonzero"/><path fill="#ffffff" d="M 671.832031 99.691406 C 671.949219 99.453125 672.199219 99.300781 672.46875 99.300781 C 672.734375 99.300781 672.976562 99.453125 673.097656 99.691406 L 678.519531 110.6875 C 678.625 110.898438 678.824219 111.039062 679.050781 111.074219 L 691.1875 112.835938 C 691.449219 112.875 691.671875 113.0625 691.75 113.316406 C 691.835938 113.570312 691.769531 113.851562 691.574219 114.03125 L 682.792969 122.597656 C 682.628906 122.757812 682.554688 122.988281 682.589844 123.21875 L 684.667969 135.304688 C 684.707031 135.566406 684.605469 135.832031 684.386719 135.992188 C 684.167969 136.144531 683.882812 136.164062 683.644531 136.039062 L 672.792969 130.339844 C 672.589844 130.230469 672.339844 130.230469 672.136719 130.339844 L 661.28125 136.039062 C 661.050781 136.164062 660.761719 136.144531 660.546875 135.992188 C 660.328125 135.832031 660.21875 135.566406 660.261719 135.304688 L 662.339844 123.21875 C 662.378906 122.988281 662.296875 122.757812 662.132812 122.597656 L 653.355469 114.03125 C 653.164062 113.851562 653.09375 113.570312 653.179688 113.316406 C 653.261719 113.0625 653.480469 112.875 653.746094 112.835938 L 665.875 111.074219 C 666.109375 111.039062 666.304688 110.898438 666.40625 110.6875 L 671.832031 99.691406 " fill-opacity="1" fill-rule="nonzero"/><path fill="#86a7fc" d="M 237.554688 106.082031 C 209.597656 106.082031 186.933594 128.683594 186.933594 156.558594 C 186.933594 163.527344 190.097656 173.273438 194.84375 183.96875 C 206.804688 210.9375 228.816406 243.964844 235.546875 253.828125 C 236.511719 255.246094 238.59375 255.25 239.558594 253.832031 C 248.953125 240.058594 288.171875 181.09375 288.171875 156.558594 C 288.171875 128.683594 265.507812 106.082031 237.554688 106.082031 " fill-opacity="1" fill-rule="nonzero"/><path fill="#99b9ff" d="M 261.9375 176.207031 L 268.0625 176.207031 C 268.699219 176.207031 269.214844 175.6875 269.214844 175.050781 L 269.214844 161.339844 C 269.214844 160.707031 268.699219 160.191406 268.0625 160.191406 L 261.9375 160.191406 C 261.300781 160.191406 260.789062 160.707031 260.789062 161.339844 L 260.789062 175.050781 C 260.789062 175.6875 261.300781 176.207031 261.9375 176.207031 " fill-opacity="1" fill-rule="nonzero"/><path fill="#99b9ff" d="M 211.183594 176.207031 L 205.058594 176.207031 C 204.425781 176.207031 203.910156 175.6875 203.910156 175.050781 L 203.910156 161.339844 C 203.910156 160.707031 204.425781 160.191406 205.058594 160.191406 L 211.183594 160.191406 C 211.820312 160.191406 212.335938 160.707031 212.335938 161.339844 L 212.335938 175.050781 C 212.335938 175.6875 211.820312 176.207031 211.183594 176.207031 " fill-opacity="1" fill-rule="nonzero"/><path fill="#ffffff" d="M 269.742188 153.164062 C 269.722656 150.34375 268.542969 147.65625 266.480469 145.734375 C 265.113281 144.457031 262.679688 140.285156 262.679688 140.285156 L 258.898438 132.605469 C 257.78125 130.414062 255.578125 128.980469 253.117188 128.855469 L 245.980469 128.496094 C 239.738281 128.179688 233.484375 128.179688 227.242188 128.496094 L 220.101562 128.855469 C 217.644531 128.980469 215.441406 130.410156 214.324219 132.605469 L 210.046875 141.179688 C 209.0625 143.046875 208.011719 144.457031 206.644531 145.734375 C 204.582031 147.65625 203.40625 150.34375 203.386719 153.164062 L 203.351562 157.949219 C 203.335938 159.757812 203.53125 161.5625 203.925781 163.332031 L 205.011719 168.117188 C 205.316406 169.46875 206.535156 170.449219 207.917969 170.332031 L 265.207031 170.332031 C 266.589844 170.449219 267.8125 169.46875 268.113281 168.117188 L 269.199219 163.3125 C 269.59375 161.542969 269.789062 159.75 269.777344 157.941406 L 269.742188 153.164062 " fill-opacity="1" fill-rule="nonzero"/><path fill="#ffffff" d="M 270.398438 141.539062 L 269.890625 140.183594 C 269.691406 139.65625 269.234375 139.261719 268.679688 139.148438 L 265.664062 138.527344 C 264.949219 138.375 264.234375 138.921875 264.234375 139.652344 L 261.214844 139.867188 L 262.332031 142.453125 L 262.390625 143.214844 L 263.367188 143.15625 C 263.914062 143.121094 263.644531 143.21875 264.152344 143.429688 L 264.414062 143.472656 C 264.554688 143.53125 265.386719 143.546875 265.535156 143.523438 L 269.457031 142.847656 C 269.691406 142.804688 269.898438 142.667969 270.023438 142.460938 L 270.40625 141.835938 C 270.429688 141.796875 270.4375 141.652344 270.398438 141.539062 " fill-opacity="1" fill-rule="nonzero"/><path fill="#ffffff" d="M 210.675781 142.453125 L 212.09375 139.769531 L 208.878906 139.652344 C 208.878906 138.921875 208.167969 138.375 207.453125 138.527344 L 204.460938 139.148438 C 203.90625 139.261719 203.441406 139.65625 203.242188 140.183594 L 202.710938 141.589844 C 202.675781 141.695312 202.699219 141.804688 202.730469 141.855469 L 203.148438 142.539062 C 203.242188 142.695312 203.394531 142.800781 203.574219 142.832031 L 207.464844 143.5 C 207.691406 143.542969 208.945312 143.515625 209.15625 143.429688 C 209.667969 143.21875 209.195312 143.121094 209.746094 143.15625 L 210.730469 143.214844 L 210.675781 142.453125 " fill-opacity="1" fill-rule="nonzero"/><path fill="#99b9ff" d="M 253.167969 149.285156 L 253.277344 149.210938 C 254.78125 148.25 256.472656 147.632812 258.238281 147.398438 L 264.347656 146.585938 C 264.945312 146.503906 265.5 146.914062 265.59375 147.511719 L 265.828125 149 C 266.007812 150.132812 265.164062 151.175781 264.015625 151.242188 L 258.925781 151.507812 C 257.523438 151.582031 256.125 151.308594 254.859375 150.710938 L 253.207031 149.933594 C 252.941406 149.804688 252.917969 149.4375 253.167969 149.285156 " fill-opacity="1" fill-rule="nonzero"/><path fill="#ffffff" d="M 218.882812 149.164062 C 217.429688 148.238281 215.789062 147.636719 214.074219 147.410156 L 207.523438 146.539062 C 207.125 146.484375 206.757812 146.757812 206.695312 147.15625 L 206.339844 149.40625 C 206.195312 150.328125 206.875 151.171875 207.804688 151.222656 L 213.308594 151.507812 C 214.707031 151.585938 216.105469 151.308594 217.375 150.714844 L 218.828125 150.027344 C 219.179688 149.863281 219.210938 149.375 218.882812 149.164062 " fill-opacity="1" fill-rule="nonzero"/><path fill="#99b9ff" d="M 220.796875 149.257812 C 219.34375 148.332031 217.703125 147.726562 215.992188 147.5 L 209.4375 146.628906 C 209.039062 146.574219 208.671875 146.84375 208.609375 147.246094 L 208.253906 149.496094 C 208.109375 150.417969 208.789062 151.261719 209.71875 151.3125 L 215.222656 151.597656 C 216.625 151.671875 218.019531 151.398438 219.289062 150.804688 L 220.742188 150.117188 C 221.09375 149.953125 221.125 149.46875 220.796875 149.257812 " fill-opacity="1" fill-rule="nonzero"/><path fill="#99b9ff" d="M 215.105469 139.6875 L 234.402344 139.949219 L 257.46875 139.636719 L 255.425781 134.933594 C 254.46875 132.675781 252.578125 131.210938 250.46875 131.082031 L 244.34375 130.714844 C 238.988281 130.390625 233.617188 130.390625 228.261719 130.714844 L 222.132812 131.082031 C 220.023438 131.210938 218.132812 132.675781 217.175781 134.925781 L 215.105469 139.6875 " fill-opacity="1" fill-rule="nonzero"/><path fill="#99b9ff" d="M 260.6875 162.640625 L 211.589844 162.640625 C 210.871094 162.640625 210.289062 162.054688 210.289062 161.339844 C 210.289062 160.621094 210.871094 160.039062 211.589844 160.039062 L 260.6875 160.039062 C 261.40625 160.039062 261.988281 160.621094 261.988281 161.339844 C 261.988281 162.054688 261.40625 162.640625 260.6875 162.640625 " fill-opacity="1" fill-rule="nonzero"/><path fill="#86a7fc" d="M 247.257812 271.386719 C 247.257812 277.40625 242.375 282.292969 236.351562 282.292969 C 230.328125 282.292969 225.445312 277.40625 225.445312 271.386719 C 225.445312 265.363281 230.328125 260.476562 236.351562 260.476562 C 242.375 260.476562 247.257812 265.363281 247.257812 271.386719 " fill-opacity="1" fill-rule="nonzero"/><path fill="#99b9ff" d="M 237.554688 107.382812 C 210.359375 107.382812 188.234375 129.445312 188.234375 156.554688 C 188.234375 162.734375 190.855469 171.777344 196.03125 183.445312 C 207.96875 210.355469 230.117188 243.558594 236.621094 253.101562 C 237.046875 253.722656 238.058594 253.730469 238.484375 253.101562 C 246.5625 241.253906 286.871094 180.921875 286.871094 156.554688 C 286.871094 129.445312 264.75 107.382812 237.554688 107.382812 Z M 237.558594 256.191406 C 236.320312 256.191406 235.167969 255.582031 234.472656 254.5625 C 227.9375 244.980469 205.679688 211.613281 193.65625 184.496094 C 188.332031 172.5 185.632812 163.097656 185.632812 156.554688 C 185.632812 128.011719 208.925781 104.78125 237.554688 104.78125 C 266.183594 104.78125 289.476562 128.011719 289.476562 156.554688 C 289.476562 181.058594 252.089844 237.769531 240.632812 254.566406 C 239.9375 255.582031 238.785156 256.191406 237.558594 256.191406 " fill-opacity="1" fill-rule="nonzero"/><path fill="#ffffff" d="M 47.761719 707.886719 L 41.914062 729.375 L 58.199219 732.089844 L 63.628906 713.089844 L 47.761719 707.886719 " fill-opacity="1" fill-rule="nonzero"/><path fill="#000000" d="M 43.546875 728.328125 L 57.269531 730.617188 L 62.035156 713.941406 L 48.65625 709.550781 Z M 58.199219 733.390625 C 58.128906 733.390625 58.058594 733.382812 57.988281 733.367188 L 41.703125 730.65625 C 41.339844 730.597656 41.019531 730.386719 40.820312 730.074219 C 40.621094 729.765625 40.566406 729.386719 40.660156 729.035156 L 46.507812 707.546875 C 46.601562 707.203125 46.832031 706.914062 47.148438 706.746094 C 47.460938 706.574219 47.832031 706.542969 48.167969 706.652344 L 64.03125 711.855469 C 64.695312 712.074219 65.070312 712.773438 64.878906 713.449219 L 59.449219 732.445312 C 59.289062 733.011719 58.769531 733.390625 58.199219 733.390625 " fill-opacity="1" fill-rule="nonzero"/><path fill="#ffffff" d="M 143.292969 704.386719 L 142.28125 727.175781 L 159.992188 726.210938 L 165 702.144531 L 143.292969 704.386719 " fill-opacity="1" fill-rule="nonzero"/><path fill="#000000" d="M 144.542969 705.566406 L 143.644531 725.800781 L 158.921875 724.964844 L 163.363281 703.621094 Z M 142.28125 728.472656 C 141.941406 728.472656 141.613281 728.339844 141.367188 728.101562 C 141.105469 727.839844 140.964844 727.484375 140.980469 727.117188 L 141.992188 704.328125 C 142.023438 703.683594 142.519531 703.15625 143.160156 703.09375 L 164.867188 700.851562 C 165.28125 700.808594 165.6875 700.964844 165.964844 701.273438 C 166.242188 701.582031 166.355469 702.003906 166.273438 702.410156 L 161.265625 726.472656 C 161.144531 727.050781 160.648438 727.476562 160.0625 727.507812 L 142.351562 728.472656 C 142.328125 728.472656 142.304688 728.472656 142.28125 728.472656 " fill-opacity="1" fill-rule="nonzero"/><path fill="#86a7fc" d="M 79.160156 470.707031 C 79.160156 470.707031 69.933594 493.769531 68.152344 517.402344 C 66.367188 541.039062 44.40625 696.660156 42.257812 711.207031 C 42.257812 711.207031 56.503906 718.273438 65.890625 716.757812 C 65.890625 716.757812 113.382812 621.75 121.988281 543.089844 C 130.597656 464.421875 128.078125 470.707031 128.078125 470.707031 L 79.160156 470.707031 " fill-opacity="1" fill-rule="nonzero"/><path fill="#86a7fc" d="M 95.433594 479.554688 C 95.433594 479.554688 92.476562 522.171875 107.269531 552.289062 C 122.0625 582.40625 142.039062 681.28125 138.664062 711.625 C 138.664062 711.625 157.386719 716.566406 166.257812 713.089844 C 166.257812 713.089844 193.050781 561.945312 158.777344 478.957031 L 95.433594 479.554688 " fill-opacity="1" fill-rule="nonzero"/><path fill="#ffffff" d="M 40.105469 725.757812 L 37.714844 738.488281 C 36.886719 742.902344 39.304688 747.3125 43.5 748.917969 C 49.292969 751.144531 58.128906 753.648438 68.152344 753.4375 C 77.234375 753.238281 84.835938 752.859375 90.097656 752.527344 C 92.882812 752.355469 93.960938 748.824219 91.753906 747.113281 L 61.816406 723.949219 L 55.03125 729.375 L 40.105469 725.757812 " fill-opacity="1" fill-rule="nonzero"/><path fill="#000000" d="M 41.132812 727.34375 L 38.992188 738.726562 C 38.277344 742.550781 40.367188 746.324219 43.964844 747.707031 C 49.535156 749.84375 58.253906 752.351562 68.121094 752.136719 C 77.441406 751.9375 85.171875 751.53125 90.015625 751.230469 C 91.121094 751.164062 91.472656 750.289062 91.554688 750.019531 C 91.636719 749.753906 91.835938 748.824219 90.957031 748.144531 L 61.832031 725.601562 L 55.84375 730.390625 C 55.53125 730.640625 55.117188 730.730469 54.726562 730.636719 Z M 66.949219 754.75 C 57.164062 754.75 48.59375 752.265625 43.03125 750.132812 C 38.261719 748.300781 35.488281 743.304688 36.4375 738.25 L 38.828125 725.519531 C 38.894531 725.167969 39.101562 724.859375 39.402344 724.664062 C 39.699219 724.472656 40.066406 724.410156 40.414062 724.492188 L 54.71875 727.964844 L 61.007812 722.929688 C 61.476562 722.558594 62.140625 722.554688 62.613281 722.917969 L 92.550781 746.089844 C 93.992188 747.199219 94.574219 749.046875 94.039062 750.78125 C 93.507812 752.519531 91.992188 753.710938 90.179688 753.824219 C 85.308594 754.132812 77.542969 754.535156 68.179688 754.734375 C 67.769531 754.746094 67.359375 754.75 66.949219 754.75 " fill-opacity="1" fill-rule="nonzero"/><path fill="#000000" d="M 65.242188 739.996094 C 65.042969 739.996094 64.835938 739.953125 64.644531 739.851562 C 64.007812 739.519531 63.757812 738.738281 64.089844 738.097656 L 68 730.585938 C 68.332031 729.949219 69.113281 729.695312 69.753906 730.03125 C 70.390625 730.363281 70.636719 731.148438 70.308594 731.785156 L 66.398438 739.296875 C 66.167969 739.742188 65.714844 739.996094 65.242188 739.996094 " fill-opacity="1" fill-rule="nonzero"/><path fill="#000000" d="M 72.617188 743.296875 C 72.425781 743.296875 72.234375 743.253906 72.054688 743.167969 C 71.40625 742.855469 71.136719 742.078125 71.449219 741.433594 L 74.855469 734.375 C 75.167969 733.726562 75.941406 733.457031 76.589844 733.769531 C 77.238281 734.082031 77.507812 734.859375 77.195312 735.507812 L 73.789062 742.5625 C 73.566406 743.027344 73.101562 743.296875 72.617188 743.296875 " fill-opacity="1" fill-rule="nonzero"/><path fill="#ffffff" d="M 141.191406 722.328125 C 141.191406 722.328125 140.257812 730.292969 140.496094 738.214844 C 140.597656 741.644531 143.273438 744.4375 146.691406 744.734375 C 156.324219 745.558594 175.804688 746.582031 194.175781 743.640625 C 196.140625 743.324219 197.042969 740.988281 195.78125 739.449219 C 192.015625 734.859375 182.761719 726.539062 161.65625 719.3125 L 155.4375 723.949219 C 155.4375 723.949219 150.117188 720.316406 141.191406 722.328125 " fill-opacity="1" fill-rule="nonzero"/><path fill="#000000" d="M 142.386719 723.410156 C 142.152344 725.722656 141.609375 731.996094 141.796875 738.175781 C 141.878906 740.9375 144.03125 743.199219 146.804688 743.433594 C 156.636719 744.28125 175.839844 745.261719 193.96875 742.355469 C 194.636719 742.25 194.894531 741.742188 194.976562 741.53125 C 195.054688 741.324219 195.195312 740.785156 194.773438 740.273438 C 191.300781 736.035156 182.425781 727.90625 161.882812 720.765625 L 156.214844 724.992188 C 155.769531 725.320312 155.164062 725.332031 154.703125 725.023438 C 154.664062 724.992188 150.042969 721.984375 142.386719 723.410156 Z M 166.945312 746.902344 C 158.691406 746.902344 151.484375 746.445312 146.582031 746.027344 C 142.496094 745.675781 139.320312 742.332031 139.195312 738.253906 C 138.957031 730.328125 139.863281 722.507812 139.902344 722.175781 C 139.964844 721.628906 140.367188 721.179688 140.90625 721.058594 C 148.339844 719.382812 153.4375 721.40625 155.34375 722.394531 L 160.878906 718.273438 C 161.222656 718.011719 161.671875 717.941406 162.078125 718.082031 C 183.691406 725.484375 193.097656 734.128906 196.785156 738.621094 C 197.671875 739.707031 197.90625 741.140625 197.40625 742.453125 C 196.90625 743.777344 195.773438 744.699219 194.378906 744.925781 C 185.046875 746.417969 175.441406 746.902344 166.945312 746.902344 " fill-opacity="1" fill-rule="nonzero"/><path fill="#000000" d="M 165 734.828125 C 164.695312 734.828125 164.390625 734.722656 164.140625 734.5 C 163.601562 734.03125 163.550781 733.207031 164.023438 732.671875 L 172.425781 723.089844 C 172.902344 722.550781 173.722656 722.5 174.261719 722.96875 C 174.800781 723.441406 174.855469 724.261719 174.382812 724.808594 L 165.976562 734.382812 C 165.71875 734.679688 165.359375 734.828125 165 734.828125 " fill-opacity="1" fill-rule="nonzero"/><path fill="#000000" d="M 173.132812 736.253906 C 172.84375 736.253906 172.554688 736.160156 172.3125 735.964844 C 171.757812 735.507812 171.671875 734.691406 172.125 734.136719 L 178.308594 726.542969 C 178.761719 725.988281 179.582031 725.902344 180.136719 726.359375 C 180.695312 726.8125 180.777344 727.628906 180.324219 728.1875 L 174.144531 735.777344 C 173.886719 736.089844 173.511719 736.253906 173.132812 736.253906 " fill-opacity="1" fill-rule="nonzero"/><path fill="#000000" d="M 114.839844 573.347656 C 114.296875 573.347656 113.792969 573.011719 113.609375 572.46875 C 113.578125 572.382812 110.519531 563.519531 103.15625 548.101562 C 95.648438 532.382812 93.964844 512.789062 93.898438 511.964844 C 93.839844 511.25 94.371094 510.625 95.085938 510.566406 C 95.8125 510.503906 96.429688 511.035156 96.488281 511.753906 C 96.503906 511.949219 98.203125 531.703125 105.5 546.980469 C 112.941406 562.554688 116.039062 571.542969 116.070312 571.628906 C 116.300781 572.308594 115.9375 573.046875 115.261719 573.277344 C 115.121094 573.328125 114.980469 573.347656 114.839844 573.347656 " fill-opacity="1" fill-rule="nonzero"/><path fill="#ffffff" d="M 103.421875 352.078125 L 107.757812 328.292969 L 127.136719 333.277344 L 124.460938 349.839844 L 103.421875 352.078125 " fill-opacity="1" fill-rule="nonzero"/><path fill="#000000" d="M 108.785156 329.898438 L 105.015625 350.601562 L 123.335938 348.652344 L 125.664062 334.242188 Z M 103.421875 353.375 C 103.0625 353.375 102.71875 353.230469 102.472656 352.964844 C 102.191406 352.660156 102.070312 352.246094 102.144531 351.847656 L 106.476562 328.058594 C 106.542969 327.707031 106.753906 327.390625 107.058594 327.199219 C 107.359375 327.003906 107.730469 326.945312 108.082031 327.035156 L 127.460938 332.019531 C 128.109375 332.1875 128.527344 332.820312 128.421875 333.488281 L 125.746094 350.046875 C 125.652344 350.625 125.183594 351.066406 124.597656 351.132812 L 103.5625 353.371094 C 103.515625 353.375 103.46875 353.375 103.421875 353.375 " fill-opacity="1" fill-rule="nonzero"/><path fill="#000000" d="M 123.726562 296.265625 C 116.800781 297.203125 115.859375 305.019531 107.578125 305.941406 C 103.789062 306.359375 101.882812 304.953125 98.519531 306.570312 C 96.296875 307.636719 93.058594 310.210938 92.726562 313.613281 C 92.304688 317.957031 97.0625 318.890625 101.921875 327.242188 C 105.332031 333.105469 105.542969 337.03125 108.253906 337.457031 C 111 337.886719 112.226562 334.097656 115.257812 334.339844 C 119.183594 334.652344 119.695312 341.207031 123.835938 343.160156 C 126.445312 344.390625 131.914062 344.136719 139.632812 338.351562 C 140.886719 337.417969 141.289062 335.71875 140.59375 334.320312 C 139.703125 332.527344 138.5625 330.269531 137.292969 328.203125 C 131.242188 318.351562 126.96875 316.6875 127.8125 313.667969 C 129.105469 309.042969 137.597656 309.898438 138.25 306.175781 C 138.929688 302.3125 130.835938 295.296875 123.726562 296.265625 " fill-opacity="1" fill-rule="nonzero"/><path fill="#ffffff" d="M 112.480469 316.378906 L 114.324219 315.421875 C 114.324219 315.421875 120.296875 327.890625 122.636719 331.085938 C 124.972656 334.28125 135.414062 327.792969 135.414062 327.792969 L 135.671875 325.488281 L 136.917969 324.675781 C 137.304688 324.421875 137.558594 324.007812 137.605469 323.550781 C 137.652344 323.089844 137.488281 322.632812 137.160156 322.308594 C 134.640625 319.8125 129.292969 314.144531 126.695312 308.625 C 126.695312 308.625 117.90625 308.105469 112.480469 316.378906 " fill-opacity="1" fill-rule="nonzero"/><path fill="#000000" d="M 111.515625 317.25 C 111.453125 316.945312 111.34375 316.414062 111.480469 315.847656 C 111.542969 315.574219 111.652344 315.324219 111.773438 315.117188 C 111.828125 315.019531 111.902344 314.910156 111.945312 314.847656 L 112.03125 314.734375 C 112.261719 314.4375 112.476562 314.125 112.722656 313.839844 C 113.195312 313.246094 113.722656 312.699219 114.265625 312.167969 C 115.375 311.132812 116.617188 310.222656 117.953125 309.5 C 119.285156 308.761719 120.722656 308.226562 122.1875 307.859375 C 122.921875 307.679688 123.667969 307.53125 124.421875 307.441406 C 125.195312 307.355469 125.898438 307.292969 126.773438 307.332031 L 126.777344 307.332031 C 127.265625 307.355469 127.679688 307.65625 127.867188 308.074219 C 128.5625 309.621094 129.449219 311.117188 130.402344 312.578125 C 131.355469 314.039062 132.394531 315.464844 133.5 316.84375 C 134.605469 318.222656 135.773438 319.558594 137.007812 320.828125 L 137.46875 321.308594 L 137.703125 321.546875 L 137.824219 321.671875 C 137.886719 321.734375 137.945312 321.800781 138 321.871094 C 138.449219 322.433594 138.613281 323.195312 138.472656 323.898438 C 138.398438 324.25 138.265625 324.585938 138.066406 324.894531 C 137.964844 325.046875 137.855469 325.199219 137.722656 325.328125 C 137.65625 325.394531 137.585938 325.457031 137.515625 325.519531 L 137.378906 325.644531 C 137.046875 325.960938 136.722656 326.285156 136.367188 326.558594 L 136.9375 325.628906 C 136.902344 326.402344 136.789062 327.167969 136.71875 327.9375 C 136.679688 328.347656 136.449219 328.699219 136.121094 328.898438 L 136.105469 328.90625 C 133.753906 330.332031 131.394531 331.585938 128.746094 332.542969 C 127.410156 332.988281 126.046875 333.429688 124.316406 333.339844 C 123.878906 333.304688 123.410156 333.222656 122.925781 333.023438 C 122.441406 332.816406 121.945312 332.476562 121.59375 332.019531 C 121.09375 331.347656 120.773438 330.808594 120.40625 330.207031 C 119.027344 327.867188 117.8125 325.515625 116.601562 323.148438 C 115.390625 320.785156 114.257812 318.398438 113.117188 316 L 114.9375 316.601562 C 114.445312 316.859375 113.816406 317.105469 113.167969 317.199219 C 112.519531 317.292969 111.953125 317.25 111.515625 317.25 Z M 113.445312 315.507812 C 113.621094 315.191406 113.671875 314.832031 113.636719 314.601562 C 113.601562 314.375 113.585938 314.300781 113.707031 314.238281 C 114.347656 313.894531 115.144531 314.132812 115.492188 314.777344 L 115.511719 314.8125 L 115.527344 314.847656 C 116.683594 317.199219 117.882812 319.550781 119.078125 321.886719 C 120.273438 324.222656 121.492188 326.5625 122.800781 328.769531 C 123.121094 329.304688 123.492188 329.886719 123.777344 330.277344 C 123.859375 330.390625 124.082031 330.519531 124.546875 330.566406 C 125.46875 330.648438 126.707031 330.347656 127.859375 329.964844 C 130.195312 329.15625 132.546875 327.960938 134.722656 326.675781 L 134.109375 327.648438 C 134.210938 326.878906 134.269531 326.109375 134.402344 325.347656 L 134.433594 325.171875 C 134.492188 324.839844 134.703125 324.570312 134.976562 324.417969 C 135.371094 324.207031 135.796875 324.039062 136.214844 323.863281 C 136.265625 323.839844 136.335938 323.8125 136.359375 323.800781 C 136.382812 323.800781 136.402344 323.796875 136.421875 323.789062 C 136.460938 323.777344 136.503906 323.765625 136.539062 323.738281 C 136.609375 323.6875 136.667969 323.609375 136.6875 323.523438 C 136.738281 323.34375 136.675781 323.148438 136.5625 323.011719 L 135.675781 322.128906 C 134.402344 320.84375 133.152344 319.523438 131.929688 318.175781 C 129.511719 315.457031 127.214844 312.570312 125.523438 309.175781 L 126.617188 309.917969 C 126.085938 309.910156 125.382812 309.960938 124.757812 310.050781 C 124.117188 310.136719 123.476562 310.265625 122.847656 310.429688 C 121.589844 310.761719 120.378906 311.253906 119.242188 311.871094 C 118.105469 312.484375 117.054688 313.25 116.101562 314.128906 C 115.632812 314.574219 115.167969 315.03125 114.753906 315.535156 C 114.535156 315.773438 114.34375 316.042969 114.140625 316.296875 L 114.066406 316.390625 C 114.054688 316.402344 114.082031 316.363281 114.089844 316.339844 C 114.105469 316.277344 114.117188 316.171875 114.082031 316.042969 C 114.019531 315.765625 113.707031 315.527344 113.445312 315.507812 " fill-opacity="1" fill-rule="nonzero"/><path fill="#ffffff" d="M 116.410156 325.5 C 116.410156 325.5 111.605469 319.621094 109.394531 322.375 C 107.179688 325.125 112.632812 331.464844 116.410156 325.5 " fill-opacity="1" fill-rule="nonzero"/><path fill="#ffffff" d="M 35.296875 505.085938 C 35.296875 505.085938 36.796875 519.882812 34.214844 525.230469 C 31.636719 530.582031 14.871094 540.804688 14.871094 540.804688 C 14.871094 540.804688 9.789062 537.5625 14.871094 533.40625 C 19.953125 529.257812 22.003906 525.804688 22.003906 525.804688 C 22.003906 525.804688 20.964844 510.0625 23.246094 506.796875 C 25.527344 503.53125 35.296875 505.085938 35.296875 505.085938 " fill-opacity="1" fill-rule="nonzero"/><path fill="#000000" d="M 30.417969 506.011719 C 27.679688 506.011719 25.09375 506.417969 24.3125 507.542969 C 22.839844 509.644531 22.910156 519.808594 23.304688 525.71875 C 23.320312 525.980469 23.257812 526.238281 23.125 526.46875 C 23.035156 526.617188 20.894531 530.167969 15.691406 534.414062 C 14.460938 535.421875 13.863281 536.382812 13.914062 537.28125 C 13.960938 538.082031 14.519531 538.777344 14.972656 539.214844 C 20.027344 536.066406 31.171875 528.554688 33.046875 524.667969 C 34.882812 520.859375 34.488281 510.882812 34.097656 506.230469 C 32.945312 506.09375 31.664062 506.011719 30.417969 506.011719 Z M 14.871094 542.105469 C 14.628906 542.105469 14.382812 542.039062 14.171875 541.902344 C 14.0625 541.832031 11.476562 540.152344 11.320312 537.433594 C 11.214844 535.65625 12.132812 533.964844 14.046875 532.402344 C 17.992188 529.179688 20.054688 526.378906 20.679688 525.453125 C 20.464844 521.96875 19.867188 509.359375 22.179688 506.050781 C 24.792969 502.308594 33.734375 503.523438 35.503906 503.804688 C 36.085938 503.898438 36.53125 504.367188 36.589844 504.957031 C 36.652344 505.574219 38.097656 520.179688 35.386719 525.796875 C 32.71875 531.332031 17.296875 540.847656 15.546875 541.917969 C 15.339844 542.042969 15.105469 542.105469 14.871094 542.105469 " fill-opacity="1" fill-rule="nonzero"/><path fill="#ffffff" d="M 221.863281 301.734375 L 220.6875 293.898438 C 220.355469 291.6875 220.773438 289.425781 221.871094 287.480469 L 233.898438 266.164062 C 233.898438 266.164062 237.535156 267.738281 234.890625 273.296875 L 231.164062 280.382812 C 231.164062 280.382812 237.351562 283.414062 238.058594 288.664062 C 239.214844 297.226562 229.800781 303.402344 229.800781 303.402344 L 221.863281 301.734375 " fill-opacity="1" fill-rule="nonzero"/><path fill="#000000" d="M 223.015625 300.644531 L 229.511719 302.011719 C 231.25 300.726562 237.667969 295.484375 236.773438 288.835938 C 236.167969 284.355469 230.648438 281.582031 230.589844 281.554688 C 230.277344 281.394531 230.039062 281.121094 229.929688 280.785156 C 229.820312 280.453125 229.851562 280.089844 230.015625 279.777344 L 233.742188 272.691406 C 234.84375 270.371094 234.644531 269 234.226562 268.226562 L 223 288.117188 C 222.050781 289.804688 221.683594 291.789062 221.972656 293.707031 Z M 229.800781 304.703125 C 229.710938 304.703125 229.621094 304.691406 229.535156 304.675781 L 221.597656 303.003906 C 221.066406 302.894531 220.660156 302.464844 220.578125 301.925781 L 219.402344 294.09375 C 219.027344 291.605469 219.5 289.03125 220.738281 286.839844 L 232.765625 265.527344 C 233.09375 264.945312 233.808594 264.703125 234.417969 264.972656 C 234.585938 265.042969 236.09375 265.746094 236.804688 267.632812 C 237.453125 269.367188 237.203125 271.460938 236.0625 273.855469 L 232.898438 279.878906 C 234.882812 281.121094 238.75 284.066406 239.347656 288.488281 C 240.597656 297.757812 230.925781 304.21875 230.515625 304.488281 C 230.300781 304.625 230.054688 304.703125 229.800781 304.703125 " fill-opacity="1" fill-rule="nonzero"/><path fill="#000000" d="M 19.867188 507.640625 L 39.28125 507.640625 C 39.28125 507.640625 43.476562 438.710938 80.472656 416.40625 L 77.648438 360.972656 C 77.648438 360.972656 0.09375 404.117188 19.867188 507.640625 " fill-opacity="1" fill-rule="nonzero"/><path fill="#ffffff" d="M 80.949219 431.453125 L 66.445312 500.363281 C 66.445312 500.363281 125.503906 510.492188 146.085938 506.796875 C 166.667969 503.097656 169.074219 497.671875 169.074219 497.671875 L 160.375 421.882812 L 80.949219 431.453125 " fill-opacity="1" fill-rule="nonzero"/><path fill="#000000" d="M 67.996094 499.304688 C 76.867188 500.765625 127.433594 508.824219 145.859375 505.515625 C 162.566406 502.515625 166.878906 498.386719 167.726562 497.347656 L 159.230469 423.328125 L 82.03125 432.628906 Z M 134.074219 508.914062 C 108.945312 508.914062 68.261719 501.996094 66.226562 501.644531 C 65.878906 501.585938 65.570312 501.382812 65.371094 501.09375 C 65.171875 500.800781 65.101562 500.441406 65.175781 500.09375 L 79.675781 431.183594 C 79.789062 430.636719 80.242188 430.230469 80.792969 430.164062 L 160.21875 420.59375 C 160.5625 420.546875 160.90625 420.648438 161.179688 420.859375 C 161.449219 421.074219 161.625 421.390625 161.667969 421.734375 L 170.367188 497.523438 C 170.394531 497.753906 170.355469 497.988281 170.261719 498.199219 C 169.988281 498.816406 166.980469 504.363281 146.316406 508.074219 C 143.042969 508.664062 138.835938 508.914062 134.074219 508.914062 " fill-opacity="1" fill-rule="nonzero"/><path fill="#000000" d="M 107.441406 351.609375 L 77.648438 360.972656 L 64.761719 459.632812 C 64.148438 464.34375 66.859375 468.863281 71.3125 470.5 C 85.585938 475.761719 119.300781 485.046875 165.851562 477.855469 C 170.714844 477.105469 174.339844 472.960938 174.460938 468.042969 C 174.875 451.503906 175.179688 414.382812 170.5 393.0625 C 170.5 393.0625 236.179688 393.003906 232.382812 304.238281 L 218.640625 300.488281 C 218.640625 300.488281 195.554688 352.65625 155.703125 350.640625 C 155.703125 350.640625 129.019531 344.824219 107.441406 351.609375 " fill-opacity="1" fill-rule="nonzero"/><path fill="#ffffff" d="M 132.878906 345.835938 C 132.878906 345.835938 107.070312 343.378906 86.542969 347.4375 C 74.375 349.839844 51.296875 358.816406 68.914062 376.925781 C 86.527344 395.039062 98.652344 393.3125 104.460938 383.183594 C 110.269531 373.050781 120.628906 349.613281 132.878906 345.835938 " fill-opacity="1" fill-rule="nonzero"/><path fill="#000000" d="M 114.757812 346.410156 C 106.238281 346.410156 95.945312 346.898438 86.796875 348.714844 C 77.742188 350.5 66.390625 355.085938 64.203125 362.117188 C 62.933594 366.191406 64.832031 370.867188 69.84375 376.019531 C 79.113281 385.550781 87.5 390.144531 94.085938 389.316406 C 97.921875 388.832031 101.03125 386.550781 103.335938 382.535156 C 104.308594 380.835938 105.441406 378.695312 106.644531 376.433594 C 112.121094 366.128906 119.328125 352.554688 127.992188 346.792969 C 124.757812 346.601562 120.105469 346.410156 114.757812 346.410156 Z M 92.570312 392.007812 C 85.496094 392.007812 77.042969 387.148438 67.980469 377.832031 C 62.25 371.945312 60.144531 366.398438 61.71875 361.339844 C 64.980469 350.871094 82.757812 346.855469 86.289062 346.160156 C 106.769531 342.113281 132.742188 344.519531 133.003906 344.542969 C 133.621094 344.601562 134.109375 345.085938 134.171875 345.703125 C 134.238281 346.320312 133.855469 346.898438 133.261719 347.078125 C 123.601562 350.058594 114.777344 366.667969 108.941406 377.65625 C 107.730469 379.933594 106.585938 382.09375 105.589844 383.828125 C 102.898438 388.523438 99.03125 391.3125 94.414062 391.894531 C 93.8125 391.972656 93.195312 392.007812 92.570312 392.007812 " fill-opacity="1" fill-rule="nonzero"/><path fill="#000000" d="M 111.898438 353.238281 Z M 111.898438 353.242188 C 111.898438 353.242188 111.898438 353.242188 111.902344 353.242188 C 111.898438 353.242188 111.898438 353.242188 111.898438 353.242188 Z M 111.902344 353.242188 Z M 111.902344 353.242188 Z M 79.164062 368.75 C 74.734375 368.75 70.757812 367.328125 67.195312 364.503906 C 66.632812 364.054688 66.539062 363.238281 66.988281 362.675781 C 67.4375 362.113281 68.25 362.019531 68.816406 362.464844 C 76.855469 368.855469 87.132812 367.054688 101.160156 356.792969 C 107.539062 352.128906 111.546875 350.152344 113.066406 350.914062 C 113.707031 351.242188 113.964844 352.019531 113.640625 352.660156 C 113.371094 353.203125 112.773438 353.46875 112.210938 353.347656 C 111.875 353.378906 109.683594 353.78125 102.695312 358.890625 C 93.699219 365.46875 85.90625 368.75 79.164062 368.75 " fill-opacity="1" fill-rule="nonzero"/><path fill="#99b9ff" d="M 684.5 190.125 L 461.550781 190.125 C 460.203125 190.125 459.097656 189.023438 459.097656 187.671875 L 459.097656 176.808594 C 459.097656 175.464844 460.203125 174.359375 461.550781 174.359375 L 684.5 174.359375 C 685.847656 174.359375 686.949219 175.464844 686.949219 176.808594 L 686.949219 187.671875 C 686.949219 189.023438 685.847656 190.125 684.5 190.125 " fill-opacity="1" fill-rule="nonzero"/><path fill="#99b9ff" d="M 641.183594 221.648438 L 461.554688 221.648438 C 460.199219 221.648438 459.097656 220.542969 459.097656 219.199219 L 459.097656 208.339844 C 459.097656 206.992188 460.199219 205.886719 461.554688 205.886719 L 641.183594 205.886719 C 642.535156 205.886719 643.636719 206.992188 643.636719 208.339844 L 643.636719 219.199219 C 643.636719 220.542969 642.535156 221.648438 641.183594 221.648438 " fill-opacity="1" fill-rule="nonzero"/><path fill="#99b9ff" d="M 697.226562 252.6875 L 461.550781 252.6875 C 460.207031 252.6875 459.101562 251.582031 459.101562 250.230469 L 459.101562 239.375 C 459.101562 238.03125 460.207031 236.921875 461.550781 236.921875 L 697.226562 236.921875 C 698.574219 236.921875 699.679688 238.03125 699.679688 239.375 L 699.679688 250.230469 C 699.679688 251.582031 698.574219 252.6875 697.226562 252.6875 " fill-opacity="1" fill-rule="nonzero"/><path fill="#99b9ff" d="M 642.371094 309.839844 L 462.738281 309.839844 C 461.386719 309.839844 460.28125 308.738281 460.28125 307.386719 L 460.28125 296.53125 C 460.28125 295.183594 461.386719 294.074219 462.738281 294.074219 L 642.371094 294.074219 C 643.71875 294.074219 644.820312 295.183594 644.820312 296.53125 L 644.820312 307.386719 C 644.820312 308.738281 643.71875 309.839844 642.371094 309.839844 " fill-opacity="1" fill-rule="nonzero"/><path fill="#99b9ff" d="M 670.84375 341.042969 L 461.84375 341.042969 C 460.5 341.042969 459.394531 339.945312 459.394531 338.589844 L 459.394531 327.734375 C 459.394531 326.382812 460.5 325.28125 461.84375 325.28125 L 670.84375 325.28125 C 672.203125 325.28125 673.300781 326.382812 673.300781 327.734375 L 673.300781 338.589844 C 673.300781 339.945312 672.203125 341.042969 670.84375 341.042969 " fill-opacity="1" fill-rule="nonzero"/><path fill="#99b9ff" d="M 632.867188 371.585938 L 461.84375 371.585938 C 460.5 371.585938 459.390625 370.480469 459.390625 369.132812 L 459.390625 358.277344 C 459.390625 356.925781 460.5 355.824219 461.84375 355.824219 L 632.867188 355.824219 C 634.222656 355.824219 635.324219 356.925781 635.324219 358.277344 L 635.324219 369.132812 C 635.324219 370.480469 634.222656 371.585938 632.867188 371.585938 " fill-opacity="1" fill-rule="nonzero"/><path fill="#000000" d="M 709.5 462.859375 C 709.402344 462.859375 709.308594 462.847656 709.214844 462.828125 C 708.515625 462.671875 708.074219 461.976562 708.226562 461.273438 C 716.550781 423.984375 716.082031 385.273438 706.839844 346.214844 C 706.675781 345.515625 707.105469 344.816406 707.808594 344.652344 C 708.5 344.488281 709.203125 344.917969 709.371094 345.621094 C 718.707031 385.058594 719.175781 424.164062 710.769531 461.84375 C 710.628906 462.445312 710.097656 462.859375 709.5 462.859375 " fill-opacity="1" fill-rule="nonzero"/><path fill="#000000" d="M 695.820312 463.628906 C 695.726562 463.628906 695.628906 463.621094 695.53125 463.597656 C 694.832031 463.445312 694.390625 462.75 694.546875 462.050781 C 699.820312 438.402344 701.558594 413.839844 699.707031 389.050781 C 699.65625 388.335938 700.191406 387.710938 700.902344 387.65625 C 701.625 387.597656 702.246094 388.140625 702.300781 388.855469 C 704.171875 413.902344 702.417969 438.714844 697.085938 462.613281 C 696.949219 463.222656 696.410156 463.628906 695.820312 463.628906 " fill-opacity="1" fill-rule="nonzero"/><path fill="#000000" d="M 205.273438 260.929688 C 204.949219 260.929688 204.625 260.808594 204.371094 260.566406 L 143.585938 202.289062 C 143.066406 201.789062 143.050781 200.964844 143.546875 200.449219 C 144.042969 199.929688 144.867188 199.910156 145.382812 200.410156 L 206.171875 258.691406 C 206.691406 259.183594 206.707031 260.011719 206.210938 260.527344 C 205.953125 260.792969 205.613281 260.929688 205.273438 260.929688 " fill-opacity="1" fill-rule="nonzero"/><path fill="#000000" d="M 196.542969 267.753906 C 196.304688 267.753906 196.0625 267.6875 195.84375 267.546875 L 114.578125 215.722656 C 113.972656 215.339844 113.792969 214.535156 114.179688 213.929688 C 114.566406 213.324219 115.367188 213.144531 115.972656 213.53125 L 197.246094 265.355469 C 197.851562 265.742188 198.027344 266.542969 197.640625 267.148438 C 197.394531 267.539062 196.972656 267.753906 196.542969 267.753906 " fill-opacity="1" fill-rule="nonzero"/><path fill="#000000" d="M 210.082031 257.035156 C 209.636719 257.035156 209.203125 256.804688 208.960938 256.394531 L 182.535156 211.824219 C 182.167969 211.210938 182.371094 210.410156 182.988281 210.046875 C 183.605469 209.679688 184.402344 209.882812 184.769531 210.5 L 211.199219 255.070312 C 211.566406 255.691406 211.359375 256.488281 210.742188 256.851562 C 210.535156 256.976562 210.304688 257.035156 210.082031 257.035156 " fill-opacity="1" fill-rule="nonzero"/><path fill="#000000" d="M 173.445312 184.320312 C 173.292969 184.320312 173.140625 184.328125 172.988281 184.339844 C 171.191406 184.457031 169.550781 185.269531 168.367188 186.621094 C 167.179688 187.980469 166.59375 189.710938 166.710938 191.507812 C 166.832031 193.304688 167.644531 194.945312 169 196.128906 C 170.355469 197.316406 172.09375 197.902344 173.882812 197.785156 C 175.679688 197.664062 177.320312 196.851562 178.507812 195.5 C 179.691406 194.140625 180.277344 192.40625 180.15625 190.613281 C 180.039062 188.820312 179.226562 187.175781 177.871094 185.992188 C 176.632812 184.90625 175.074219 184.320312 173.445312 184.320312 Z M 173.421875 200.402344 C 171.160156 200.402344 169.003906 199.589844 167.289062 198.085938 C 165.410156 196.445312 164.285156 194.171875 164.117188 191.679688 C 163.953125 189.195312 164.765625 186.792969 166.410156 184.910156 C 168.050781 183.035156 170.324219 181.910156 172.816406 181.742188 C 175.300781 181.578125 177.707031 182.390625 179.585938 184.035156 C 181.460938 185.675781 182.585938 187.949219 182.753906 190.4375 C 182.917969 192.929688 182.105469 195.332031 180.464844 197.210938 C 178.820312 199.085938 176.546875 200.210938 174.058594 200.378906 C 173.84375 200.390625 173.632812 200.402344 173.421875 200.402344 " fill-opacity="1" fill-rule="nonzero"/></svg>